<svg width="200" height="28" viewBox="0 0 200 28" fill="none" xmlns="http://www.w3.org/2000/svg">
<g clip-path="url(#clip0_962_18397)">
<path d="M0 0.22538C0.441501 0.202144 0.67387 0.178907 0.883002 0.178907C6.18102 0.178907 11.5023 0.15567 16.8003 0.178907C19.2866 0.202144 21.5638 0.876014 23.144 2.96733C25.8859 6.59229 24.5846 11.17 20.1696 13.238C20.8203 13.5401 21.4244 13.7725 21.9821 14.0978C24.3755 15.5617 25.6303 18.6522 25.0029 21.4407C24.2826 24.6474 22.0983 26.7387 18.7289 26.9943C15.987 27.2267 13.245 27.1337 10.5031 27.1802C8.41176 27.2034 6.32044 27.1802 4.22912 27.1802C2.27722 27.1802 2.46311 27.3893 2.46311 25.4607C2.46311 18.6987 2.46311 11.9368 2.50959 5.17484C2.50959 3.92005 2.30045 2.82791 1.39421 1.92167C0.906239 1.48017 0.557686 0.922487 0 0.22538ZM8.2491 22.1843C11.1072 22.1843 13.8492 22.2772 16.5911 22.1378C18.2874 22.0448 19.3331 20.6971 19.3331 19.0937C19.3331 17.4904 18.148 16.0265 16.5214 15.9568C13.826 15.8406 11.1305 15.9335 8.31881 15.9335C8.29557 16.375 8.27234 16.7701 8.27234 17.1418C8.2491 18.7917 8.2491 20.4415 8.2491 22.1843ZM8.20263 5.24455C8.20263 7.03379 8.17939 8.68361 8.22586 10.3334C8.22586 10.5658 8.59765 10.9841 8.78355 10.9841C11.3628 10.9608 13.9654 10.9841 16.5214 10.7982C17.9389 10.682 18.8451 9.38072 18.7987 8.03298C18.7522 6.61553 17.7762 5.36074 16.3123 5.29102C13.6865 5.17484 11.0375 5.24455 8.20263 5.24455Z" fill="white"/>
<path d="M117.184 27.2035C117.184 23.2764 117.184 19.4656 117.184 15.6315C117.184 12.1227 117.137 8.59071 117.207 5.08193C117.23 3.96656 116.998 3.06032 116.231 2.24703C115.673 1.66611 115.232 0.99224 114.604 0.155712C117.509 0.155712 120.181 0.132475 122.877 0.178948C123.156 0.178948 123.481 0.597213 123.69 0.899292C127.269 5.70933 130.824 10.5194 134.379 15.3294C134.774 15.8406 135.169 16.3518 135.75 17.1419C135.75 11.3327 135.75 5.80228 135.75 0.202185C137.725 0.202185 139.561 0.202185 141.466 0.202185C141.466 9.14839 141.466 18.0714 141.466 27.157C139.724 27.157 137.958 27.2035 136.192 27.1105C135.889 27.0873 135.587 26.5761 135.332 26.2508C131.428 20.9295 127.501 15.6083 123.597 10.287C123.458 10.1011 123.295 9.93845 122.97 9.54342C122.97 15.5385 122.97 21.3245 122.97 27.1802C120.995 27.2035 119.159 27.2035 117.184 27.2035Z" fill="white"/>
<path d="M58.3013 9.4969C58.3013 15.585 58.3013 21.3477 58.3013 27.2034C56.3262 27.2034 54.5137 27.2034 52.5618 27.2034C52.5618 26.7154 52.5618 26.2507 52.5618 25.8092C52.5618 18.9776 52.5386 12.1227 52.585 5.29102C52.585 4.05947 52.3294 3.03704 51.4697 2.15404C50.9585 1.61959 50.5402 0.96896 49.936 0.178905C52.7942 0.178905 55.4199 0.155668 58.0225 0.202142C58.3478 0.202142 58.7428 0.597169 58.9752 0.899249C62.8093 6.0346 66.6201 11.1932 70.431 16.3518C70.5704 16.5377 70.6866 16.7236 71.0351 17.1883C71.0351 11.3326 71.0351 5.82547 71.0351 0.248616C72.987 0.248616 74.7995 0.248616 76.6817 0.248616C76.6817 9.17159 76.6817 18.1178 76.6817 27.2034C75.0087 27.2034 73.3356 27.2499 71.6858 27.1569C71.3605 27.1337 70.9887 26.7154 70.7563 26.3901C66.7828 21.0224 62.8325 15.6314 58.8822 10.2405C58.7893 10.1011 58.6499 9.9384 58.3013 9.4969Z" fill="white"/>
<path d="M200 27.2267C197.885 27.2267 195.817 27.2267 193.656 27.2267C193.192 25.9487 192.75 24.6474 192.192 23.3694C192.053 23.0441 191.565 22.6955 191.216 22.6723C187.777 22.6258 184.315 22.6258 180.876 22.6723C180.551 22.6723 180.063 23.0673 179.923 23.3927C179.459 24.4151 179.156 25.5072 178.692 26.5064C178.552 26.8317 178.088 27.2267 177.762 27.2267C175.903 27.2965 174.044 27.25 172.023 27.25C172.859 25.0657 173.649 22.9976 174.463 20.9295C176.6 15.3992 178.715 9.84554 180.876 4.31516C181.132 3.68776 181.062 3.2695 180.62 2.75829C179.97 2.01471 179.389 1.17818 178.692 0.27194C179.04 0.202229 179.273 0.132518 179.505 0.132518C182.595 0.132518 185.709 0.109281 188.8 0.155755C189.172 0.155755 189.752 0.504309 189.892 0.829625C193.284 9.47375 196.607 18.1411 199.953 26.8085C200 26.9479 200 27.0641 200 27.2267ZM186.011 5.77908C184.501 9.93849 183.153 13.7261 181.759 17.5834C184.64 17.5834 187.359 17.5834 190.287 17.5834C188.846 13.6564 187.498 9.86878 186.011 5.77908Z" fill="white"/>
<path d="M170.094 5.96492C168.56 6.82469 167.12 7.61474 165.656 8.42803C163.332 5.29105 160.311 4.3151 156.71 5.43047C152.713 6.66203 150.436 10.8679 151.249 15.3526C152.039 19.8141 155.292 22.649 159.475 22.4166C160.311 22.3702 161.171 22.2075 161.984 21.9984C164.819 21.2316 165.447 20.1859 164.936 17.2348C164.866 17.2116 164.796 17.1186 164.75 17.1419C162.472 17.5834 161.101 16.3983 159.963 14.6323C159.498 13.8887 158.894 13.2381 158.243 12.4015C162.379 12.4015 166.33 12.4015 170.396 12.4015C170.396 15.6315 170.419 18.7917 170.373 21.9519C170.373 22.2772 170.071 22.6258 169.815 22.9046C165.191 27.6914 157.221 28.6674 151.435 25.0889C146.602 22.0913 144.836 17.5369 145.37 12.0995C145.904 6.75498 148.879 3.06031 153.944 1.15488C160.242 -1.26175 166.655 0.643672 170.094 5.96492Z" fill="white"/>
<path d="M34.4603 15.8638C34.4603 18.0481 34.4603 20.0232 34.4603 22.1378C38.9217 22.1378 43.3368 22.1378 47.8215 22.1378C47.8215 23.8573 47.8215 25.4374 47.8215 27.1337C47.4729 27.157 47.1011 27.1802 46.7293 27.1802C41.1293 27.1802 35.5059 27.157 29.9058 27.2034C29.0461 27.2034 28.6975 27.0408 28.6975 26.0648C28.744 17.7925 28.7207 9.54338 28.7207 1.27105C28.7207 0.922492 28.7672 0.597176 28.7905 0.202148C35.1574 0.202148 41.4546 0.202148 47.8215 0.202148C47.8215 1.78226 47.8215 3.33913 47.8215 5.01219C43.4065 5.01219 39.0147 5.01219 34.53 5.01219C34.53 7.01056 34.53 8.86951 34.53 10.8679C38.1782 10.8679 41.8031 10.8679 45.4978 10.8679C45.4978 12.5642 45.4978 14.1211 45.4978 15.8406C41.8728 15.8638 38.2246 15.8638 34.4603 15.8638Z" fill="white"/>
<path d="M100.778 27.1337C93.8771 27.1337 87.1152 27.1337 80.2138 27.1337C80.2138 25.6233 80.1906 24.1594 80.2371 22.7187C80.2603 22.3702 80.5624 22.0448 80.7947 21.7195C84.5126 16.6771 88.2305 11.6579 91.9485 6.61553C92.2738 6.19727 92.5526 5.73253 93.0173 5.10513C88.6488 5.10513 84.5126 5.10513 80.2835 5.10513C80.2835 3.3856 80.2835 1.82873 80.2835 0.202148C87.0455 0.202148 93.7609 0.202148 100.593 0.202148C100.593 1.64284 100.639 3.03705 100.569 4.40803C100.546 4.80305 100.174 5.22132 99.9187 5.59311C96.0846 10.7517 92.2505 15.8871 88.4164 21.0224C88.1841 21.3245 87.9749 21.6498 87.6264 22.161C92.1111 22.161 96.4099 22.161 100.778 22.161C100.778 23.9038 100.778 25.4607 100.778 27.1337Z" fill="white"/>
<path d="M111.003 27.2267C109.12 27.2267 107.308 27.2267 105.403 27.2267C105.403 18.2573 105.403 9.28781 105.403 0.248657C107.238 0.248657 109.074 0.248657 111.003 0.248657C111.003 9.19486 111.003 18.1411 111.003 27.2267Z" fill="white"/>
</g>
<defs>
<clipPath id="clip0_962_18397">
<rect width="200" height="27.1639" fill="white" transform="translate(0 0.109253)"/>
</clipPath>
</defs>
</svg>
