<svg width="46" height="24" viewBox="0 0 46 24" fill="none" xmlns="http://www.w3.org/2000/svg">
<g clip-path="url(#clip0_1160_31030)">
<path d="M32.0891 0.851562H4.78849C3.01114 0.851562 1.57031 2.29239 1.57031 4.06974V9.2059C1.57031 10.9832 3.01114 12.4241 4.78849 12.4241H32.0891C33.8665 12.4241 35.3073 10.9832 35.3073 9.2059V4.06974C35.3073 2.29239 33.8665 0.851562 32.0891 0.851562Z" fill="#E99E05"/>
<path d="M32.0696 0.828125H4.76896C2.99161 0.828125 1.55078 2.26895 1.55078 4.04631V9.18246C1.55078 10.9598 2.99161 12.4006 4.76896 12.4006H32.0696C33.847 12.4006 35.2878 10.9598 35.2878 9.18246V4.04631C35.2878 2.26895 33.847 0.828125 32.0696 0.828125Z" fill="#E99E05"/>
<path d="M32.0501 0.804688H4.74943C2.97208 0.804688 1.53125 2.24552 1.53125 4.02287V9.15902C1.53125 10.9364 2.97208 12.3772 4.74943 12.3772H32.0501C33.8274 12.3772 35.2682 10.9364 35.2682 9.15902V4.02287C35.2682 2.24552 33.8274 0.804688 32.0501 0.804688Z" fill="#E99E05"/>
<path d="M32.0305 0.78125H4.7299C2.95255 0.78125 1.51172 2.22208 1.51172 3.99943V9.13558C1.51172 10.9129 2.95255 12.3538 4.7299 12.3538H32.0305C33.8079 12.3538 35.2487 10.9129 35.2487 9.13558V3.99943C35.2487 2.22208 33.8079 0.78125 32.0305 0.78125Z" fill="#E99E05"/>
<path d="M32.0071 0.757812H4.70646C2.92911 0.757812 1.48828 2.19864 1.48828 3.97599V9.11215C1.48828 10.8895 2.92911 12.3303 4.70646 12.3303H32.0071C33.7845 12.3303 35.2253 10.8895 35.2253 9.11215V3.97599C35.2253 2.19864 33.7845 0.757812 32.0071 0.757812Z" fill="#E99E05"/>
<path d="M31.9876 0.734375H4.68693C2.90958 0.734375 1.46875 2.1752 1.46875 3.95256V9.08871C1.46875 10.8661 2.90958 12.3069 4.68693 12.3069H31.9876C33.7649 12.3069 35.2057 10.8661 35.2057 9.08871V3.95256C35.2057 2.1752 33.7649 0.734375 31.9876 0.734375Z" fill="#E99E05"/>
<path d="M31.968 0.710938H4.6674C2.89005 0.710938 1.44922 2.15177 1.44922 3.92912V9.06527C1.44922 10.8426 2.89005 12.2835 4.6674 12.2835H31.968C33.7454 12.2835 35.1862 10.8426 35.1862 9.06527V3.92912C35.1862 2.15177 33.7454 0.710938 31.968 0.710938Z" fill="#E99E05"/>
<path d="M31.9485 0.6875H4.64787C2.87052 0.6875 1.42969 2.12833 1.42969 3.90568V9.04183C1.42969 10.8192 2.87052 12.26 4.64787 12.26H31.9485C33.7259 12.26 35.1667 10.8192 35.1667 9.04183V3.90568C35.1667 2.12833 33.7259 0.6875 31.9485 0.6875Z" fill="#E99E05"/>
<path d="M31.929 0.65625H4.62834C2.85099 0.65625 1.41016 2.09708 1.41016 3.87443V9.01058C1.41016 10.7879 2.85099 12.2288 4.62834 12.2288H31.929C33.7063 12.2288 35.1472 10.7879 35.1472 9.01058V3.87443C35.1472 2.09708 33.7063 0.65625 31.929 0.65625Z" fill="#E99E05"/>
<path d="M31.9055 0.632812H4.6049C2.82755 0.632812 1.38672 2.07364 1.38672 3.85099V8.98715C1.38672 10.7645 2.82755 12.2053 4.6049 12.2053H31.9055C33.6829 12.2053 35.1237 10.7645 35.1237 8.98715V3.85099C35.1237 2.07364 33.6829 0.632812 31.9055 0.632812Z" fill="#E99E05"/>
<path d="M31.886 0.609375H4.58537C2.80802 0.609375 1.36719 2.0502 1.36719 3.82756V8.96371C1.36719 10.7411 2.80802 12.1819 4.58537 12.1819H31.886C33.6634 12.1819 35.1042 10.7411 35.1042 8.96371V3.82756C35.1042 2.0502 33.6634 0.609375 31.886 0.609375Z" fill="#E99E05"/>
<path d="M31.8665 0.585938H4.56584C2.78849 0.585938 1.34766 2.02677 1.34766 3.80412V8.94027C1.34766 10.7176 2.78849 12.1585 4.56584 12.1585H31.8665C33.6438 12.1585 35.0847 10.7176 35.0847 8.94027V3.80412C35.0847 2.02677 33.6438 0.585938 31.8665 0.585938Z" fill="#E99E05"/>
<path d="M31.8469 0.5625H4.54631C2.76895 0.5625 1.32812 2.00333 1.32812 3.78068V8.91683C1.32812 10.6942 2.76895 12.135 4.54631 12.135H31.8469C33.6243 12.135 35.0651 10.6942 35.0651 8.91683V3.78068C35.0651 2.00333 33.6243 0.5625 31.8469 0.5625Z" fill="#E99E05"/>
<path d="M31.8274 0.539062H4.52678C2.74942 0.539062 1.30859 1.97989 1.30859 3.75724V8.8934C1.30859 10.6707 2.74942 12.1116 4.52678 12.1116H31.8274C33.6048 12.1116 35.0456 10.6707 35.0456 8.8934V3.75724C35.0456 1.97989 33.6048 0.539062 31.8274 0.539062Z" fill="#E99E05"/>
<path d="M31.804 0.515625H4.50334C2.72599 0.515625 1.28516 1.95645 1.28516 3.73381V8.86996C1.28516 10.6473 2.72599 12.0881 4.50334 12.0881H31.804C33.5813 12.0881 35.0222 10.6473 35.0222 8.86996V3.73381C35.0222 1.95645 33.5813 0.515625 31.804 0.515625Z" fill="#E99E05"/>
<path d="M31.7844 0.492188H4.48381C2.70645 0.492188 1.26562 1.93302 1.26562 3.71037V8.84652C1.26562 10.6239 2.70645 12.0647 4.48381 12.0647H31.7844C33.5618 12.0647 35.0026 10.6239 35.0026 8.84652V3.71037C35.0026 1.93302 33.5618 0.492188 31.7844 0.492188Z" fill="#E99E05"/>
<path d="M31.7649 0.460938H4.46428C2.68692 0.460938 1.24609 1.90177 1.24609 3.67912V8.81527C1.24609 10.5926 2.68692 12.0335 4.46428 12.0335H31.7649C33.5423 12.0335 34.9831 10.5926 34.9831 8.81527V3.67912C34.9831 1.90177 33.5423 0.460938 31.7649 0.460938Z" fill="#E99E05"/>
<path d="M31.7454 0.4375H4.44474C2.66739 0.4375 1.22656 1.87833 1.22656 3.65568V8.79183C1.22656 10.5692 2.66739 12.01 4.44474 12.01H31.7454C33.5227 12.01 34.9636 10.5692 34.9636 8.79183V3.65568C34.9636 1.87833 33.5227 0.4375 31.7454 0.4375Z" fill="#E99E05"/>
<path d="M31.7219 0.414062H4.42131C2.64395 0.414062 1.20312 1.85489 1.20312 3.63224V8.7684C1.20312 10.5457 2.64395 11.9866 4.42131 11.9866H31.7219C33.4993 11.9866 34.9401 10.5457 34.9401 8.7684V3.63224C34.9401 1.85489 33.4993 0.414062 31.7219 0.414062Z" fill="#E99E05"/>
<path d="M31.7024 0.390625H4.40178C2.62442 0.390625 1.18359 1.83145 1.18359 3.60881V8.74496C1.18359 10.5223 2.62442 11.9631 4.40178 11.9631H31.7024C33.4798 11.9631 34.9206 10.5223 34.9206 8.74496V3.60881C34.9206 1.83145 33.4798 0.390625 31.7024 0.390625Z" fill="#E99E05"/>
<path d="M31.6829 0.367188H4.38224C2.60489 0.367188 1.16406 1.80802 1.16406 3.58537V8.72152C1.16406 10.4989 2.60489 11.9397 4.38224 11.9397H31.6829C33.4602 11.9397 34.9011 10.4989 34.9011 8.72152V3.58537C34.9011 1.80802 33.4602 0.367188 31.6829 0.367188Z" fill="#E99E05"/>
<path d="M31.6633 0.34375H4.36271C2.58536 0.34375 1.14453 1.78458 1.14453 3.56193V8.69808C1.14453 10.4754 2.58536 11.9163 4.36271 11.9163H31.6633C33.4407 11.9163 34.8815 10.4754 34.8815 8.69808V3.56193C34.8815 1.78458 33.4407 0.34375 31.6633 0.34375Z" fill="#E99E05"/>
<path d="M31.6438 0.320312H4.34318C2.56583 0.320312 1.125 1.76114 1.125 3.53849V8.67465C1.125 10.452 2.56583 11.8928 4.34318 11.8928H31.6438C33.4212 11.8928 34.862 10.452 34.862 8.67465V3.53849C34.862 1.76114 33.4212 0.320312 31.6438 0.320312Z" fill="#E99E05"/>
<path d="M31.6204 0.296875H4.31974C2.54239 0.296875 1.10156 1.7377 1.10156 3.51506V8.65121C1.10156 10.4286 2.54239 11.8694 4.31974 11.8694H31.6204C33.3977 11.8694 34.8386 10.4286 34.8386 8.65121V3.51506C34.8386 1.7377 33.3977 0.296875 31.6204 0.296875Z" fill="#E99E05"/>
<path d="M31.6009 0.265625H4.30021C2.52286 0.265625 1.08203 1.70645 1.08203 3.48381V8.61996C1.08203 10.3973 2.52286 11.8381 4.30021 11.8381H31.6009C33.3782 11.8381 34.819 10.3973 34.819 8.61996V3.48381C34.819 1.70645 33.3782 0.265625 31.6009 0.265625Z" fill="#E99E05"/>
<path d="M31.5813 0.242188H4.28068C2.50333 0.242188 1.0625 1.68302 1.0625 3.46037V8.59652C1.0625 10.3739 2.50333 11.8147 4.28068 11.8147H31.5813C33.3587 11.8147 34.7995 10.3739 34.7995 8.59652V3.46037C34.7995 1.68302 33.3587 0.242188 31.5813 0.242188Z" fill="#E99E05"/>
<path d="M31.5618 0.21875H4.26115C2.4838 0.21875 1.04297 1.65958 1.04297 3.43693V8.57308C1.04297 10.3504 2.4838 11.7913 4.26115 11.7913H31.5618C33.3391 11.7913 34.78 10.3504 34.78 8.57308V3.43693C34.78 1.65958 33.3391 0.21875 31.5618 0.21875Z" fill="#E99E05"/>
<path d="M31.5423 0.195312H4.24162C2.46427 0.195312 1.02344 1.63614 1.02344 3.41349V8.54965C1.02344 10.327 2.46427 11.7678 4.24162 11.7678H31.5423C33.3196 11.7678 34.7604 10.327 34.7604 8.54965V3.41349C34.7604 1.63614 33.3196 0.195312 31.5423 0.195312Z" fill="#E99E05"/>
<path d="M31.5188 0.171875H4.21818C2.44083 0.171875 1 1.6127 1 3.39006V8.52621C1 10.3036 2.44083 11.7444 4.21818 11.7444H31.5188C33.2962 11.7444 34.737 10.3036 34.737 8.52621V3.39006C34.737 1.6127 33.2962 0.171875 31.5188 0.171875Z" fill="#E99E05"/>
<path d="M31.4993 0.148438H4.19865C2.4213 0.148438 0.980469 1.58927 0.980469 3.36662V8.50277C0.980469 10.2801 2.4213 11.721 4.19865 11.721H31.4993C33.2766 11.721 34.7175 10.2801 34.7175 8.50277V3.36662C34.7175 1.58927 33.2766 0.148438 31.4993 0.148438Z" fill="#E99E05"/>
<path d="M31.4798 0.125H4.17912C2.40177 0.125 0.960938 1.56583 0.960938 3.34318V8.47933C0.960938 10.2567 2.40177 11.6975 4.17912 11.6975H31.4798C33.2571 11.6975 34.6979 10.2567 34.6979 8.47933V3.34318C34.6979 1.56583 33.2571 0.125 31.4798 0.125Z" fill="#E99E05"/>
<path d="M31.4602 0.101562H4.15959C2.38224 0.101562 0.941406 1.54239 0.941406 3.31974V8.4559C0.941406 10.2332 2.38224 11.6741 4.15959 11.6741H31.4602C33.2376 11.6741 34.6784 10.2332 34.6784 8.4559V3.31974C34.6784 1.54239 33.2376 0.101562 31.4602 0.101562Z" fill="#E99E05"/>
<path d="M31.4407 0.0703125H4.14006C2.3627 0.0703125 0.921875 1.51114 0.921875 3.28849V8.42465C0.921875 10.202 2.3627 11.6428 4.14006 11.6428H31.4407C33.218 11.6428 34.6589 10.202 34.6589 8.42465V3.28849C34.6589 1.51114 33.218 0.0703125 31.4407 0.0703125Z" fill="#E99E05"/>
<path d="M31.4173 0.046875H4.11662C2.33927 0.046875 0.898438 1.4877 0.898438 3.26506V8.40121C0.898438 10.1786 2.33927 11.6194 4.11662 11.6194H31.4173C33.1946 11.6194 34.6354 10.1786 34.6354 8.40121V3.26506C34.6354 1.4877 33.1946 0.046875 31.4173 0.046875Z" fill="#E99E05"/>
<path d="M31.3977 0.0234375H4.09709C2.31974 0.0234375 0.878906 1.46427 0.878906 3.24162V8.37777C0.878906 10.1551 2.31974 11.596 4.09709 11.596H31.3977C33.1751 11.596 34.6159 10.1551 34.6159 8.37777V3.24162C34.6159 1.46427 33.1751 0.0234375 31.3977 0.0234375Z" fill="#E99E05"/>
<path d="M31.3782 0H4.07756C2.3002 0 0.859375 1.44083 0.859375 3.21818V8.35433C0.859375 10.1317 2.3002 11.5725 4.07756 11.5725H31.3782C33.1555 11.5725 34.5964 10.1317 34.5964 8.35433V3.21818C34.5964 1.44083 33.1555 0 31.3782 0Z" fill="#E99E05"/>
<path d="M42.3821 12.4297H15.0815C13.3041 12.4297 11.8633 13.8705 11.8633 15.6479V20.784C11.8633 22.5614 13.3041 24.0022 15.0815 24.0022H42.3821C44.1595 24.0022 45.6003 22.5614 45.6003 20.784V15.6479C45.6003 13.8705 44.1595 12.4297 42.3821 12.4297Z" fill="#333333"/>
<path d="M42.3469 12.3828H15.0463C13.269 12.3828 11.8281 13.8236 11.8281 15.601V20.7371C11.8281 22.5145 13.269 23.9553 15.0463 23.9553H42.3469C44.1243 23.9553 45.5651 22.5145 45.5651 20.7371V15.601C45.5651 13.8236 44.1243 12.3828 42.3469 12.3828Z" fill="#303030"/>
<path d="M42.3118 12.3438H15.0112C13.2338 12.3438 11.793 13.7846 11.793 15.5619V20.6981C11.793 22.4754 13.2338 23.9163 15.0112 23.9163H42.3118C44.0891 23.9163 45.53 22.4754 45.53 20.6981V15.5619C45.53 13.7846 44.0891 12.3438 42.3118 12.3438Z" fill="#2E2E2E"/>
<path d="M42.2766 12.2969H14.976C13.1986 12.2969 11.7578 13.7377 11.7578 15.5151V20.6512C11.7578 22.4286 13.1986 23.8694 14.976 23.8694H42.2766C44.054 23.8694 45.4948 22.4286 45.4948 20.6512V15.5151C45.4948 13.7377 44.054 12.2969 42.2766 12.2969Z" fill="#2B2B2B"/>
<path d="M42.2415 12.2578H14.9408C13.1635 12.2578 11.7227 13.6986 11.7227 15.476V20.6121C11.7227 22.3895 13.1635 23.8303 14.9408 23.8303H42.2415C44.0188 23.8303 45.4597 22.3895 45.4597 20.6121V15.476C45.4597 13.6986 44.0188 12.2578 42.2415 12.2578Z" fill="#292929"/>
<path d="M42.2063 12.2109H14.9057C13.1283 12.2109 11.6875 13.6518 11.6875 15.4291V20.5653C11.6875 22.3426 13.1283 23.7835 14.9057 23.7835H42.2063C43.9837 23.7835 45.4245 22.3426 45.4245 20.5653V15.4291C45.4245 13.6518 43.9837 12.2109 42.2063 12.2109Z" fill="#262626"/>
<path d="M42.1712 12.1719H14.8705C13.0932 12.1719 11.6523 13.6127 11.6523 15.3901V20.5262C11.6523 22.3036 13.0932 23.7444 14.8705 23.7444H42.1712C43.9485 23.7444 45.3893 22.3036 45.3893 20.5262V15.3901C45.3893 13.6127 43.9485 12.1719 42.1712 12.1719Z" fill="#242424"/>
<path d="M42.136 12.125H14.8354C13.058 12.125 11.6172 13.5658 11.6172 15.3432V20.4793C11.6172 22.2567 13.058 23.6975 14.8354 23.6975H42.136C43.9134 23.6975 45.3542 22.2567 45.3542 20.4793V15.3432C45.3542 13.5658 43.9134 12.125 42.136 12.125Z" fill="#212121"/>
<path d="M42.1008 12.0859H14.8002C13.0229 12.0859 11.582 13.5268 11.582 15.3041V20.4403C11.582 22.2176 13.0229 23.6585 14.8002 23.6585H42.1008C43.8782 23.6585 45.319 22.2176 45.319 20.4403V15.3041C45.319 13.5268 43.8782 12.0859 42.1008 12.0859Z" fill="#1F1F1F"/>
<path d="M42.0657 12.0391H14.7651C12.9877 12.0391 11.5469 13.4799 11.5469 15.2572V20.3934C11.5469 22.1707 12.9877 23.6116 14.7651 23.6116H42.0657C43.843 23.6116 45.2839 22.1707 45.2839 20.3934V15.2572C45.2839 13.4799 43.843 12.0391 42.0657 12.0391Z" fill="#1C1C1C"/>
<path d="M42.0266 12H14.726C12.9486 12 11.5078 13.4408 11.5078 15.2182V20.3543C11.5078 22.1317 12.9486 23.5725 14.726 23.5725H42.0266C43.804 23.5725 45.2448 22.1317 45.2448 20.3543V15.2182C45.2448 13.4408 43.804 12 42.0266 12Z" fill="#1A1A1A"/>
<path d="M41.9915 11.9531H14.6908C12.9135 11.9531 11.4727 13.394 11.4727 15.1713V20.3075C11.4727 22.0848 12.9135 23.5256 14.6908 23.5256H41.9915C43.7688 23.5256 45.2097 22.0848 45.2097 20.3075V15.1713C45.2097 13.394 43.7688 11.9531 41.9915 11.9531Z" fill="#171717"/>
<path d="M41.9563 11.9141H14.6557C12.8783 11.9141 11.4375 13.3549 11.4375 15.1322V20.2684C11.4375 22.0457 12.8783 23.4866 14.6557 23.4866H41.9563C43.7337 23.4866 45.1745 22.0457 45.1745 20.2684V15.1322C45.1745 13.3549 43.7337 11.9141 41.9563 11.9141Z" fill="#141414"/>
<path d="M41.9212 11.875H14.6205C12.8432 11.875 11.4023 13.3158 11.4023 15.0932V20.2293C11.4023 22.0067 12.8432 23.4475 14.6205 23.4475H41.9212C43.6985 23.4475 45.1393 22.0067 45.1393 20.2293V15.0932C45.1393 13.3158 43.6985 11.875 41.9212 11.875Z" fill="#121212"/>
<path d="M41.886 11.8281H14.5854C12.808 11.8281 11.3672 13.269 11.3672 15.0463V20.1825C11.3672 21.9598 12.808 23.4006 14.5854 23.4006H41.886C43.6634 23.4006 45.1042 21.9598 45.1042 20.1825V15.0463C45.1042 13.269 43.6634 11.8281 41.886 11.8281Z" fill="#0F0F0F"/>
<path d="M41.8509 11.7891H14.5502C12.7729 11.7891 11.332 13.2299 11.332 15.0072V20.1434C11.332 21.9207 12.7729 23.3616 14.5502 23.3616H41.8509C43.6282 23.3616 45.069 21.9207 45.069 20.1434V15.0072C45.069 13.2299 43.6282 11.7891 41.8509 11.7891Z" fill="#0D0D0D"/>
<path d="M41.8157 11.7422H14.5151C12.7377 11.7422 11.2969 13.183 11.2969 14.9604V20.0965C11.2969 21.8739 12.7377 23.3147 14.5151 23.3147H41.8157C43.593 23.3147 45.0339 21.8739 45.0339 20.0965V14.9604C45.0339 13.183 43.593 11.7422 41.8157 11.7422Z" fill="#0A0A0A"/>
<path d="M41.7805 11.7031H14.4799C12.7025 11.7031 11.2617 13.144 11.2617 14.9213V20.0575C11.2617 21.8348 12.7025 23.2756 14.4799 23.2756H41.7805C43.5579 23.2756 44.9987 21.8348 44.9987 20.0575V14.9213C44.9987 13.144 43.5579 11.7031 41.7805 11.7031Z" fill="#080808"/>
<path d="M41.7415 11.6562H14.4408C12.6635 11.6562 11.2227 13.0971 11.2227 14.8744V20.0106C11.2227 21.7879 12.6635 23.2288 14.4408 23.2288H41.7415C43.5188 23.2288 44.9597 21.7879 44.9597 20.0106V14.8744C44.9597 13.0971 43.5188 11.6562 41.7415 11.6562Z" fill="#050505"/>
<path d="M41.7063 11.6172H14.4057C12.6283 11.6172 11.1875 13.058 11.1875 14.8354V19.9715C11.1875 21.7489 12.6283 23.1897 14.4057 23.1897H41.7063C43.4837 23.1897 44.9245 21.7489 44.9245 19.9715V14.8354C44.9245 13.058 43.4837 11.6172 41.7063 11.6172Z" fill="#030303"/>
<path d="M41.6712 11.5703H14.3705C12.5932 11.5703 11.1523 13.0111 11.1523 14.7885V19.9246C11.1523 21.702 12.5932 23.1428 14.3705 23.1428H41.6712C43.4485 23.1428 44.8893 21.702 44.8893 19.9246V14.7885C44.8893 13.0111 43.4485 11.5703 41.6712 11.5703Z" fill="black"/>
<path d="M41.6712 11.5703H14.3705C12.5932 11.5703 11.1523 13.0111 11.1523 14.7885V19.9246C11.1523 21.702 12.5932 23.1428 14.3705 23.1428H41.6712C43.4485 23.1428 44.8893 21.702 44.8893 19.9246V14.7885C44.8893 13.0111 43.4485 11.5703 41.6712 11.5703Z" fill="#231F20"/>
<path d="M31.3782 0H4.07756C2.3002 0 0.859375 1.44083 0.859375 3.21818V8.35433C0.859375 10.1317 2.3002 11.5725 4.07756 11.5725H31.3782C33.1555 11.5725 34.5964 10.1317 34.5964 8.35433V3.21818C34.5964 1.44083 33.1555 0 31.3782 0Z" fill="#FFCB0A"/>
<path d="M13.043 20.8116V13.5H14.4776L17.47 18.3825V13.5H18.8413V20.8116H17.3609L14.4142 16.0433V20.8116H13.043Z" fill="#FFCB0A"/>
<path d="M20.4062 20.8116V13.5H25.8265V14.7368H21.8815V16.3579H25.5525V17.5896H21.8815V19.5799H25.9661V20.8116H20.4062Z" fill="#FFCB0A"/>
<path d="M37.0586 18.4325L38.4945 18.2929C38.5791 18.7749 38.7546 19.1293 39.021 19.3559C39.3245 19.5948 39.7046 19.7152 40.0903 19.6946C40.5664 19.6946 40.925 19.594 41.166 19.3927C41.2763 19.3107 41.3662 19.2045 41.4289 19.0822C41.4916 18.9599 41.5253 18.8248 41.5275 18.6874C41.5316 18.5267 41.4775 18.37 41.3753 18.246C41.2284 18.0963 41.0453 17.987 40.8438 17.9289C40.6747 17.8697 40.2806 17.7635 39.6616 17.6105C38.87 17.4143 38.3148 17.1733 37.996 16.8874C37.6399 16.5836 37.4071 16.16 37.3415 15.6965C37.2758 15.233 37.3818 14.7615 37.6396 14.3707C37.8624 14.0374 38.1808 13.7792 38.5529 13.6299C39.0105 13.4498 39.4997 13.3636 39.9914 13.3762C40.9081 13.3762 41.5986 13.5775 42.0628 13.98C42.293 14.1802 42.4774 14.4275 42.6035 14.7053C42.7296 14.983 42.7944 15.2847 42.7935 15.5897L41.3182 15.6557C41.2548 15.2794 41.1191 15.0092 40.911 14.8451C40.703 14.6802 40.3922 14.5914 39.9761 14.5914C39.5601 14.5914 39.215 14.6802 38.969 14.8566C38.8951 14.9064 38.8349 14.974 38.7939 15.0531C38.7529 15.1322 38.7324 15.2203 38.7343 15.3094C38.7345 15.3953 38.7544 15.4799 38.7925 15.5569C38.8305 15.6338 38.8857 15.7011 38.9537 15.7534C39.1398 15.9098 39.5918 16.0726 40.3098 16.2418C40.8597 16.354 41.3945 16.5307 41.903 16.7682C42.2351 16.9376 42.5145 17.1947 42.711 17.5115C42.9139 17.8727 43.0156 18.2819 43.0053 18.6961C42.995 19.1102 42.8732 19.5139 42.6527 19.8646C42.4167 20.2326 42.0716 20.5177 41.6658 20.6802C41.1581 20.8722 40.6176 20.9627 40.0751 20.9466C39.1508 20.9466 38.4408 20.7331 37.9453 20.306C37.4497 19.879 37.1542 19.2544 37.0586 18.4325Z" fill="#FFCB0A"/>
<path fill-rule="evenodd" clip-rule="evenodd" d="M32.6305 16.3812C32.6686 16.3432 32.6698 16.3178 32.6305 16.2798C32.3083 15.9584 31.987 15.6371 31.6665 15.3157C31.6322 15.2815 31.6068 15.2789 31.5713 15.3157L30.6022 16.2861C30.5895 16.2988 30.573 16.3115 30.5743 16.333C30.5756 16.3546 30.5959 16.3698 30.6123 16.3851C30.9295 16.7034 31.2466 17.0193 31.5637 17.3402C31.6043 17.3796 31.6309 17.3821 31.6715 17.3402C31.9899 17.018 32.3109 16.6996 32.6305 16.3812Z" fill="#FFCB0A"/>
<path fill-rule="evenodd" clip-rule="evenodd" d="M29.8994 19.1101L30.8025 18.2082C30.8748 18.1347 30.8748 18.1347 30.8025 18.0598L29.1535 16.4108C29.0748 16.3309 29.0748 16.3309 29.1535 16.2522C29.7057 15.7008 30.2583 15.1512 30.8114 14.6032C30.8634 14.5512 30.8634 14.5207 30.8114 14.4687C30.5095 14.1681 30.2114 13.8649 29.9108 13.563C29.8372 13.4894 29.8372 13.4894 29.7649 13.563L27.063 16.2649C26.9894 16.3372 26.9894 16.3385 27.063 16.412L29.0431 18.3922L29.7712 19.119C29.7863 19.1413 29.8081 19.1581 29.8334 19.1672C29.8626 19.1571 29.8791 19.1304 29.8994 19.1101Z" fill="#FFCB0A"/>
<path fill-rule="evenodd" clip-rule="evenodd" d="M32.4452 14.4524C32.3679 14.5298 32.3679 14.5298 32.4452 14.6059L34.1006 16.2613C34.1691 16.3298 34.1704 16.3311 34.1006 16.3983L33.4397 17.0592C33.1015 17.3975 32.7632 17.7357 32.4249 18.074C32.3882 18.1108 32.359 18.1412 32.411 18.192C32.7268 18.5053 33.0452 18.8199 33.3547 19.1345C33.3663 19.1505 33.3835 19.1614 33.4029 19.1649C33.4309 19.1649 33.4473 19.137 33.4651 19.1192C34.3708 18.2135 35.2769 17.3083 36.1835 16.4034C36.2342 16.3526 36.2393 16.3222 36.1835 16.2689C35.2769 15.3641 34.3717 14.4584 33.4676 13.5518C33.4169 13.5011 33.3877 13.5061 33.3408 13.5518C33.0478 13.8524 32.7459 14.1569 32.4452 14.4524Z" fill="#FFCB0A"/>
<path fill-rule="evenodd" clip-rule="evenodd" d="M31.6693 20.9149L32.6169 19.9673C32.6486 19.9356 32.655 19.9115 32.6169 19.8773L31.6643 18.9246C31.6287 18.8878 31.6021 18.8916 31.5679 18.9246C31.2533 19.2417 30.9378 19.558 30.6216 19.8735C30.6127 19.8792 30.6053 19.8869 30.5998 19.8959C30.5944 19.9049 30.5909 19.915 30.5898 19.9255C30.5983 19.938 30.6076 19.9498 30.6178 19.961L31.5704 20.9149C31.6034 20.9529 31.6351 20.9491 31.6693 20.9149Z" fill="#FFCB0A"/>
<path d="M6.53516 1.59563H9.69499C10.1614 1.58617 10.6279 1.61246 11.0903 1.67428C11.3856 1.72177 11.667 1.83302 11.9149 2.00028C12.1642 2.17246 12.3718 2.39828 12.5225 2.66117C12.6852 2.94189 12.7689 3.26144 12.7648 3.5859C12.7651 3.94859 12.6604 4.3036 12.4631 4.60798C12.2659 4.91236 11.9847 5.15305 11.6535 5.30091C12.0921 5.41244 12.4823 5.66409 12.7648 6.01762C13.0249 6.35946 13.1617 6.77926 13.1529 7.20874C13.151 7.57339 13.0642 7.93258 12.8992 8.25779C12.7449 8.58372 12.5089 8.86425 12.2142 9.07216C11.8956 9.2861 11.5274 9.41493 11.1449 9.44637C10.8785 9.47597 10.2366 9.49415 9.2193 9.50091H6.53516V1.59563ZM8.13473 2.90726V4.73516H9.18125C9.80281 4.73516 10.1893 4.72586 10.3407 4.70726C10.5815 4.68957 10.809 4.58971 10.9851 4.42438C11.0642 4.34281 11.1258 4.24594 11.1661 4.13971C11.2065 4.03349 11.2247 3.92014 11.2197 3.80662C11.2294 3.58983 11.1569 3.37736 11.0168 3.2117C10.8591 3.04729 10.6454 2.94813 10.418 2.9339C10.2607 2.91614 9.80535 2.90726 9.0544 2.90726H8.13473ZM8.13473 6.0506V8.16392H9.60873C9.97433 8.17515 10.3403 8.15904 10.7034 8.11571C10.9271 8.0799 11.1318 7.9684 11.2831 7.79986C11.439 7.61204 11.5187 7.37257 11.5064 7.12882C11.5133 6.91448 11.453 6.70335 11.3339 6.52502C11.2116 6.35331 11.0366 6.22634 10.8354 6.16349C10.618 6.08738 10.1461 6.04975 9.41972 6.0506H8.13473Z" fill="#231F20"/>
<path d="M14.0977 6.92948L15.6503 6.77852C15.7442 7.29945 15.9336 7.68254 16.2186 7.92778C16.5036 8.17303 16.8892 8.29522 17.3755 8.29438C17.8829 8.29438 18.2774 8.18529 18.5374 7.96838C18.6564 7.87987 18.7535 7.76522 18.8213 7.63327C18.889 7.50132 18.9256 7.35558 18.9281 7.20728C18.9328 7.03377 18.8747 6.86441 18.7645 6.73032C18.6051 6.56922 18.4073 6.45135 18.1898 6.38783C18.0029 6.32271 17.5771 6.2077 16.9125 6.04279C16.0566 5.83053 15.4562 5.57007 15.1112 5.2614C14.8803 5.0661 14.6954 4.8223 14.5695 4.54735C14.4437 4.2724 14.38 3.97307 14.3831 3.6707C14.3827 3.26834 14.5019 2.87493 14.7256 2.54047C14.9663 2.18022 15.3103 1.9012 15.7125 1.74005C16.2071 1.54303 16.7366 1.44852 17.2689 1.46224C18.2609 1.46224 19.0076 1.68 19.5091 2.11552C20.0106 2.55104 20.274 3.13117 20.2993 3.8559L18.7036 3.92694C18.6351 3.52102 18.4892 3.22799 18.2634 3.05041C18.0376 2.87282 17.7027 2.78402 17.2486 2.78402C16.7945 2.78402 16.4228 2.87916 16.1602 3.06943C16.0802 3.12343 16.015 3.19669 15.9707 3.28247C15.9263 3.36825 15.9043 3.46381 15.9065 3.56034C15.9068 3.65308 15.9283 3.74454 15.9694 3.82766C16.0105 3.91079 16.0702 3.98337 16.1437 4.03983C16.345 4.20897 16.8338 4.38529 17.6101 4.5688C18.3865 4.75231 18.9607 4.94174 19.3328 5.13709C19.6916 5.32045 19.9937 5.59803 20.2067 5.94005C20.4252 6.32953 20.5347 6.77065 20.5237 7.21707C20.5128 7.66349 20.3818 8.09872 20.1446 8.47704C19.8906 8.87778 19.5169 9.18844 19.0765 9.36499C18.5277 9.57317 17.9432 9.67102 17.3564 9.65294C16.3577 9.65294 15.5903 9.42207 15.0541 8.96034C14.518 8.49861 14.1991 7.82165 14.0977 6.92948Z" fill="#231F20"/>
<path d="M26.929 6.59602L28.4765 7.08693C28.2389 7.94951 27.8444 8.5901 27.293 9.00871C26.7416 9.42731 26.0414 9.63873 25.1924 9.64296C24.1438 9.64296 23.2812 9.2844 22.6046 8.56727C21.9281 7.85015 21.5898 6.8696 21.5898 5.62562C21.5898 4.31061 21.9281 3.28905 22.6046 2.56093C23.2812 1.83281 24.1746 1.46875 25.285 1.46875C26.2516 1.46875 27.0368 1.75459 27.6406 2.32626C28.0008 2.66452 28.2706 3.14993 28.4499 3.78249L26.8706 4.16304C26.7972 3.77929 26.5887 3.43456 26.2829 3.19136C25.9771 2.94817 25.5942 2.82261 25.2038 2.83746C24.9337 2.82905 24.6652 2.88171 24.4184 2.99153C24.1715 3.10135 23.9526 3.26549 23.778 3.47171C23.4127 3.89454 23.23 4.57573 23.23 5.51526C23.23 6.51484 23.4097 7.22647 23.7691 7.65015C23.9392 7.85581 24.154 8.01987 24.3971 8.1298C24.6403 8.23972 24.9054 8.2926 25.1721 8.28439C25.5795 8.29147 25.9743 8.14264 26.2757 7.86833C26.5784 7.59856 26.7962 7.17446 26.929 6.59602Z" fill="#231F20"/>
</g>
<defs>
<clipPath id="clip0_1160_31030">
<rect width="44.7425" height="24" fill="white" transform="translate(0.859375)"/>
</clipPath>
</defs>
</svg>
