<svg width="203" height="49" viewBox="0 0 203 49" fill="none" xmlns="http://www.w3.org/2000/svg">
<g clip-path="url(#clip0_1354_12002)">
<path fill-rule="evenodd" clip-rule="evenodd" d="M42.2491 7.47234L42.5017 8.99933C42.7007 10.4198 42.7929 11.8533 42.7775 13.2876C42.7759 16.4573 42.3935 19.6152 41.6386 22.6937C40.6178 26.8761 38.8396 30.8361 36.3923 34.3778C33.5643 38.4453 29.4752 42.446 23.5148 45.6605L22.7855 46.0535L22.0564 45.6605C16.096 42.446 12.0086 38.4453 9.1789 34.3778C6.73158 30.8361 4.95348 26.8761 3.93256 22.6937C3.17784 19.6158 2.79546 16.4584 2.79365 13.2893C2.77824 11.855 2.87048 10.4215 3.0696 9.001L3.32213 7.47401C3.34368 7.34948 3.34038 7.22191 3.31242 7.09866C3.28446 6.97542 3.23238 6.85892 3.15918 6.75589C3.08599 6.65286 2.99314 6.56533 2.88596 6.49836C2.77879 6.43138 2.65943 6.38627 2.53475 6.36564C2.41007 6.345 2.28254 6.34925 2.15951 6.37813C2.03647 6.407 1.92038 6.45996 1.8179 6.53391C1.71542 6.60787 1.62859 6.70137 1.56241 6.80904C1.49623 6.91671 1.45202 7.03641 1.43231 7.16125L1.17978 8.68824C0.962562 10.212 0.861369 11.7501 0.87707 13.2893C0.878274 16.6145 1.27918 19.9275 2.07116 23.157C3.14924 27.5673 5.026 31.7427 7.6085 35.4766C10.5938 39.7733 14.9236 43.998 21.155 47.3513L22.339 47.9885C22.4786 48.064 22.6346 48.1035 22.7931 48.1035C22.9516 48.1035 23.1077 48.064 23.2472 47.9885L24.4295 47.3513C30.6543 43.9964 34.9858 39.7733 37.9761 35.4766C40.5573 31.7429 42.4329 27.5681 43.51 23.1587C44.302 19.9292 44.7029 16.6162 44.7041 13.291C44.7199 11.7518 44.6186 10.2137 44.4015 8.68992L44.1489 7.16293C44.1292 7.03808 44.0849 6.91838 44.0188 6.81072C43.9527 6.70304 43.8658 6.60954 43.7633 6.53558C43.6609 6.46163 43.5447 6.40868 43.4217 6.3798C43.2987 6.35091 43.1711 6.34668 43.0465 6.36731C42.9218 6.38795 42.8024 6.43304 42.6952 6.50003C42.5881 6.567 42.4952 6.65453 42.4221 6.75756C42.3489 6.86059 42.2968 6.97709 42.2689 7.10034C42.2409 7.22359 42.2375 7.35115 42.2591 7.47569L42.2491 7.47234Z" fill="white"/>
<path fill-rule="evenodd" clip-rule="evenodd" d="M8.55532 6.43202L22.7879 2.08356L37.3383 6.52568C37.5819 6.59851 37.8445 6.57187 38.0685 6.45159C38.2924 6.33132 38.4597 6.12721 38.5335 5.88392C38.6074 5.64064 38.5819 5.378 38.4626 5.15348C38.3433 4.92896 38.1399 4.76086 37.8969 4.68595L23.0672 0.158533C22.8853 0.102755 22.6906 0.102755 22.5086 0.158533L7.99505 4.58894C7.87375 4.62521 7.76083 4.68506 7.66273 4.76508C7.56464 4.84511 7.48333 4.94371 7.42344 5.05524C7.36356 5.16677 7.3263 5.28904 7.31378 5.415C7.30128 5.54098 7.31377 5.66817 7.35055 5.7893C7.38733 5.91044 7.44767 6.02311 7.5281 6.12086C7.60854 6.21861 7.70749 6.29951 7.81928 6.35892C7.93106 6.41832 8.05349 6.45506 8.1795 6.46704C8.30552 6.479 8.43268 6.46597 8.55365 6.42868L8.55532 6.43202Z" fill="white"/>
<path fill-rule="evenodd" clip-rule="evenodd" d="M1.52748 7.75331L21.9322 47.5788C22.0118 47.7345 22.1325 47.8654 22.2812 47.9572C22.4298 48.0491 22.6008 48.0986 22.7757 48.1001C22.9504 48.1017 23.1222 48.0554 23.2726 47.9661C23.4228 47.8768 23.5458 47.748 23.6282 47.5938L36.0717 24.321L36.09 24.2843L44.0547 7.72655C44.1625 7.49805 44.176 7.23617 44.0919 6.99785C44.0079 6.75953 43.8331 6.56401 43.6056 6.45383C43.3782 6.34365 43.1165 6.32767 42.8773 6.40941C42.6382 6.49114 42.441 6.66396 42.3286 6.89029L34.3774 23.4346L22.8136 45.0767L3.23177 6.87691C3.17533 6.7635 3.09696 6.6624 3.00117 6.57949C2.90538 6.49659 2.79409 6.4335 2.67375 6.39391C2.55341 6.35431 2.42641 6.339 2.3001 6.34884C2.1738 6.35869 2.05071 6.39351 1.93795 6.45126C1.8252 6.50902 1.72503 6.58858 1.64324 6.68533C1.56146 6.78208 1.49969 6.8941 1.46151 7.01489C1.42333 7.13569 1.4095 7.26286 1.42082 7.38904C1.43215 7.51522 1.4684 7.63789 1.52748 7.74996V7.75331Z" fill="white"/>
<path fill-rule="evenodd" clip-rule="evenodd" d="M11.2949 25.4892H33.9854C34.2393 25.4892 34.4828 25.3884 34.6624 25.2088C34.842 25.0292 34.9429 24.7858 34.9429 24.5317C34.9429 24.2778 34.842 24.0343 34.6624 23.8547C34.4828 23.6752 34.2393 23.5742 33.9854 23.5742H11.2949C11.041 23.5742 10.7974 23.6752 10.6178 23.8547C10.4383 24.0343 10.3374 24.2778 10.3374 24.5317C10.3374 24.7858 10.4383 25.0292 10.6178 25.2088C10.7974 25.3884 11.041 25.4892 11.2949 25.4892ZM74.5846 17.2272H59.8234C59.5683 17.2285 59.324 17.3305 59.1436 17.5109C58.9633 17.6912 58.8614 17.9354 58.8601 18.1906V30.0384C58.8618 30.2933 58.9639 30.5374 59.1441 30.7176C59.3244 30.898 59.5684 31 59.8234 31.0018H74.5846V33.0087H59.8234C59.4339 33.0105 59.048 32.9351 58.6878 32.7869C58.3276 32.6386 58.0004 32.4205 57.725 32.1451C57.4496 31.8697 57.2316 31.5425 57.0832 31.1824C56.935 30.8221 56.8597 30.4362 56.8615 30.0468V18.199C56.8597 17.8094 56.935 17.4235 57.0832 17.0634C57.2316 16.7032 57.4496 16.3759 57.725 16.1005C58.0004 15.8251 58.3276 15.6071 58.6878 15.4589C59.048 15.3106 59.4339 15.2352 59.8234 15.237H74.5846V17.2272ZM102.303 15.2269V17.2339H88.0866V23.0993H99.5128V25.123H88.0849V30.9984H102.301V33.0054H86.0779V15.2269H102.303Z" fill="white"/>
<path d="M131.576 18.2139V23.4221C131.578 23.8115 131.503 24.1973 131.354 24.5574C131.205 24.9174 130.988 25.2446 130.712 25.5199C130.437 25.7953 130.11 26.0133 129.75 26.1617C129.39 26.31 129.003 26.3856 128.614 26.384H125.9L131.478 32.9987H128.836L123.283 26.384H116.76C116.437 26.3676 116.116 26.3347 115.797 26.2854V32.9987H113.79V15.252H128.599C128.989 15.2504 129.374 15.326 129.734 15.4743C130.095 15.6227 130.422 15.8407 130.698 16.1161C130.972 16.3915 131.191 16.7186 131.338 17.0786C131.487 17.4387 131.563 17.8245 131.562 18.2139H131.576ZM116.767 24.3603H128.614C128.738 24.3619 128.86 24.3387 128.976 24.2921C129.09 24.2455 129.194 24.1765 129.282 24.089C129.369 24.0015 129.438 23.8975 129.484 23.783C129.531 23.6684 129.554 23.5457 129.553 23.4221V18.2139C129.554 18.0885 129.531 17.9639 129.486 17.8473C129.439 17.7308 129.369 17.6246 129.282 17.535C129.196 17.4432 129.093 17.3703 128.978 17.3214C128.863 17.2723 128.738 17.2483 128.613 17.2506H116.765C116.51 17.2519 116.266 17.3539 116.085 17.5343C115.905 17.7146 115.803 17.9589 115.802 18.2139V23.4221C115.799 23.5473 115.823 23.6717 115.872 23.787C115.921 23.9023 115.994 24.006 116.086 24.0911C116.176 24.1789 116.282 24.248 116.399 24.2942C116.516 24.3405 116.641 24.363 116.767 24.3603Z" fill="white"/>
<path fill-rule="evenodd" clip-rule="evenodd" d="M142.191 15.2269H159.956V17.2339H152.096V33.007H150.089V17.2339H142.191V15.2269ZM170.724 32.9987V15.2269H172.731V32.9987H170.724ZM199.405 15.2269H201.973L194.544 24.1128L201.997 32.9987H199.405L192.791 25.1246H187.064V32.9987H185.043V15.2269H187.068V23.0993H192.794L199.405 15.2269Z" fill="white"/>
</g>
<defs>
<clipPath id="clip0_1354_12002">
<rect width="201.6" height="48" fill="white" transform="translate(0.736572 0.103394)"/>
</clipPath>
</defs>
</svg>
