<svg width="200" height="29" viewBox="0 0 200 29" fill="none" xmlns="http://www.w3.org/2000/svg">
<g clip-path="url(#clip0_962_18400)">
<path d="M199.489 20.9507C199.017 23.2403 198.595 25.5495 198.182 27.8489C198.113 28.2223 198.015 28.3697 197.602 28.3599C196.335 28.3304 195.067 28.3206 193.799 28.3599C193.269 28.3796 193.279 28.1437 193.347 27.7605C193.858 25.0484 194.369 22.3362 194.87 19.6241C194.988 19.0149 195.047 18.3958 194.929 17.7767C194.762 16.912 194.173 16.3813 193.288 16.2831C191.746 16.1258 190.537 16.8432 189.996 18.2975C189.554 19.4865 189.446 20.7542 189.201 21.9825C188.817 23.9281 188.464 25.8934 188.1 27.8489C188.031 28.2027 187.913 28.3697 187.501 28.3599C186.282 28.3304 185.054 28.3206 183.835 28.3599C183.314 28.3796 183.216 28.2518 183.314 27.7408C184.11 23.594 184.877 19.4472 185.653 15.3004C186.194 12.3918 186.754 9.48309 187.284 6.57443C187.353 6.19119 187.481 6.06345 187.874 6.07328C189.053 6.10275 190.232 6.0831 191.412 6.0831C192.237 6.0831 192.227 6.0831 192.08 6.86923C191.647 9.16864 191.225 11.4681 190.802 13.7675C190.93 13.8657 190.969 13.7478 191.009 13.6987C192.62 11.4779 196.001 11.3305 198.153 12.4605C199.076 12.942 199.558 13.7282 199.921 14.6126C200.226 15.5264 199.587 20.4397 199.489 20.9507Z" fill="#2EB34B"/>
<path d="M122.802 15.9293C121.309 18.1697 119.805 20.4004 118.312 22.6408C117.123 24.4293 115.924 26.2079 114.745 27.9963C114.558 28.2813 114.361 28.4188 113.998 28.409C112.907 28.3795 111.816 28.3894 110.735 28.409C110.372 28.4188 110.244 28.3206 110.244 27.9373C110.254 20.8131 110.254 13.6888 110.244 6.56457C110.244 6.18134 110.362 6.08307 110.735 6.08307C112.003 6.10273 113.271 6.12238 114.538 6.07325C115.089 6.05359 115.138 6.28943 115.138 6.73163C115.128 10.4264 115.128 14.1212 115.138 17.816C115.138 18.042 115.069 18.2877 115.256 18.5923C115.708 17.9143 116.13 17.2854 116.553 16.6565C118.803 13.2859 121.053 9.92526 123.294 6.55475C123.53 6.19116 123.785 6.06342 124.208 6.07325C125.161 6.10273 126.124 6.12238 127.077 6.07325C127.647 6.04377 127.834 6.18134 127.824 6.79059C127.794 10.4854 127.804 14.1802 127.804 17.8749C127.804 18.1108 127.804 18.3564 127.804 18.5923C127.853 18.6119 127.893 18.6316 127.942 18.6512C130.703 14.5143 133.464 10.3871 136.304 6.14203C135.41 6.14203 134.643 6.14203 133.887 6.14203C133.877 6.10273 133.857 6.05359 133.848 6.01429C136.894 4.15707 139.94 2.29985 143.045 0.40332C143.517 2.25071 143.969 4.02932 144.431 5.7981C144.509 6.08307 144.391 6.15186 144.136 6.14203C143.939 6.13221 143.733 6.17151 143.537 6.13221C142.465 5.91602 141.895 6.43683 141.316 7.30157C136.737 14.19 132.089 21.0489 127.48 27.9177C127.244 28.2714 126.998 28.409 126.566 28.3992C125.564 28.3697 124.561 28.3599 123.569 28.3992C123.048 28.4188 122.95 28.2518 122.95 27.7703C122.97 23.9674 122.96 20.1645 122.96 16.3518C122.96 16.2241 122.96 16.0963 122.96 15.9588C122.881 15.9588 122.842 15.9391 122.802 15.9293Z" fill="#2EB34B"/>
<path d="M27.0132 15.6934C26.1681 16.961 25.4213 18.0714 24.6843 19.1818C22.7386 22.1101 20.7929 25.0286 18.8669 27.9668C18.6704 28.2714 18.464 28.4286 18.071 28.4188C17.0097 28.3893 15.9386 28.3795 14.8675 28.4188C14.4057 28.4385 14.3271 28.2616 14.3271 27.8489C14.3369 23.8888 14.3369 19.9286 14.3369 15.9587C14.0814 15.9489 14.0716 16.1749 13.993 16.2928C11.3987 20.1645 8.80454 24.0362 6.22998 27.9275C5.99414 28.2812 5.74848 28.4188 5.32594 28.4188C3.59646 28.3893 1.85716 28.409 0.00976562 28.409C0.343869 27.9078 0.628839 27.4656 0.913809 27.0431C5.52247 20.2136 10.1409 13.3842 14.7496 6.54487C14.9854 6.19112 15.2311 6.04372 15.6635 6.06337C16.6658 6.10268 17.6681 6.10268 18.6606 6.06337C19.1323 6.04372 19.2502 6.19112 19.2502 6.65297C19.2305 10.3674 19.2403 14.0818 19.2403 17.8061C19.2403 18.0321 19.1814 18.2778 19.3288 18.5726C20.0953 17.4425 20.8322 16.3616 21.5692 15.2709C23.5149 12.372 25.4704 9.48302 27.4062 6.57435C27.6519 6.20094 27.927 6.06337 28.3692 6.0732C29.3912 6.10268 30.4131 6.10268 31.4351 6.0732C31.8183 6.06337 31.9264 6.18129 31.9264 6.5547C31.9166 13.679 31.9166 20.8032 31.9264 27.9275C31.9264 28.3009 31.8282 28.4286 31.4449 28.4188C30.1577 28.3991 28.8704 28.3893 27.5733 28.4286C27.0623 28.4483 27.0132 28.2321 27.0132 27.8096C27.0328 24.046 27.023 20.2922 27.023 16.5287C27.0132 16.3125 27.0132 16.1061 27.0132 15.6934Z" fill="white"/>
<path d="M70.6431 18.0125C72.0582 16.5287 73.5321 15.094 74.8784 13.5513C75.6743 12.6472 76.4899 12.205 77.7281 12.3131C79.0154 12.431 80.3321 12.3426 81.639 12.3426C81.6489 12.6374 81.4425 12.7258 81.3049 12.8536C79.1529 14.9073 77.0107 16.9513 74.8391 18.9854C74.505 19.2998 74.4165 19.5455 74.6425 19.9877C75.9003 22.5622 77.1188 25.1466 78.3373 27.7408C78.4258 27.9374 78.5142 28.1339 78.6419 28.4189C76.8437 28.4189 75.124 28.409 73.3946 28.4189C73.0015 28.4189 73.0015 28.0946 72.9131 27.8784C71.9992 25.6576 71.105 23.4368 70.2108 21.216C70.1616 21.0981 70.1027 20.99 69.9946 20.764C69.5229 23.2304 69.0709 25.5692 68.6483 27.9177C68.5697 28.3501 68.4027 28.4385 68.0096 28.4287C66.742 28.409 65.4744 28.409 64.2067 28.4287C63.8333 28.4287 63.6761 28.409 63.7744 27.9275C64.6293 23.4073 65.4449 18.8674 66.2801 14.3374C66.7518 11.7825 67.2235 9.22758 67.6755 6.66285C67.7443 6.26979 67.8426 6.0536 68.3241 6.07325C69.6113 6.11256 70.8986 6.10273 72.1957 6.08308C72.5986 6.07325 72.7165 6.12239 72.6281 6.58424C71.9501 10.0628 71.3113 13.5611 70.6628 17.0397C70.6038 17.3443 70.5645 17.6489 70.5154 17.9437C70.5645 17.9634 70.6038 17.983 70.6431 18.0125Z" fill="white"/>
<path d="M173.606 28.9298C173.38 28.9298 173.154 28.9298 172.928 28.9396C169.272 28.694 166.727 26.65 166.177 23.3876C165.725 20.6951 166.482 18.268 168.083 16.0865C170.648 12.5981 175.031 11.0062 178.814 12.1657C181.546 13.0009 183.344 15.2807 183.521 18.1206C183.541 18.4645 183.482 18.5923 183.108 18.5923C181.752 18.5726 180.396 18.5824 179.04 18.5824C178.834 18.5824 178.676 18.5628 178.558 18.3368C177.507 16.4009 175.778 15.8015 173.802 16.6859C171.896 17.5408 170.628 19.9287 171.021 21.9431C171.306 23.4073 172.328 24.3211 173.832 24.3899C175.384 24.4685 176.662 23.8888 177.615 22.6801C177.88 22.346 178.156 22.2379 178.558 22.2477C179.973 22.2674 181.398 22.2576 182.823 22.2576C182.135 25.461 177.635 28.694 173.606 28.9298Z" fill="#2EB34B"/>
<path d="M104.289 7.66509C104.82 7.66509 105.36 7.69457 105.891 7.65526C106.323 7.62578 106.422 7.75353 106.333 8.16624C106.078 9.41422 105.871 10.6818 105.616 11.9298C105.547 12.2836 105.636 12.3524 105.96 12.3425C106.648 12.3229 107.336 12.3622 108.023 12.3327C108.456 12.3131 108.574 12.4408 108.485 12.8535C108.289 13.7576 108.112 14.6616 107.955 15.5755C107.896 15.9391 107.719 16.0275 107.375 16.0177C106.687 15.9882 105.999 16.0373 105.311 15.998C104.889 15.9685 104.741 16.1356 104.673 16.5188C104.27 18.7495 103.857 20.9801 103.434 23.2107C103.14 24.7928 102.815 26.365 102.54 27.9471C102.481 28.291 102.344 28.3697 102.029 28.3598C100.722 28.35 99.4055 28.3304 98.0986 28.3697C97.6171 28.3795 97.6269 28.2124 97.7055 27.839C98.2755 24.8517 98.8356 21.8645 99.3957 18.8772C99.5431 18.1009 99.6807 17.3148 99.8477 16.5385C99.9263 16.1651 99.8969 15.9587 99.4154 16.0078C98.9535 16.057 98.4818 15.998 98.02 16.0275C97.6761 16.0471 97.5483 15.9784 97.6368 15.5951C97.8628 14.6518 98.0593 13.7084 98.246 12.7552C98.2853 12.5489 98.3148 12.3524 98.5703 12.3425C100.958 12.1951 101.784 10.6425 101.99 8.53965C101.99 8.52 101.99 8.50035 102 8.47087C102.049 7.91075 102.196 7.52752 102.914 7.65526C103.336 7.73388 103.818 7.66509 104.289 7.66509Z" fill="white"/>
<path d="M158.758 28.35C158.109 28.35 157.471 28.3304 156.822 28.3598C156.4 28.3795 156.35 28.2124 156.419 27.8489C157.107 24.2425 157.775 20.646 158.463 17.0396C158.66 15.998 158.669 16.0078 157.618 16.0078C156.301 16.0078 156.301 16.0078 156.527 14.7206C156.557 14.5437 156.616 14.3766 156.635 14.1998C156.753 13.0992 156.93 12.1853 158.414 12.0576C159.495 11.9593 160.114 11.0061 160.379 9.94486C160.537 9.32579 160.645 8.68706 160.743 8.05816C160.792 7.76336 160.88 7.64544 161.195 7.65527C162.354 7.67492 163.504 7.67492 164.664 7.65527C165.017 7.64544 165.047 7.75354 164.988 8.07781C164.742 9.28648 164.556 10.5148 164.31 11.7235C164.212 12.1951 164.251 12.4212 164.821 12.3818C165.46 12.3327 166.108 12.3818 166.757 12.3622C167.101 12.3524 167.238 12.4212 167.16 12.8044C166.973 13.7084 166.806 14.6223 166.668 15.546C166.609 15.9096 166.452 16.0177 166.098 16.0078C165.43 15.9882 164.762 16.0373 164.104 15.9882C163.622 15.9489 163.465 16.1258 163.386 16.5778C162.767 19.9876 162.109 23.3974 161.48 26.8072C161.195 28.3402 161.215 28.35 159.642 28.35C159.338 28.35 159.043 28.35 158.758 28.35Z" fill="#2EB34B"/>
<path d="M60.1385 13.7576C60.4333 13.7772 60.5021 13.5217 60.6397 13.3743C61.6027 12.3524 62.7917 11.8611 64.1772 11.7824C64.5212 11.7628 64.6587 11.8316 64.59 12.205C64.3246 13.5709 64.0593 14.9269 63.8333 16.3027C63.7842 16.6171 63.6663 16.6859 63.3715 16.6957C62.9293 16.7056 62.4871 16.7547 62.0547 16.8333C60.6495 17.079 59.8044 17.8946 59.5391 19.2899C58.9888 22.1003 58.4582 24.9206 57.9374 27.731C57.8489 28.2223 57.7015 28.4778 57.1021 28.4385C55.9033 28.3697 54.7044 28.409 53.5056 28.4286C53.0634 28.4385 52.8571 28.4483 52.975 27.839C53.9576 22.8472 54.8813 17.8454 55.805 12.8339C55.8836 12.4212 56.0409 12.3426 56.4143 12.3426C57.5443 12.3622 58.6842 12.3819 59.8143 12.3327C60.3449 12.3131 60.4825 12.4703 60.3449 12.9518C60.2565 13.2171 60.2073 13.4824 60.1385 13.7576Z" fill="white"/>
<path d="M151.909 12.4506C151.427 12.4506 150.838 12.3229 150.484 12.5489C150.219 12.716 150.258 13.3547 150.16 13.7772C150.15 13.8362 150.12 13.8951 150.071 14.0032C149.521 13.0992 148.774 12.4801 147.782 12.1558C146.612 11.7726 145.413 11.753 144.224 11.9888C139.252 12.9518 135.587 17.7275 135.911 22.7489C136.118 25.8737 137.798 28.2714 141.129 28.8905C141.247 28.9101 142.809 29.0674 143.34 28.9396C144.971 28.802 146.376 28.1437 147.565 26.935C147.634 27.3084 147.595 27.5737 147.507 27.8194C147.339 28.3009 147.516 28.4286 147.998 28.409C149.216 28.3795 150.445 28.3795 151.663 28.409C152.096 28.4188 152.213 28.2812 152.292 27.8685C152.636 25.913 153.029 23.9575 153.402 22.0119C154.002 18.8477 154.601 15.6738 155.211 12.4506C154.081 12.4408 152.99 12.4408 151.909 12.4506ZM144.097 24.4489C141.846 24.4489 140.412 22.6703 140.874 20.4495C141.345 18.2287 142.898 16.7154 145.05 16.3714C147.281 16.0177 148.961 17.4622 148.922 19.7026C148.882 22.1593 146.553 24.439 144.097 24.4489Z" fill="#2EB34B"/>
<path d="M52.69 12.3033C51.7761 12.3426 50.872 12.3131 49.9582 12.3131C48.4547 12.3131 48.4547 12.3131 48.1992 13.7773C48.1992 13.797 48.1403 13.8166 48.0813 13.8461C47.2854 12.5195 46.0374 11.9397 44.5536 11.8022C43.0698 11.6548 41.6253 11.8906 40.2692 12.5097C36.3386 14.3079 34.275 17.4623 33.9704 21.6779C33.6657 25.9131 36.1912 28.7333 40.1906 28.92C40.4657 28.92 40.731 28.92 41.0062 28.92C42.7946 28.8414 44.357 28.2027 45.6345 26.8859C45.7328 27.2495 45.5952 27.5345 45.5264 27.7998C45.3987 28.2911 45.5559 28.3894 46.0276 28.3697C47.2755 28.3403 48.5137 28.3403 49.7616 28.3697C50.1547 28.3796 50.2825 28.2518 50.3512 27.8588C50.8033 25.3039 51.2946 22.749 51.7761 20.194C52.2281 17.7472 52.6801 15.2906 53.142 12.8438C53.2108 12.4507 53.1813 12.2738 52.69 12.3033ZM47.0102 19.968C46.8235 22.3755 44.6125 24.4096 42.1952 24.4195C40.0825 24.4195 38.7166 22.8669 38.9721 20.7247C39.2964 17.9831 41.7137 16.0276 44.3374 16.401C46.0963 16.6467 47.1576 18.0715 47.0102 19.968Z" fill="white"/>
<path d="M88.1737 11.8906C84.3512 12.4999 81.7668 14.7993 80.1061 18.1993C79.32 19.8108 79.0743 21.5207 79.3691 23.2894C79.8899 26.3946 82.4448 28.8316 86.0905 28.9397C86.3165 28.9397 86.5523 28.9299 86.7784 28.9299C90.65 28.694 93.2148 26.4634 95.3766 23.3484C93.824 23.3484 92.409 23.3582 91.0038 23.3386C90.5812 23.3287 90.2471 23.4074 89.9523 23.7415C89.5003 24.2426 88.9205 24.5767 88.2523 24.7143C86.1789 25.1663 84.4102 24.4293 84.0367 22.5328C83.9385 22.012 84.0564 21.9039 84.5772 21.9039C87.7807 21.9235 90.9743 21.9137 94.1778 21.9137C96.1627 21.9137 96.2315 21.9235 96.4575 19.9288C97.0275 14.701 93.3425 11.075 88.1737 11.8906ZM91.4853 18.5727C89.2448 18.5629 87.0142 18.5629 84.7148 18.5629C85.5009 16.5189 88.1246 15.3398 90.2373 16.175C91.1217 16.5288 91.6425 17.2068 91.839 18.1403C91.898 18.4253 91.8489 18.5727 91.4853 18.5727Z" fill="white"/>
</g>
<defs>
<clipPath id="clip0_962_18400">
<rect width="200" height="28.5756" fill="white" transform="translate(0 0.40332)"/>
</clipPath>
</defs>
</svg>
