<svg width="200" height="26" viewBox="0 0 200 26" fill="none" xmlns="http://www.w3.org/2000/svg">
<path d="M16.7329 1.17505V17.2865H15.099V4.39745L8.7692 15.2381H7.96374L1.63392 4.46644V17.2865H0V1.17505H1.40395L8.40069 13.1201L15.329 1.17505H16.7329Z" fill="#ED2024"/>
<path d="M32.0844 12.9821H23.1083L21.1748 17.286H19.4023L26.7676 1.17505H28.4481L35.8133 17.2865H34.0179L32.0844 12.9821ZM31.4629 11.6012L27.5961 2.94695L23.7292 11.6012H31.4629Z" fill="#ED2024"/>
<path d="M49.4843 17.2865L45.8019 12.1077C45.3874 12.1537 44.9735 12.1767 44.513 12.1767H40.1861V17.2865H38.4827V1.17505H44.513C48.6098 1.17505 51.0958 3.24647 51.0958 6.69885C51.0958 9.23078 49.7608 11.0027 47.4134 11.7627L51.3493 17.2865H49.4843ZM49.3923 6.69885C49.3923 4.12093 47.6888 2.64799 44.467 2.64799H40.1861V10.7267H44.467C47.6894 10.7267 49.3923 9.23078 49.3923 6.69885Z" fill="#ED2024"/>
<path d="M58.0236 2.64799H52.3618V1.17505H65.3889V2.64799H59.7271V17.286H58.0236V2.64799Z" fill="#ED2024"/>
<path d="M79.4971 15.813V17.286H68.104V1.17505H79.1516V2.64799H69.8069V8.37876H78.1386V9.82871H69.8069V15.813H79.4971Z" fill="#ED2024"/>
<path d="M81.9832 9.23082C81.9832 4.51248 85.5735 1.03711 90.4298 1.03711C92.7772 1.03711 94.8952 1.81957 96.3222 3.38506L95.2402 4.46705C93.9282 3.13209 92.3173 2.5566 90.4758 2.5566C86.5859 2.5566 83.6631 5.41049 83.6631 9.23139C83.6631 13.0523 86.5859 15.9062 90.4758 15.9062C92.3173 15.9062 93.9282 15.3307 95.2402 13.9727L96.3222 15.0547C94.8952 16.6196 92.7778 17.4257 90.4068 17.4257C85.5735 17.4245 81.9832 13.9492 81.9832 9.23082Z" fill="#ED2024"/>
<path d="M113.423 1.17505V17.2865H111.743V9.85226H101.661V17.2865H99.958V1.17505H101.661V8.35633H111.743V1.17505H113.423Z" fill="#ED2024"/>
<path d="M116.568 15.652L117.834 12.8441C119.192 13.8335 121.217 14.5245 123.151 14.5245C125.36 14.5245 126.258 13.7881 126.258 12.7981C126.258 9.78321 116.891 11.8546 116.891 5.87033C116.891 3.13143 119.1 0.853027 123.68 0.853027C125.706 0.853027 127.777 1.33653 129.273 2.27997L128.122 5.11086C126.626 4.25941 125.084 3.8449 123.657 3.8449C121.447 3.8449 120.595 4.67336 120.595 5.68635C120.595 8.65523 129.963 6.6068 129.963 12.5221C129.963 15.215 127.731 17.5164 123.127 17.5164C120.573 17.5164 117.995 16.7564 116.568 15.652Z" fill="white"/>
<path d="M144.993 14.248V17.2399H132.518V1.12842H144.694V4.12029H136.224V7.61866H143.704V10.5185H136.224V14.2474H144.993V14.248Z" fill="white"/>
<path d="M158.227 17.2399L155.12 12.7515H154.936H151.69V17.2399H147.962V1.12842H154.936C159.239 1.12842 161.932 3.36082 161.932 6.97474C161.932 9.39168 160.712 11.1636 158.618 12.0616L162.231 17.2404H158.227V17.2399ZM154.728 4.16685H151.69V9.78264H154.728C157.007 9.78264 158.158 8.72365 158.158 6.97474C158.158 5.20228 157.007 4.16685 154.728 4.16685Z" fill="white"/>
<path d="M164.878 1.12842H168.607V17.2399H164.878V1.12842Z" fill="white"/>
<path d="M184.902 14.248V17.2399H172.427V1.12842H184.603V4.12029H176.133V7.61866H183.614V10.5185H176.133V14.2474H184.902V14.248Z" fill="white"/>
<path d="M186.605 15.652L187.871 12.8441C189.229 13.8335 191.254 14.5245 193.188 14.5245C195.397 14.5245 196.295 13.7881 196.295 12.7981C196.295 9.78321 186.928 11.8546 186.928 5.87033C186.928 3.13143 189.137 0.853027 193.717 0.853027C195.743 0.853027 197.814 1.33653 199.31 2.27997L198.159 5.11086C196.663 4.25941 195.121 3.8449 193.694 3.8449C191.484 3.8449 190.632 4.67336 190.632 5.68635C190.632 8.65523 200 6.6068 200 12.5221C200 15.215 197.768 17.5164 193.164 17.5164C190.61 17.5164 188.032 16.7564 186.605 15.652Z" fill="white"/>
<path d="M7.63145 25.9744L7.62635 22.9782L6.16112 25.5092H6.0359L4.57067 22.9884V25.9744H4.3208V22.4734H4.53554L6.10106 25.1789L7.66658 22.4734H7.87679L7.88189 25.9744H7.63145Z" fill="white"/>
<path d="M14.7191 24.9896H12.6884L12.2431 25.9749H11.9683L13.5785 22.4739H13.8335L15.4438 25.9749H15.169L14.7191 24.9896ZM14.6239 24.7743L13.7038 22.7538L12.7887 24.7743H14.6239V24.7743Z" fill="white"/>
<path d="M21.9619 25.9745L21.1267 24.8039C21.0168 24.8186 20.9069 24.8288 20.7868 24.8288H19.7867V25.9739H19.5317V22.4729H20.7873C21.6678 22.4729 22.1976 22.9131 22.1976 23.6531C22.1976 24.2084 21.8973 24.5931 21.3772 24.7484L22.2526 25.9739H21.9619V25.9745ZM20.7862 24.6045C21.5364 24.6045 21.9364 24.2543 21.9364 23.6543C21.9364 23.0491 21.5364 22.7041 20.7862 22.7041H19.7861V24.6045H20.7862V24.6045Z" fill="white"/>
<path d="M27.624 24.2491L26.8387 25.0543V25.9744H26.5837V22.4734H26.8387V24.7239L29.0241 22.4734H29.334L27.7934 24.0638L29.4388 25.9744H29.1289L27.624 24.2491Z" fill="white"/>
<path d="M35.9672 25.7444V25.9744H33.5518V22.4734H35.8924V22.7034H33.8067V24.0837H35.672V24.3086H33.8067V25.7438H35.9672V25.7444Z" fill="white"/>
<path d="M41.0192 22.7039H39.759V22.4739H42.5348V22.7039H41.2747V25.9749H41.0197V22.7039H41.0192Z" fill="white"/>
<path d="M46.616 22.4734H46.8709V25.9744H46.616V22.4734Z" fill="white"/>
<path d="M54.3936 22.4734V25.9744H54.1834L51.7975 22.9335V25.9744H51.5425V22.4734H51.7572L54.1381 25.5143V22.4734H54.3936Z" fill="white"/>
<path d="M61.5663 24.239H61.8116V25.5496C61.4966 25.8499 61.0416 25.9995 60.5612 25.9995C59.5056 25.9995 58.7305 25.2442 58.7305 24.2237C58.7305 23.2033 59.5056 22.448 60.5663 22.448C61.0717 22.448 61.5164 22.6078 61.8264 22.9279L61.6666 23.0979C61.3618 22.7976 60.9963 22.6826 60.5714 22.6826C59.6608 22.6826 58.986 23.3427 58.986 24.2232C58.986 25.0986 59.6614 25.7637 60.5714 25.7637C60.9413 25.7637 61.2819 25.6737 61.5669 25.4436V24.239H61.5663Z" fill="white"/>
<path d="M71.7906 22.7039H70.5305V22.4739H73.3063V22.7039H72.0462V25.9749H71.7912V22.7039H71.7906Z" fill="white"/>
<path d="M79.8034 25.7444V25.9744H77.3879V22.4734H79.7286V22.7034H77.6429V24.0837H79.5082V24.3086H77.6429V25.7438H79.8034V25.7444Z" fill="white"/>
<path d="M83.8298 24.2242C83.8298 23.2038 84.6049 22.4485 85.6452 22.4485C86.1404 22.4485 86.5858 22.6083 86.8906 22.9335L86.7303 23.0984C86.43 22.8032 86.0651 22.6831 85.6549 22.6831C84.7596 22.6831 84.0842 23.3431 84.0842 24.2236C84.0842 25.1041 84.7596 25.7642 85.6549 25.7642C86.0651 25.7642 86.43 25.639 86.7303 25.3438L86.8906 25.5087C86.5858 25.8339 86.1404 25.9988 85.6452 25.9988C84.6055 25.9999 83.8298 25.2447 83.8298 24.2242Z" fill="white"/>
<path d="M94.0483 22.4734V25.9744H93.7933V24.3092H91.4527V25.9744H91.1978V22.4734H91.4527V24.0837H93.7933V22.4734H94.0483Z" fill="white"/>
<path d="M101.571 22.4734V25.9744H101.361L98.9749 22.9335V25.9744H98.72V22.4734H98.9347L101.316 25.5143V22.4734H101.571Z" fill="white"/>
<path d="M105.908 24.2242C105.908 23.2089 106.683 22.4485 107.728 22.4485C108.768 22.4485 109.549 23.2038 109.549 24.2242C109.549 25.2447 108.768 25.9999 107.728 25.9999C106.683 25.9999 105.908 25.2396 105.908 24.2242ZM109.289 24.2242C109.289 23.3392 108.619 22.6836 107.729 22.6836C106.834 22.6836 106.163 23.3386 106.163 24.2242C106.163 25.1098 106.834 25.7648 107.729 25.7648C108.619 25.7648 109.289 25.1092 109.289 24.2242Z" fill="white"/>
<path d="M113.886 22.4734H114.141V25.7444H116.156V25.9744H113.885V22.4734H113.886Z" fill="white"/>
<path d="M119.858 24.2242C119.858 23.2089 120.633 22.4485 121.679 22.4485C122.719 22.4485 123.499 23.2038 123.499 24.2242C123.499 25.2447 122.719 25.9999 121.679 25.9999C120.634 25.9999 119.858 25.2396 119.858 24.2242ZM123.24 24.2242C123.24 23.3392 122.569 22.6836 121.679 22.6836C120.784 22.6836 120.114 23.3386 120.114 24.2242C120.114 25.1098 120.784 25.7648 121.679 25.7648C122.569 25.7648 123.24 25.1092 123.24 24.2242Z" fill="white"/>
<path d="M130.337 24.239H130.583V25.5496C130.268 25.8499 129.813 25.9995 129.332 25.9995C128.277 25.9995 127.501 25.2442 127.501 24.2237C127.501 23.2033 128.277 22.448 129.337 22.448C129.843 22.448 130.287 22.6078 130.597 22.9279L130.438 23.0979C130.133 22.7976 129.767 22.6826 129.342 22.6826C128.432 22.6826 127.757 23.3427 127.757 24.2232C127.757 25.0986 128.432 25.7637 129.342 25.7637C129.712 25.7637 130.053 25.6737 130.338 25.4436V24.239H130.337Z" fill="white"/>
<path d="M136.235 24.7693V25.9744H135.98V24.7693L134.569 22.4734H134.849L136.114 24.5341L137.38 22.4734H137.645L136.235 24.7693Z" fill="white"/>
<path d="M146.469 22.4734H146.723V25.9744H146.469V22.4734Z" fill="white"/>
<path d="M154.246 22.4734V25.9744H154.036L151.65 22.9335V25.9744H151.395V22.4734H151.61L153.991 25.5143V22.4734H154.246Z" fill="white"/>
<path d="M158.563 25.5245L158.678 25.3347C158.918 25.5845 159.363 25.7749 159.834 25.7749C160.534 25.7749 160.844 25.4701 160.844 25.0899C160.844 24.0394 158.658 24.6695 158.658 23.3793C158.658 22.8841 159.038 22.449 159.898 22.449C160.283 22.449 160.683 22.5691 160.954 22.764L160.859 22.9691C160.568 22.7691 160.213 22.6739 159.898 22.6739C159.218 22.6739 158.913 22.9889 158.913 23.3742C158.913 24.4247 161.099 23.8043 161.099 25.0746C161.099 25.5698 160.704 25.9999 159.839 25.9999C159.318 25.9999 158.818 25.8044 158.563 25.5245Z" fill="white"/>
<path d="M165.416 22.4734H165.671V25.9744H165.416V22.4734Z" fill="white"/>
<path d="M172.843 24.239H173.088V25.5496C172.773 25.8499 172.318 25.9995 171.838 25.9995C170.782 25.9995 170.007 25.2442 170.007 24.2237C170.007 23.2033 170.782 22.448 171.843 22.448C172.349 22.448 172.793 22.6078 173.103 22.9279L172.943 23.0979C172.639 22.7976 172.273 22.6826 171.848 22.6826C170.938 22.6826 170.263 23.3427 170.263 24.2232C170.263 25.0986 170.938 25.7637 171.848 25.7637C172.218 25.7637 172.559 25.6737 172.844 25.4436V24.239H172.843Z" fill="white"/>
<path d="M180.511 22.4734V25.9744H180.256V24.3092H177.915V25.9744H177.66V22.4734H177.915V24.0837H180.256V22.4734H180.511Z" fill="white"/>
<path d="M185.853 22.7039H184.593V22.4739H187.369V22.7039H186.108V25.9749H185.853V22.7039H185.853Z" fill="white"/>
<path d="M191.03 25.5245L191.145 25.3347C191.385 25.5845 191.83 25.7749 192.3 25.7749C193 25.7749 193.31 25.4701 193.31 25.0899C193.31 24.0394 191.124 24.6695 191.124 23.3793C191.124 22.8841 191.505 22.449 192.365 22.449C192.75 22.449 193.15 22.5691 193.42 22.764L193.325 22.9691C193.035 22.7691 192.68 22.6739 192.365 22.6739C191.685 22.6739 191.379 22.9889 191.379 23.3742C191.379 24.4247 193.565 23.8043 193.565 25.0746C193.565 25.5698 193.17 25.9999 192.305 25.9999C191.785 25.9999 191.285 25.8044 191.03 25.5245Z" fill="white"/>
</svg>
