<svg width="200" height="45" viewBox="0 0 200 45" fill="none" xmlns="http://www.w3.org/2000/svg">
<path d="M79.0464 28.3994C79.9545 29.4346 80.4166 30.7868 80.3321 32.1613V44.0663H77.4749V32.5328C77.5584 31.648 77.3218 30.7627 76.8083 30.0375C76.5585 29.7911 76.2601 29.5994 75.9322 29.4748C75.6042 29.3502 75.2538 29.2953 74.9035 29.3137C74.0673 29.3026 73.2506 29.567 72.5796 30.0661C71.8185 30.6724 71.1732 31.4112 70.6748 32.2471V44.0187H67.8176V27.3994H70.1891L70.4748 29.8851C71.0261 29.0292 71.7738 28.3174 72.6558 27.8089C73.5249 27.3086 74.5102 27.0459 75.513 27.047C76.1639 27.012 76.8148 27.1144 77.4235 27.3474C78.0323 27.5804 78.5852 27.9388 79.0464 28.3994V28.3994Z" fill="white"/>
<path d="M94.9894 29.3805C96.3545 31.1957 97.0297 33.4372 96.8942 35.7044C96.9297 37.267 96.631 38.8191 96.018 40.2568C95.4854 41.5042 94.5978 42.5674 93.4656 43.314C92.2856 44.0535 90.9148 44.431 89.5227 44.3998C88.4968 44.4521 87.4725 44.2691 86.5283 43.8646C85.584 43.4602 84.7449 42.8451 84.0749 42.0664C82.6891 40.2596 81.9964 38.0161 82.1225 35.7425C82.0936 34.1857 82.3955 32.6405 83.0083 31.2091C83.5408 29.9617 84.4285 28.8986 85.5607 28.1519C86.7454 27.4052 88.1225 27.0212 89.5227 27.0471C90.5523 26.9867 91.5819 27.1659 92.5305 27.5708C93.4791 27.9757 94.3208 28.5952 94.9894 29.3805V29.3805ZM85.2464 35.7425C85.2464 39.9648 86.6718 42.0727 89.5227 42.0664C92.3798 42.0664 93.8084 39.9521 93.8084 35.7044C93.8084 31.4567 92.3798 29.3805 89.5227 29.3805C86.6655 29.3805 85.2464 31.5043 85.2464 35.7425Z" fill="white"/>
<path d="M108.199 43.2667C107.109 44.0217 105.811 44.4179 104.485 44.4C103.882 44.4359 103.278 44.347 102.711 44.1389C102.144 43.9308 101.626 43.6079 101.19 43.1905C100.344 42.2222 99.9162 40.9588 99.999 39.6761V29.6664H97.1418V27.3997H99.999V23.6759L102.856 23.333V27.3997H106.79L106.475 29.6379H102.856V39.5523C102.793 40.2204 102.954 40.8906 103.313 41.4571C103.503 41.6688 103.74 41.8326 104.004 41.9353C104.269 42.0379 104.555 42.0764 104.837 42.0476C105.615 42.0115 106.371 41.7824 107.037 41.3809L108.199 43.2667Z" fill="white"/>
<path d="M112.514 20.028C112.7 20.213 112.846 20.4346 112.943 20.6788C113.04 20.923 113.085 21.1845 113.075 21.447C113.082 21.7064 113.036 21.9643 112.939 22.2051C112.842 22.4458 112.698 22.6643 112.514 22.8471C112.315 23.0328 112.081 23.1773 111.826 23.2721C111.571 23.3669 111.3 23.4102 111.028 23.3995C110.491 23.4141 109.971 23.2155 109.58 22.8471C109.396 22.6643 109.251 22.4458 109.155 22.2051C109.058 21.9643 109.012 21.7064 109.018 21.447C109.009 21.1845 109.054 20.923 109.151 20.6788C109.248 20.4346 109.394 20.213 109.58 20.028C109.77 19.8395 109.996 19.6916 110.245 19.5934C110.494 19.4951 110.76 19.4486 111.028 19.4565C111.301 19.4444 111.575 19.4889 111.83 19.5873C112.086 19.6856 112.319 19.8356 112.514 20.028V20.028ZM112.514 27.4281V44.0188H109.656V27.3995L112.514 27.4281Z" fill="white"/>
<path d="M125.028 20.7324C125.786 20.937 126.52 21.2212 127.218 21.58L126.209 23.5896C125.118 23.0669 123.923 22.7998 122.714 22.8086C121.902 22.7229 121.087 22.9326 120.418 23.3991C120.185 23.6545 120.009 23.9562 119.901 24.2844C119.793 24.6127 119.755 24.96 119.79 25.3039V27.3992H129.047V44.0185H126.19V29.6659H119.79V44.0185H116.933V29.6659H114.285V27.3992H116.933V25.2563C116.892 24.5975 116.994 23.9377 117.23 23.3215C117.467 22.7054 117.833 22.1472 118.304 21.6848C119.526 20.7198 121.066 20.2505 122.618 20.3705C123.433 20.3916 124.243 20.5131 125.028 20.7324V20.7324Z" fill="white"/>
<path d="M144.352 36.7134H133.771C133.766 38.1703 134.253 39.5863 135.152 40.7325C135.544 41.1592 136.023 41.4959 136.558 41.7195C137.092 41.9431 137.669 42.0483 138.247 42.0278C138.995 42.0347 139.738 41.9188 140.447 41.6849C141.196 41.4133 141.904 41.0416 142.552 40.5802L143.809 42.323C142.171 43.6597 140.124 44.3927 138.009 44.3993C136.997 44.4532 135.985 44.2773 135.049 43.8847C134.114 43.4922 133.28 42.8932 132.609 42.1326C131.245 40.3499 130.568 38.1352 130.704 35.8944C130.676 34.3277 130.958 32.7709 131.533 31.3133C132.029 30.068 132.86 28.9837 133.933 28.18C135.275 27.2888 136.891 26.9039 138.491 27.0941C140.09 27.2843 141.571 28.0371 142.667 29.2181C143.936 30.9587 144.559 33.087 144.428 35.2372C144.409 35.7229 144.39 36.2087 144.352 36.7134ZM141.552 34.3896C141.645 33.0691 141.311 31.7537 140.6 30.6371C140.253 30.2023 139.806 29.8581 139.296 29.6341C138.787 29.4102 138.231 29.3132 137.676 29.3514C135.295 29.3514 134.009 31.0943 133.8 34.5801H141.581L141.552 34.3896Z" fill="white"/>
<path d="M160 20.7325V44.0186H157.448L157.143 41.6852C156.63 42.4981 155.927 43.1745 155.095 43.6567C153.88 44.3225 152.465 44.5244 151.113 44.2249C149.76 43.9253 148.563 43.1446 147.743 42.0281C146.558 40.1603 145.982 37.9705 146.095 35.7613C146.067 34.2144 146.332 32.6762 146.876 31.2279C147.333 30.0048 148.121 28.933 149.152 28.1326C150.144 27.378 151.363 26.9819 152.609 27.0088C153.458 27.013 154.296 27.1977 155.068 27.5508C155.84 27.9038 156.528 28.4171 157.086 29.0565V20.4087L160 20.7325ZM155.238 41.4662C155.981 40.9837 156.627 40.3667 157.143 39.6471V31.5232C156.665 30.876 156.071 30.3237 155.39 29.8946C154.754 29.5277 154.03 29.3401 153.295 29.3517C152.703 29.3328 152.116 29.4708 151.594 29.7518C151.072 30.0328 150.634 30.4468 150.324 30.9517C149.53 32.4077 149.163 34.0585 149.267 35.7137C149.15 37.3578 149.479 39.0028 150.219 40.4757C150.496 40.9704 150.904 41.3795 151.398 41.6583C151.891 41.9371 152.452 42.0749 153.019 42.0567C153.798 42.0834 154.569 41.885 155.238 41.4852V41.4662Z" fill="white"/>
<path d="M57.2935 11.209C57.7476 12.3295 57.875 13.5558 57.661 14.7458C57.4469 15.9358 56.9001 17.0408 56.084 17.9329C57.1427 18.5186 58.0139 19.392 58.5971 20.4521C59.1802 21.5122 59.4514 22.7157 59.3793 23.9234C65.4937 24.8758 74.4081 18.8853 77.3224 14.3995C73.1414 11.209 62.7793 8.35176 57.2935 11.209Z" fill="#93D500"/>
<path d="M54.1601 19.5042C53.1254 20.1291 51.935 20.4482 50.7265 20.4246C49.518 20.401 48.3409 20.0356 47.3314 19.3708C43.4456 24.19 44.1694 34.9044 46.56 39.6474C51.4934 37.6664 59.1125 30.1234 59.3792 23.9233C58.182 23.7513 57.0575 23.2456 56.1344 22.464C55.2113 21.6824 54.5271 20.6567 54.1601 19.5042V19.5042Z" fill="#B31983"/>
<path d="M53.7601 17.0563C53.7388 15.8478 54.0591 14.6578 54.6842 13.6233C55.3093 12.5888 56.2137 11.7518 57.2935 11.2086C55.0649 5.4371 45.4266 0.732262 40.1504 0.408447C39.398 5.66568 42.1409 16.0468 47.36 19.3707C48.1019 18.4229 49.0957 17.7032 50.2275 17.2939C51.3594 16.8846 52.5836 16.8023 53.7601 17.0563V17.0563Z" fill="#00C1DE"/>
<path d="M56.084 17.9329C55.5618 18.58 54.9138 19.1146 54.1792 19.5043C54.5462 20.6568 55.2305 21.6826 56.1535 22.4641C57.0766 23.2457 58.2011 23.7514 59.3983 23.9234C59.4686 22.7137 59.1946 21.5089 58.608 20.4486C58.0214 19.3883 57.1462 18.516 56.084 17.9329V17.9329Z" fill="#B56B8E"/>
<path d="M57.2937 11.2085C56.2139 11.7517 55.3094 12.5887 54.6843 13.6232C54.0593 14.6577 53.7389 15.8477 53.7603 17.0562C54.5848 17.1933 55.3744 17.491 56.0841 17.9324C56.9003 17.0403 57.447 15.9353 57.6611 14.7453C57.8752 13.5554 57.7478 12.3291 57.2937 11.2085V11.2085Z" fill="#58C4BF"/>
<path d="M53.7602 17.0567C52.5795 16.7969 51.3493 16.8764 50.2118 17.2859C49.0743 17.6954 48.0758 18.4183 47.3315 19.371C48.341 20.0358 49.5181 20.4012 50.7266 20.4248C51.9351 20.4484 53.1256 20.1293 54.1602 19.5044C53.8714 18.7216 53.7356 17.8907 53.7602 17.0567V17.0567Z" fill="#70ABCC"/>
<path d="M56.0841 17.9331C55.3743 17.4916 54.5848 17.1939 53.7603 17.0569V17.0569C54.5848 17.1939 55.3743 17.4916 56.0841 17.9331V17.9331Z" fill="#00C1DE"/>
<path d="M54.1602 19.5045C54.8948 19.1148 55.5427 18.5803 56.065 17.9331C55.3552 17.4916 54.5656 17.1939 53.7411 17.0569C53.7226 17.8921 53.8648 18.7231 54.1602 19.5045V19.5045Z" fill="#6BA7C1"/>
</svg>
