<svg width="200" height="21" viewBox="0 0 200 21" fill="none" xmlns="http://www.w3.org/2000/svg">
<path d="M2.19699 19.5779C2.19699 19.8575 2.15675 20.1774 1.71766 20.1774L0.0397338 20.2166V20.4168C1.27857 20.4168 2.87652 20.3771 4.11484 20.3771C5.27319 20.3771 6.95162 20.4168 8.15021 20.4168V20.2166L6.47229 20.1774C6.03269 20.1774 5.95271 19.8575 5.95271 19.5779V11.0675C6.79167 11.2275 7.51093 11.3477 8.38962 11.3477C11.7455 11.3869 15.1018 9.94941 15.1018 5.39446C15.1018 0.919488 11.2661 0.0402832 8.9092 0.0402832L4.0751 0.08053C2.83627 0.08053 1.23832 0.0402832 0 0.0402832V0.23997L1.67793 0.280714C2.11753 0.280714 2.15726 0.600106 2.15726 0.87976L2.19699 19.5779ZM5.95271 0.87976C5.95271 0.600106 5.99295 0.280714 6.47229 0.280714H7.23127C9.66818 0.280714 10.987 1.55928 10.987 5.51417C10.987 8.99023 9.94835 11.067 7.75085 11.067C7.23127 11.067 6.67196 11.0278 5.95322 10.8281L5.95271 0.87976ZM19.3766 2.19856C18.258 2.19856 16.8195 2.15832 15.7009 2.15832V2.35851L17.2188 2.39825C17.6182 2.39825 17.6584 2.6779 17.6584 2.91782V19.6976C17.6584 19.9375 17.6182 20.2171 17.2188 20.2171L15.7009 20.2579V20.4576C16.8195 20.4576 18.258 20.4173 19.3766 20.4173C20.4153 20.4173 21.9337 20.4576 22.9724 20.4576V20.2579L21.4544 20.2171C21.055 20.2171 21.0153 19.9375 21.0153 19.6976V11.1882H22.7335C23.2928 11.1882 23.9321 11.4679 24.3314 11.9075C25.0507 12.7057 25.0507 14.6638 25.1301 16.0621C25.2901 19.8972 27.0877 20.7765 29.0855 20.7765C30.2042 20.7765 31.1231 20.3374 31.9223 19.8973L31.8026 19.6971C31.443 19.8972 31.0034 20.1367 30.4843 20.1367C29.6051 20.1367 29.1258 19.5774 28.8461 16.5409C28.7264 15.4615 28.6465 14.184 28.2069 13.3847C27.2482 11.7863 25.9299 11.3069 24.092 11.0278C26.6089 10.9081 29.2058 9.74872 29.2058 6.59306C29.2058 2.83734 25.7699 2.11859 23.6524 2.11859C22.2531 2.15883 20.8146 2.19856 19.3766 2.19856ZM21.0143 2.91731C21.0143 2.67841 21.054 2.39773 21.4534 2.39773H22.0927C24.2897 2.39773 25.4485 3.51635 25.4485 6.75249C25.4485 10.388 24.6498 11.1073 20.9741 10.987L21.0143 2.91731ZM37.3952 20.2166C36.9953 20.2166 36.9551 19.937 36.9551 19.6971V10.9875C39.5519 10.9875 40.7908 11.4272 41.2701 14.7433H41.4703V7.07239H41.2701C40.8305 9.94839 40.071 10.7874 36.9154 10.7874V2.95653C36.9154 2.71661 36.9556 2.43695 37.355 2.43695H40.5911C41.3903 2.43695 42.4692 3.63606 43.028 4.6747C43.5476 5.63286 44.1064 6.79171 44.2668 7.35102H44.467L44.2668 2.23728L35.2374 2.27701C34.1188 2.27701 32.6803 2.23728 31.5617 2.23728V2.43747L33.0797 2.47771C33.479 2.47771 33.5193 2.75736 33.5193 2.99779V19.777C33.5193 20.0175 33.479 20.2971 33.0797 20.2971L31.5617 20.3368V20.537C32.6803 20.537 34.1188 20.4968 35.2374 20.4968L44.7059 20.537L45.0656 14.5843H44.8654C44.7462 15.1436 43.9067 16.981 43.2674 18.0196C42.6281 19.0583 41.4698 20.2971 40.151 20.2971H37.3947V20.2166H37.3952ZM57.6897 14.8635C57.6897 12.5463 56.6114 11.1078 54.773 10.2688C53.2952 9.58978 51.8165 9.26989 50.6979 8.75082C49.0999 7.95261 48.7 6.67354 48.7 5.55543C48.7 3.83727 49.5792 1.9999 51.8959 1.9999C54.9324 1.9999 56.1712 5.5157 56.7698 7.91288H56.97V2.19959H56.7698C56.6903 2.47924 56.5298 2.75889 56.2502 2.75889C55.8106 2.75889 53.9727 1.83995 51.8557 1.83995C48.2599 1.83995 46.1827 4.43732 46.1827 7.35306C46.1827 9.86944 47.3008 11.2687 49.0587 12.1067C50.5766 12.7862 52.0156 13.1056 53.174 13.6246C54.7719 14.4234 55.0521 15.8624 55.0521 16.82C55.0521 18.4985 54.2132 20.5758 51.5363 20.5758C48.3404 20.5758 46.7817 16.98 46.2224 14.3037H46.0629V20.4566H46.2224C46.3416 20.1769 46.4226 19.8973 46.742 19.8973C47.341 19.8973 49.1391 20.7765 51.4161 20.7765C55.453 20.7765 57.6897 18.2596 57.6897 14.8635ZM70.3949 14.8635C70.3949 12.5463 69.3165 11.1078 67.4776 10.2688C65.9999 9.58978 64.5216 9.26989 63.4025 8.75082C61.8046 7.95261 61.4057 6.67354 61.4057 5.55543C61.4057 3.83727 62.2849 1.9999 64.6011 1.9999C67.6376 1.9999 68.8764 5.5157 69.4754 7.91288H69.6751V2.19959H69.4754C69.3955 2.47924 69.235 2.75889 68.9553 2.75889C68.5157 2.75889 66.6779 1.83995 64.5609 1.83995C60.9651 1.83995 58.8873 4.43732 58.8873 7.35306C58.8873 9.86944 60.0059 11.2687 61.7638 12.1067C63.2813 12.7862 64.7203 13.1056 65.8786 13.6246C67.4766 14.4234 67.7568 15.8624 67.7568 16.82C67.7568 18.4985 66.9178 20.5758 64.2415 20.5758C61.0451 20.5758 59.4868 16.98 58.9275 14.3037H58.7274V20.4566H58.8868C59.0065 20.1769 59.0875 19.8973 59.4069 19.8973C60.0059 19.8973 61.8035 20.7765 64.081 20.7765C68.1576 20.7765 70.3949 18.2596 70.3949 14.8635ZM79.3046 13.9053V11.308H72.2327V13.9053H79.3046ZM90.1714 0.281227C90.9701 0.281227 91.969 1.39984 92.8879 2.9983C93.4875 4.03695 94.0065 5.03586 94.2465 5.71436H94.4054L94.0463 0.0413014H78.9444L78.5848 5.71436H78.7438C78.9439 5.15505 79.5827 3.877 80.1028 2.9983C81.0217 1.52006 82.0604 0.281227 82.8189 0.281227H84.0979C84.537 0.281227 84.6175 0.600611 84.6175 0.880265V19.5784C84.6175 19.858 84.5783 20.1779 84.0979 20.1779L82.34 20.2171V20.4173C83.5784 20.4173 85.2965 20.3776 86.4951 20.3776C87.653 20.3776 89.4913 20.4173 90.6497 20.4173V20.2171L88.8123 20.1779C88.3727 20.1779 88.2927 19.858 88.2927 19.5784V0.880265C88.2927 0.600611 88.3325 0.281227 88.8123 0.281227H90.1714ZM100.679 20.2166C100.279 20.2166 100.24 19.937 100.24 19.6971V10.9875C102.837 10.9875 104.075 11.4272 104.555 14.7433H104.755V7.07239H104.555C104.115 9.94839 103.356 10.7874 100.2 10.7874V2.95653C100.2 2.71661 100.24 2.43695 100.639 2.43695H103.875C104.674 2.43695 105.754 3.63606 106.313 4.6747C106.833 5.63286 107.391 6.79171 107.552 7.35102H107.752L107.552 2.23728L98.5228 2.27701C97.4037 2.27701 95.9651 2.23728 94.8465 2.23728V2.43747L96.3645 2.47771C96.7634 2.47771 96.8041 2.75736 96.8041 2.99779V19.777C96.8041 20.0175 96.7634 20.2971 96.3645 20.2971L94.8465 20.3368V20.537C95.9651 20.537 97.4037 20.4968 98.5228 20.4968L107.991 20.537L108.35 14.5843H108.15C108.03 15.1436 107.191 16.981 106.551 18.0196C105.911 19.0583 104.754 20.2971 103.435 20.2971H100.679V20.2166ZM114.622 20.2166C114.223 20.2166 114.183 19.937 114.183 19.6971V2.91731C114.183 2.67841 114.223 2.39773 114.622 2.39773L116.14 2.358V2.15782C115.1 2.15782 113.582 2.19754 112.543 2.19754C111.425 2.19754 109.986 2.15782 108.868 2.15782V2.358L110.386 2.39773C110.784 2.39773 110.825 2.67739 110.825 2.91731V19.6971C110.825 19.937 110.784 20.2166 110.386 20.2166L108.868 20.2574V20.4571C109.986 20.4571 111.425 20.4168 112.543 20.4168L121.333 20.4571L121.692 14.5039H121.492C121.292 15.1034 120.693 16.6209 120.014 17.6997C119.375 18.7384 118.297 20.2574 116.858 20.2574H114.621L114.622 20.2166ZM127.766 20.2166C127.367 20.2166 127.327 19.937 127.327 19.6971V10.9875C129.925 10.9875 131.162 11.4272 131.642 14.7433H131.842V7.07239H131.642C131.203 9.94839 130.443 10.7874 127.287 10.7874V2.95653C127.287 2.71661 127.327 2.43695 127.727 2.43695H130.963C131.762 2.43695 132.841 3.63606 133.4 4.6747C133.92 5.63286 134.478 6.79171 134.639 7.35102H134.839L134.638 2.23881L125.608 2.27854C124.49 2.27854 123.051 2.23881 121.932 2.23881V2.43849L123.45 2.47873C123.85 2.47873 123.89 2.75838 123.89 2.9983V19.7781C123.89 20.018 123.85 20.2976 123.45 20.2976L121.932 20.3384V20.5381C123.051 20.5381 124.49 20.4978 125.608 20.4978L135.077 20.5381L135.436 14.5848H135.236C135.117 15.1442 134.277 16.9825 133.638 18.0212C132.999 19.0593 131.84 20.2976 130.522 20.2976H127.765L127.766 20.2166ZM149.699 13.8243C149.699 13.5844 149.74 13.3048 150.139 13.3048L151.418 13.2645V13.0648C150.299 13.0648 149.14 13.1046 148.022 13.1046C146.983 13.1046 145.384 13.0648 144.345 13.0648V13.2645L145.944 13.3048C146.344 13.3048 146.383 13.5844 146.383 13.8243V19.2585C146.103 19.9777 144.945 20.5768 144.026 20.5768C141.909 20.5768 140.789 18.9381 140.43 16.4614C140.229 15.1824 140.15 13.9445 140.15 11.2677C140.15 9.15069 140.309 7.27258 140.47 6.15345C140.83 3.79651 142.028 1.95864 144.025 1.95864C146.821 1.95864 148.259 5.15505 149.099 7.67244H149.299V2.19907H149.099C149.019 2.39875 148.739 2.91782 148.38 2.91782C147.941 2.91782 146.343 1.79971 143.945 1.79971C138.712 1.79971 136.395 6.67354 136.395 11.3085C136.395 15.9831 138.552 20.777 143.945 20.777C145.943 20.777 148.419 19.9777 149.698 18.8988L149.699 13.8243ZM155.133 2.19856C154.014 2.19856 152.575 2.15832 151.457 2.15832V2.35851L152.975 2.39825C153.374 2.39825 153.414 2.6779 153.414 2.91782V19.6976C153.414 19.9375 153.374 20.2171 152.975 20.2171L151.457 20.2579V20.4576C152.575 20.4576 154.014 20.4173 155.133 20.4173C156.172 20.4173 157.69 20.4576 158.729 20.4576V20.2579L157.211 20.2171C156.812 20.2171 156.772 19.9375 156.772 19.6976V11.1882H158.49C159.05 11.1882 159.689 11.4679 160.088 11.9075C160.808 12.7057 160.808 14.6638 160.887 16.0621C161.046 19.8972 162.845 20.7765 164.843 20.7765C165.961 20.7765 166.88 20.3374 167.679 19.8973L167.56 19.6971C167 20.2171 166.76 20.1367 166.241 20.1367C165.362 20.1367 164.883 19.5774 164.603 16.5409C164.483 15.4615 164.402 14.184 163.963 13.3847C163.005 11.7863 161.685 11.3069 159.849 11.0278C162.365 10.9081 164.962 9.74872 164.962 6.59306C164.962 2.83734 161.526 2.11859 159.409 2.11859C158.01 2.15883 156.572 2.19856 155.133 2.19856ZM156.771 2.91731C156.771 2.67841 156.811 2.39773 157.21 2.39773H157.85C160.047 2.39773 161.206 3.51635 161.206 6.75249C161.206 10.388 160.407 11.1073 156.731 10.987V2.9168H156.771V2.91731ZM174.67 14.0245H169.796L172.393 6.11423L174.67 14.0245ZM174.51 2.07885H173.431L167.918 19.0191C167.718 19.8178 167.239 20.2171 166.719 20.2171L166.079 20.2579V20.4576C166.719 20.4576 167.358 20.4173 168.037 20.4173C168.836 20.4173 169.716 20.4576 170.514 20.4576V20.2579L168.836 20.2171C168.276 20.2171 168.037 19.6976 168.276 19.0191L169.794 14.2644H174.829L176.546 19.7775C176.626 20.018 176.546 20.2166 176.266 20.2166L174.509 20.2574V20.4571C175.627 20.4571 177.385 20.4168 178.544 20.4168C179.503 20.4168 180.98 20.4571 181.98 20.4571V20.2574L180.901 20.2166C180.541 20.2166 180.182 20.0577 180.102 19.7775L174.51 2.07885ZM183.859 2.83784H183.978L188.653 20.4168H189.612L194.567 2.83784H194.686V19.6976C194.686 19.9375 194.646 20.2171 194.246 20.2171L192.769 20.2579V20.4576C193.808 20.4576 195.406 20.4173 196.444 20.4173C197.563 20.4173 198.882 20.4576 200 20.4576V20.2579L198.482 20.2171C198.083 20.2171 198.043 19.9375 198.043 19.6976V2.91782C198.043 2.67891 198.083 2.39825 198.482 2.39825L200 2.35851V2.15832C198.882 2.15832 197.563 2.19805 196.444 2.19805C195.406 2.19805 195.126 2.15832 194.487 2.15832L190.732 15.5017L187.216 2.15832C186.337 2.15832 185.538 2.19805 184.659 2.19805C183.54 2.19805 182.78 2.15832 181.702 2.15832V2.35851L183.22 2.39825C183.619 2.39825 183.659 2.6779 183.659 2.91782V19.0191C183.659 19.7378 183.339 20.1774 182.699 20.2171L181.74 20.2579V20.4576C182.261 20.4576 183.258 20.4173 183.978 20.4173C184.617 20.4173 185.257 20.4576 185.776 20.4576V20.2579L184.897 20.2171C184.257 20.1779 183.937 19.7383 183.937 19.0191V2.83784H183.859V2.83784Z" fill="white"/>
</svg>
