<svg width="200" height="39" viewBox="0 0 200 39" fill="none" xmlns="http://www.w3.org/2000/svg">
<g clip-path="url(#clip0_962_18406)">
<path d="M190.02 9.5375C190.465 9.16558 190.966 8.71374 191.501 8.30494C192.728 7.37053 194.12 7.17074 195.589 7.52422C196.859 7.82852 197.864 9.15328 197.928 10.7485C198.02 13.0262 198.002 15.3099 198.03 17.5906C198.033 17.8365 198.027 18.0855 198.03 18.3314C198.042 19.3887 198.362 19.7668 199.394 19.9574C199.554 19.9881 199.717 20.0127 199.877 20.0465C199.914 20.0557 199.945 20.0895 200 20.1233C200 20.3539 200 20.5967 200 20.8856C197.882 20.8856 195.78 20.8856 193.647 20.8856C193.647 20.609 193.647 20.3508 193.647 20.0834C193.76 20.0496 193.856 20.0065 193.954 19.9912C195.328 19.776 195.5 19.5824 195.5 18.2176C195.5 16.1214 195.537 14.022 195.479 11.9288C195.46 11.2557 195.319 10.5149 194.999 9.93708C194.36 8.77214 192.688 8.60002 191.351 9.47602C190.471 10.0508 189.909 10.7578 189.964 11.9473C190.056 13.979 189.989 16.0169 189.989 18.0517C189.989 19.3857 190.269 19.7238 191.599 20.0004C191.679 20.0158 191.753 20.0496 191.858 20.0865C191.858 20.3447 191.858 20.6028 191.858 20.8948C189.795 20.8948 187.751 20.8948 185.664 20.8948C185.664 20.6244 185.664 20.3692 185.664 20.0588C185.895 20.025 186.131 19.9943 186.368 19.9543C187.1 19.8313 187.453 19.4441 187.456 18.6971C187.465 16.3119 187.475 13.9268 187.444 11.5416C187.438 11.0836 187.324 10.5918 187.127 10.1799C186.479 8.82747 184.828 8.5201 183.362 9.46373C182.44 10.057 181.859 10.7977 181.92 12.0333C182.019 14.022 181.945 16.0199 181.948 18.0148C181.948 19.3426 182.258 19.7207 183.553 19.982C183.651 20.0035 183.746 20.0404 183.866 20.0772C183.866 20.3447 183.866 20.6028 183.866 20.8948C181.779 20.8948 179.713 20.8948 177.614 20.8948C177.614 20.6121 177.614 20.3539 177.614 20.0834C177.722 20.0496 177.814 20.0065 177.912 19.9912C179.314 19.7699 179.461 19.5977 179.461 18.1654C179.461 15.7402 179.461 13.3151 179.461 10.8869C179.461 9.47602 179.136 9.07644 177.759 8.78751C177.639 8.76292 177.522 8.73526 177.377 8.70145C177.377 8.43711 177.377 8.17892 177.377 7.85925C178.745 7.77319 180.095 7.69327 181.441 7.60106C181.837 7.5734 181.936 7.77319 181.927 8.12359C181.911 8.58772 181.923 9.05492 181.923 9.68503C182.366 9.26394 182.695 8.9412 183.033 8.63075C184.502 7.28139 186.903 6.90948 188.391 7.90536C188.999 8.31416 189.451 8.95657 190.02 9.5375Z" fill="white"/>
<path d="M122.112 8.12954C122.112 6.37445 122.18 4.67469 122.085 2.98108C122.032 2.02823 121.31 1.60098 120.004 1.4473C119.721 1.41349 119.438 1.3766 119.168 1.34279C118.996 0.525185 119.026 0.494448 119.77 0.460637C121.166 0.396089 122.561 0.340762 123.954 0.236256C124.525 0.193224 124.71 0.365352 124.71 0.943209C124.694 6.51584 124.7 12.0885 124.7 17.6611C124.7 17.95 124.691 18.239 124.728 18.5248C124.808 19.1918 125.278 19.6344 125.945 19.699C126.268 19.7297 126.591 19.7543 126.944 19.785C126.944 20.0924 126.944 20.3506 126.944 20.661C125.512 20.7563 124.101 20.8516 122.693 20.9469C122.346 20.9715 122.208 20.8024 122.22 20.4674C122.229 20.1877 122.223 19.908 122.223 19.5299C122.026 19.6529 121.916 19.699 121.839 19.7758C119.438 22.1641 115.913 21.6477 113.967 18.8967C112.028 16.155 111.862 10.6899 115.796 8.23712C117.526 7.15825 119.361 7.1521 121.243 7.76684C121.525 7.86212 121.799 7.99737 122.112 8.12954ZM122.165 14.4153C122.165 13.3671 122.125 12.3159 122.174 11.2709C122.232 10.0537 121.578 9.28525 120.637 8.73813C119.128 7.8652 117.281 8.45228 116.398 10.1244C115.141 12.5065 115.021 15.0269 115.999 17.5105C116.995 20.0463 119.835 20.6272 121.771 18.7676C121.989 18.5586 122.134 18.1775 122.146 17.8701C122.192 16.7205 122.165 15.5679 122.165 14.4153Z" fill="white"/>
<path d="M2.29912 20.0987C1.63213 20.9901 1.63213 20.9901 0.716161 20.8733C0.654687 18.7555 0.593212 16.6285 0.531738 14.5107C1.51532 14.2802 1.52762 14.2955 1.82884 15.1961C2.30527 16.6131 2.92923 17.9533 4.08802 18.9491C5.61872 20.2647 7.36766 20.4553 9.21804 19.7883C10.0172 19.4993 10.4967 18.86 10.7088 18.024C11.2344 15.9584 10.4291 14.1787 8.48342 13.2935C7.10333 12.6665 5.67098 12.1593 4.28473 11.5446C1.50303 10.312 0.276621 7.51802 1.42926 4.84082C2.30834 2.79373 4.01117 1.77018 6.20273 1.57039C7.924 1.41363 9.48237 1.93617 10.9332 2.80295C11.6954 1.89006 11.6954 1.89006 12.5868 2.01301C12.5868 4.04473 12.5868 6.09489 12.5868 8.18809C12.3163 8.18809 11.9813 8.18809 11.7323 8.18809C11.2252 7.00778 10.8071 5.82441 10.2231 4.73017C9.40861 3.20253 7.56438 2.36648 6.00294 2.71689C4.79804 2.98737 3.87901 3.64822 3.63926 4.93303C3.39029 6.28239 3.70073 7.53031 4.90255 8.29259C5.82774 8.87967 6.88509 9.25774 7.88405 9.72801C8.92296 10.2137 9.98646 10.6532 11.0008 11.185C14.2958 12.9154 13.9608 17.3047 12.1165 19.2073C10.26 21.1253 7.97933 21.6294 5.45274 21.11C4.39846 20.9009 3.39336 20.4583 2.29912 20.0987Z" fill="white"/>
<path d="M85.3046 20.904C85.0925 20.9133 84.9112 20.9286 84.7298 20.9286C82.8241 20.9317 80.9184 20.9286 78.9697 20.9286C78.9697 20.6243 78.9697 20.3692 78.9697 20.0588C79.1971 20.025 79.4338 19.9911 79.6736 19.9573C80.442 19.8559 80.8754 19.4287 80.8815 18.6572C80.8969 15.9246 80.903 13.189 80.8784 10.4565C80.8723 9.55283 80.3682 9.02108 79.4861 8.83051C79.2863 8.78748 79.0834 8.74752 78.8406 8.69834C78.8406 8.44937 78.8406 8.19426 78.8406 7.85922C80.2053 7.77316 81.57 7.6748 82.9378 7.62562C83.0669 7.61947 83.3036 7.91147 83.3251 8.0836C83.3804 8.54466 83.3436 9.01801 83.3436 9.61124C83.7554 9.24239 84.0874 8.95654 84.4071 8.65839C85.6857 7.47808 87.198 7.17071 88.867 7.48116C89.992 7.69017 90.7727 8.35409 91.1293 9.42374C91.3383 10.0569 91.4735 10.7424 91.4858 11.4063C91.5319 13.687 91.5042 15.9707 91.5104 18.2514C91.5135 19.2842 91.8608 19.7268 92.8321 19.9543C93.5083 20.111 93.5083 20.111 93.3239 20.8979C91.2461 20.8979 89.1652 20.8979 87.0474 20.8979C87.0474 20.6059 87.0474 20.3508 87.0474 20.0834C87.1918 20.0465 87.3086 20.0034 87.4285 19.9881C88.8025 19.8067 89.0084 19.5731 89.0084 18.1777C89.0084 16.1213 89.0207 14.065 88.9992 12.0118C88.9961 11.5446 88.9561 11.0559 88.8148 10.6163C88.1662 8.59691 86.2144 8.59999 84.6714 9.51902C83.7954 10.0416 83.2698 10.7792 83.319 11.9411C83.4081 14.0343 83.3436 16.1336 83.3436 18.2299C83.3436 19.2627 83.7093 19.7145 84.7206 19.9512C85.3906 20.1079 85.3906 20.1079 85.3046 20.904Z" fill="white"/>
<path d="M177.381 14.2432C177.356 16.6038 176.655 18.6909 174.7 20.1201C171.15 22.7174 165.728 21.1375 164.76 16.0044C164.259 13.3488 164.695 10.8529 166.782 8.93798C168.707 7.1706 171.033 6.93393 173.397 7.77919C175.81 8.64291 176.984 10.5824 177.304 13.0752C177.353 13.4625 177.356 13.8559 177.381 14.2432ZM174.657 14.2555C174.599 13.5608 174.584 12.86 174.467 12.1746C174.261 10.9666 173.898 9.79862 172.896 8.99331C171.273 7.69006 168.842 8.41853 168.006 10.5179C166.992 13.069 167.074 15.6602 168.086 18.196C168.593 19.4685 169.543 20.2892 170.984 20.3076C172.407 20.323 173.29 19.5085 173.861 18.2759C174.454 17.0003 174.636 15.651 174.657 14.2555Z" fill="white"/>
<path d="M69.1677 20.8855C69.1677 20.572 69.1677 20.3076 69.1677 20.0003C69.7763 19.905 70.3788 19.822 70.9751 19.7144C71.7158 19.5792 71.9832 19.2902 71.9863 18.5587C71.9955 13.9143 71.9925 9.26994 71.9894 4.62249C71.9894 4.05078 71.722 3.61124 71.2025 3.41145C70.5632 3.16556 69.89 2.99957 69.1831 2.78442C69.1831 2.57848 69.1831 2.29877 69.1831 1.98218C71.9955 1.98218 74.7957 1.98218 77.6296 1.98218C77.6296 2.2834 77.6296 2.56003 77.6296 2.85511C77.0364 2.95654 76.4493 3.01802 75.8776 3.16248C75.1184 3.35305 74.8233 3.75571 74.8233 4.5395C74.8172 9.10088 74.8172 13.6653 74.8233 18.2267C74.8233 19.0443 75.2229 19.5177 76.0313 19.696C76.5477 19.8097 77.0764 19.8896 77.6266 19.991C77.6266 20.2769 77.6266 20.5566 77.6266 20.8855C74.8264 20.8855 72.0263 20.8855 69.1677 20.8855Z" fill="white"/>
<path d="M138.182 13.9051C136.734 13.9051 135.317 13.9051 133.903 13.9051C132.489 13.9051 131.078 13.9051 129.575 13.9051C129.625 15.7832 129.861 17.5044 131.269 18.8538C132.458 19.9972 135.532 20.3538 136.928 18.3497C137.174 17.9993 137.423 17.6489 137.693 17.2678C137.982 17.4522 138.252 17.6243 138.563 17.8241C137.598 19.6499 136.248 20.9101 134.183 21.1806C130.276 21.697 127.482 19.4439 127.018 15.5157C126.738 13.1521 127.187 11.0189 128.782 9.19928C130.808 6.894 134.742 6.70035 136.799 8.79048C137.92 9.93082 138.511 12.064 138.182 13.9051ZM135.784 12.7709C135.587 11.7966 135.483 10.8806 135.206 10.023C134.801 8.75974 133.697 8.20647 132.385 8.41548C130.617 8.69826 129.446 10.9882 129.668 12.7709C131.625 12.7709 133.59 12.7709 135.784 12.7709Z" fill="white"/>
<path d="M46.0627 13.9082C43.2103 13.9082 40.3825 13.9082 37.5608 13.9082C36.7186 17.197 39.4419 20.2369 42.7062 19.7021C43.7082 19.5361 44.3937 18.9091 44.9685 18.1284C45.1621 17.8671 45.3404 17.5935 45.5555 17.2831C45.8537 17.4675 46.1272 17.6335 46.4469 17.8302C45.4603 19.6406 44.1232 20.907 42.0577 21.1898C37.5147 21.8107 35.108 18.7093 34.856 15.0977C34.6808 12.6111 35.2709 10.4072 37.1797 8.689C39.5341 6.56814 43.6468 7.01998 45.2697 9.56501C45.952 10.6316 46.2994 12.4666 46.0627 13.9082ZM43.4869 12.7647C43.5423 11.7228 43.4378 10.7299 42.9982 9.81091C42.3374 8.43081 40.822 7.96975 39.4696 8.7013C38.2063 9.38366 37.3549 11.1357 37.5178 12.7678C39.488 12.7647 41.4675 12.7647 43.4869 12.7647Z" fill="white"/>
<path d="M58.1975 17.277C58.5079 17.4707 58.7753 17.6397 59.0366 17.8026C58.1729 20.0249 55.5848 21.4695 53.2181 21.2821C49.2376 20.9655 47.6608 17.8303 47.4887 15.024C47.3381 12.5804 47.9221 10.4196 49.7786 8.71981C52.1361 6.56206 56.2733 6.99853 57.9116 9.56815C58.5909 10.6317 58.9505 12.5712 58.6954 13.8929C55.8645 13.8929 53.0214 13.8929 50.0952 13.8929C50.129 15.8877 50.3657 17.7411 52.0132 19.0321C53.6945 20.3507 56.2641 19.9204 57.5797 18.1684C57.7795 17.9071 57.9547 17.6305 58.1975 17.277ZM56.2334 12.771C56.1012 11.898 56.0459 11.0958 55.8461 10.3304C55.4649 8.88579 54.3215 8.19728 52.9261 8.40936C51.1925 8.6737 49.9415 10.8898 50.1935 12.771C52.1515 12.771 54.1125 12.771 56.2334 12.771Z" fill="white"/>
<path d="M95.8045 20.1817C95.3741 20.984 95.3741 20.984 94.4858 20.8979C94.4858 19.4256 94.4858 17.9379 94.4858 16.4164C94.6887 16.4164 94.9469 16.4164 95.0514 16.4164C95.6354 17.3263 96.0934 18.2269 96.7266 18.983C97.6579 20.1018 98.9396 20.4092 100.35 20.1387C101.322 19.9512 101.887 19.4102 102.023 18.5711C102.207 17.4308 101.915 16.6316 100.984 16.1644C100.181 15.7617 99.3085 15.5128 98.4786 15.1624C97.747 14.8519 96.9817 14.5753 96.3208 14.148C94.9623 13.2659 94.449 11.8797 94.7871 10.352C95.0975 8.95656 96.3669 7.77625 97.8577 7.49654C99.2685 7.23221 100.63 7.37667 101.967 8.02215C102.136 7.32134 102.607 7.26909 103.227 7.41355C103.298 8.75677 103.366 10.1215 103.436 11.4801C102.597 11.6829 102.591 11.6768 102.345 10.9084C101.737 8.99651 100.151 8.03752 98.3157 8.46169C97.455 8.66148 96.8188 9.30389 96.7327 10.0631C96.6282 10.9452 96.9878 11.6891 97.8362 12.0641C98.9212 12.5466 100.046 12.9278 101.143 13.3765C102.238 13.8253 103.27 14.3663 103.802 15.522C104.835 17.7627 103.489 20.3877 100.965 21.0393C99.2101 21.4911 97.5503 21.3036 96.0196 20.2862C95.952 20.2432 95.8752 20.2155 95.8045 20.1817Z" fill="white"/>
<path d="M163.789 17.3077C164.078 17.5014 164.326 17.6674 164.569 17.8303C163.69 19.819 161.194 21.3896 159.117 21.2882C156.455 21.1591 154.524 19.7851 153.747 17.3293C152.941 14.7904 153.012 12.3099 154.555 10.0108C156.535 7.05693 159.934 6.91246 162 7.8899C163.318 8.51079 163.991 9.78023 163.825 11.2187C163.721 12.1501 163.22 12.5558 162.282 12.4789C161.327 12.4021 160.801 11.8734 160.862 10.9943C160.893 10.5487 161.004 10.106 161.09 9.66343C161.231 8.93189 161.059 8.65833 160.325 8.4739C159.049 8.15117 157.909 8.56919 157.14 9.65728C156.135 11.0773 156.031 12.7125 156.043 14.3724C156.052 15.6633 156.31 16.8866 156.99 18.0178C158.379 20.3261 161.308 20.2739 162.9 18.4389C163.195 18.0946 163.46 17.7288 163.789 17.3077Z" fill="white"/>
<path d="M61.4097 9.0672C60.8196 9.0672 60.3063 9.02724 59.8022 9.07642C59.212 9.13482 58.96 8.93503 59.0583 8.33259C59.0799 8.19427 59.0737 8.05288 59.086 7.83157C59.8821 7.83157 60.6505 7.83157 61.4743 7.83157C61.4743 6.42689 61.4743 5.09905 61.4743 3.7251C62.298 3.7251 63.0665 3.7251 63.9056 3.7251C63.9056 5.04987 63.9056 6.37771 63.9056 7.77624C65.175 7.77624 66.3768 7.77624 67.6186 7.77624C67.6186 8.22808 67.6186 8.60615 67.6186 9.03954C66.4229 9.03954 65.2396 9.03954 63.9947 9.03954C63.9763 9.26392 63.9486 9.44219 63.9486 9.6174C63.9455 11.9811 63.9425 14.3478 63.9548 16.7115C63.9578 17.1818 63.9947 17.6582 64.0808 18.1193C64.2621 19.0998 64.7693 19.5455 65.7713 19.5639C66.4629 19.5762 67.1576 19.4901 67.8645 19.4471C68.0827 20.2555 68.0428 20.3293 67.2098 20.6243C66.0572 21.0331 64.8892 21.3098 63.6535 21.0885C62.4025 20.8641 61.6741 20.1541 61.5081 18.8969C61.4189 18.2269 61.4097 17.5445 61.4067 16.8683C61.4036 14.3048 61.4097 11.7352 61.4097 9.0672Z" fill="white"/>
<path d="M16.5428 9.06095C15.7313 9.06095 14.9998 9.06095 14.2283 9.06095C14.2283 8.64908 14.2283 8.28945 14.2283 7.83147C14.9998 7.83147 15.7836 7.83147 16.6319 7.83147C16.6319 6.41142 16.6319 5.08665 16.6319 3.72192C17.4434 3.72192 18.1903 3.72192 18.9956 3.72192C18.9956 5.06513 18.9956 6.39298 18.9956 7.79459C20.2773 7.79459 21.5007 7.79459 22.764 7.79459C22.764 8.23105 22.764 8.59068 22.764 9.04251C21.556 9.04251 20.3388 9.04251 19.1247 9.04251C19.0878 9.20542 19.0509 9.28534 19.0509 9.36218C19.0724 12.1162 19.0601 14.8703 19.1308 17.6243C19.1677 19.0659 19.7978 19.5976 21.2486 19.5761C21.8388 19.5669 22.4258 19.4808 23.016 19.4286C23.1543 20.3476 23.1635 20.3783 22.2629 20.6488C21.5406 20.864 20.7999 21.0546 20.0529 21.1498C17.8522 21.4265 16.5735 20.3169 16.552 18.0977C16.5243 15.3436 16.5428 12.5865 16.5428 9.83245C16.5428 9.60807 16.5428 9.38677 16.5428 9.06095Z" fill="white"/>
<path d="M23.769 8.6737C23.769 8.4401 23.769 8.20035 23.769 7.86224C25.1461 7.77618 26.5323 7.6809 27.9155 7.62557C28.0353 7.62249 28.2567 7.89605 28.272 8.05896C28.3212 8.52309 28.2905 8.99644 28.2905 9.53434C28.8284 9.0487 29.2802 8.58457 29.7874 8.1942C30.5804 7.58254 31.4871 7.29053 32.4984 7.4811C33.2207 7.61942 33.6818 8.08662 33.8201 8.78128C33.9707 9.53434 34.0014 10.3243 33.3313 10.8929C32.8549 11.2986 32.2863 11.2187 31.7576 10.9944C31.232 10.77 30.9892 10.3335 31.0414 9.75565C31.063 9.5159 31.0998 9.27615 31.1367 8.99337C30.4451 8.89808 29.9134 9.20238 29.4277 9.56815C28.6808 10.1276 28.2136 10.7853 28.2628 11.8458C28.3581 13.9174 28.2905 15.9953 28.2905 18.0731C28.2905 19.4655 28.5948 19.8036 29.9749 19.9604C30.2177 19.988 30.4605 20.0188 30.7402 20.0556C30.7402 20.3384 30.7402 20.5935 30.7402 20.8917C28.4687 20.8917 26.2034 20.8917 23.9074 20.8917C23.9074 20.612 23.9074 20.3538 23.9074 20.0679C24.0826 20.0341 24.2424 19.9942 24.4022 19.9757C25.4842 19.8528 25.8223 19.4809 25.8254 18.3743C25.8315 16.0322 25.8284 13.6869 25.8284 11.3448C25.8315 9.36836 25.6563 9.14398 23.769 8.6737Z" fill="white"/>
<path d="M145.881 8.99943C144.406 8.9441 143.011 10.2627 143.011 11.6336C143.011 13.7698 143.044 15.9091 142.998 18.0453C142.964 19.5884 143.472 19.7359 144.738 19.9603C144.919 19.991 145.104 20.0033 145.288 20.031C145.347 20.0402 145.399 20.0771 145.485 20.1109C145.485 20.3445 145.485 20.5842 145.485 20.8793C143.213 20.8793 140.951 20.8793 138.643 20.8793C138.643 20.6303 138.643 20.3752 138.643 20.0617C138.87 20.0279 139.107 19.9941 139.347 19.9603C140.124 19.8558 140.542 19.4377 140.545 18.657C140.561 15.9245 140.564 13.1889 140.542 10.4564C140.536 9.54655 140.044 9.02094 139.159 8.83037C138.959 8.78734 138.756 8.75046 138.514 8.70128C138.514 8.45231 138.514 8.20026 138.514 7.86216C139.875 7.77609 141.24 7.67773 142.608 7.62548C142.737 7.61933 142.974 7.90826 142.995 8.08039C143.05 8.53837 143.014 9.00865 143.014 9.56192C143.53 9.07934 143.948 8.6398 144.421 8.26481C145.224 7.63163 146.13 7.29659 147.172 7.46872C147.928 7.59167 148.377 8.06809 148.565 8.77505C148.768 9.54962 148.694 10.2965 148.079 10.8867C147.704 11.2463 146.914 11.2555 146.398 10.942C145.887 10.6316 145.672 10.1797 145.789 9.58343C145.817 9.40823 145.841 9.22688 145.881 8.99943Z" fill="white"/>
<path d="M105.056 8.71663C105.056 8.43999 105.056 8.19717 105.056 7.86214C106.516 7.77607 107.982 7.68386 109.448 7.61009C109.891 7.58858 109.839 7.93283 109.839 8.21868C109.839 10.0045 109.839 11.7934 109.839 13.5792C109.839 15.1192 109.839 16.6591 109.839 18.199C109.839 19.3148 110.094 19.7236 111.173 19.9172C111.828 20.034 111.867 20.3383 111.729 20.8885C109.657 20.8885 107.58 20.8885 105.456 20.8885C105.456 20.6272 105.456 20.3721 105.456 20.0617C105.668 20.0309 105.886 19.991 106.104 19.9664C106.956 19.868 107.361 19.4469 107.365 18.5986C107.374 15.9275 107.374 13.2596 107.365 10.5885C107.361 9.68792 106.839 9.08854 105.904 8.87339C105.631 8.80884 105.348 8.76888 105.056 8.71663Z" fill="white"/>
<path d="M149.748 21.1805C148.758 21.1959 147.932 20.409 147.898 19.4224C147.864 18.4418 148.712 17.5535 149.702 17.532C150.676 17.5136 151.546 18.3804 151.549 19.3732C151.549 20.3475 150.738 21.1651 149.748 21.1805Z" fill="white"/>
<path d="M110.097 2.40329C110.097 3.42376 109.31 4.28132 108.376 4.27825C107.484 4.27517 106.722 3.44527 106.722 2.48013C106.725 1.45351 107.463 0.66664 108.41 0.675861C109.393 0.685083 110.097 1.4074 110.097 2.40329Z" fill="white"/>
<path d="M99.8002 29.7041C99.9908 28.868 100.188 28.0688 100.347 27.2605C100.424 26.8732 100.209 26.6365 99.831 26.5504C99.6127 26.5013 99.3914 26.4674 99.0164 26.3967C99.2039 26.24 99.3146 26.0679 99.4345 26.0586C100.209 25.9972 100.984 25.9726 101.829 25.9326C101.521 27.2697 101.229 28.5391 100.937 29.8116C100.618 31.2102 100.298 32.6087 99.9846 34.0072C99.957 34.124 99.9478 34.247 99.9385 34.3669C99.8986 34.9785 100.071 35.1507 100.679 35.123C100.833 35.1169 100.987 35.0984 101.14 35.0861C101.131 35.4857 100.873 35.6548 100.095 35.7992C99.2347 35.959 98.9058 35.7777 98.5584 34.9447C98.3095 35.1322 98.0728 35.3228 97.8238 35.4949C96.4806 36.4017 95.1067 35.8791 94.7009 34.3177C94.2553 32.5933 95.2542 30.4387 96.8525 29.661C97.6947 29.2522 98.5492 29.2522 99.416 29.5719C99.5267 29.6118 99.6373 29.6487 99.8002 29.7041ZM95.9089 33.5769C95.9304 33.7491 95.8966 34.1087 96.0288 34.3884C96.1702 34.6896 96.4222 35.0308 96.7111 35.1537C97.3874 35.4396 98.6445 34.6896 98.8166 33.9704C99.0533 32.9776 99.2838 31.9847 99.499 30.9889C99.5328 30.8352 99.5021 30.6415 99.4345 30.4971C99.0134 29.6211 97.913 29.5227 97.1199 30.3034C96.2562 31.1579 95.9458 32.2399 95.9089 33.5769Z" fill="#C8CDE3"/>
<path d="M192.294 29.7225C192.479 28.9172 192.66 28.1795 192.817 27.4387C192.937 26.8762 192.774 26.6457 192.202 26.5197C192.021 26.4797 191.833 26.4551 191.516 26.4029C191.701 26.24 191.802 26.0709 191.916 26.0617C192.691 26.0002 193.465 25.9726 194.314 25.9326C194.264 26.1816 194.234 26.3752 194.191 26.5689C193.625 29.0278 193.059 31.4868 192.494 33.9458C192.479 34.0134 192.466 34.081 192.457 34.1517C192.34 35.0001 192.506 35.1753 193.367 35.1107C193.468 35.1046 193.57 35.1107 193.733 35.1107C193.517 35.7531 192.946 35.7193 192.506 35.8054C191.686 35.9683 191.449 35.7992 191.052 34.9785C190.696 35.2183 190.361 35.498 189.977 35.6886C188.741 36.3033 187.604 35.7716 187.235 34.4437C186.715 32.5688 187.745 30.3526 189.516 29.5903C190.428 29.1938 191.338 29.286 192.294 29.7225ZM188.403 33.58C188.424 33.7552 188.4 34.1087 188.529 34.3976C188.658 34.6896 188.892 35.0154 189.165 35.1476C189.835 35.4642 191.145 34.7142 191.317 33.9734C191.55 32.9806 191.784 31.9878 191.999 30.9919C192.033 30.8383 192.002 30.6446 191.931 30.5032C191.501 29.6272 190.407 29.5319 189.617 30.3157C188.753 31.161 188.44 32.2429 188.403 33.58Z" fill="#C8CDE3"/>
<path d="M17.9013 29.4765C17.3111 31.7757 16.8531 34.0195 16.14 36.1772C15.5314 38.0215 13.9854 38.793 12.0612 38.5255C11.8123 38.4917 11.5541 38.3934 11.342 38.2581C10.9916 38.0337 10.9455 37.4958 11.2098 37.2038C11.4711 36.9149 11.8491 36.9211 12.1657 37.2407C12.2979 37.3729 12.4332 37.5327 12.4885 37.7049C12.6514 38.212 13.0233 38.2458 13.3829 38.043C13.8071 37.8032 14.2866 37.5297 14.5386 37.1362C14.9567 36.4846 15.2149 35.7254 15.5376 35.0123C15.4853 34.9816 15.4331 34.9508 15.3808 34.917C15.0981 35.1014 14.8368 35.3443 14.5294 35.4518C14.0192 35.6332 13.4751 35.8391 12.9465 35.833C12.0612 35.8238 11.6309 35.0922 11.8491 34.1086C12.0428 33.2295 12.2641 32.3597 12.47 31.4837C12.4854 31.4161 12.5069 31.3515 12.5192 31.2808C12.6944 30.2296 12.553 30.079 11.508 30.1989C11.4619 30.205 11.4096 30.1835 11.3512 30.1712C11.3574 30.1128 11.3451 30.0575 11.3666 30.0175C11.5664 29.6241 12.7497 29.2983 13.303 29.4765C13.7887 29.6333 13.9792 30.0728 13.8225 30.7767C13.6042 31.7542 13.343 32.7255 13.1186 33.6998C13.0172 34.1424 12.8942 34.7018 13.3522 34.9262C13.6995 35.0984 14.2313 35.0522 14.6247 34.9293C15.2149 34.7449 15.6267 34.3391 15.7466 33.6414C15.9525 32.4488 16.2722 31.2777 16.4904 30.0882C16.5796 29.5903 16.7886 29.3997 17.2742 29.4642C17.4249 29.4919 17.5816 29.4765 17.9013 29.4765Z" fill="#C8CDE3"/>
<path d="M122.853 34.997C122.122 35.3013 121.498 35.6702 120.828 35.8085C119.635 36.0544 118.968 35.3167 119.217 34.1118C119.398 33.2327 119.626 32.3628 119.832 31.4868C120.118 30.2696 120.007 30.1406 118.734 30.1774C118.725 30.1498 118.701 30.1129 118.71 30.0914C118.913 29.6518 120.038 29.2922 120.643 29.4705C121.141 29.618 121.341 30.033 121.184 30.7522C120.975 31.7143 120.711 32.6641 120.499 33.6231C120.394 34.0933 120.247 34.6343 120.729 34.9632C121.209 35.2921 121.737 35.1015 122.205 34.8525C122.672 34.6036 123.004 34.2685 123.102 33.6753C123.29 32.5688 123.578 31.4807 123.815 30.3834C124.036 29.3691 124.033 29.366 125.165 29.5166C124.891 30.783 124.639 32.0493 124.335 33.3003C124.089 34.3054 123.861 35.3259 123.474 36.2787C122.761 38.0308 121.221 38.8207 119.368 38.5195C119.3 38.5072 119.232 38.4887 119.168 38.4703C118.762 38.3504 118.375 38.1568 118.433 37.6773C118.464 37.4406 118.685 37.1086 118.894 37.038C119.352 36.8812 119.601 37.2623 119.81 37.6158C120.154 38.1998 120.37 38.3258 120.941 37.9601C121.418 37.6558 121.863 37.2193 122.162 36.7429C122.487 36.2173 122.632 35.5779 122.853 34.997Z" fill="#C8CDE3"/>
<path d="M8.24672 29.541C8.2836 30.0051 8.1207 30.1189 7.76722 30.122C6.6238 30.1281 6.61766 30.1373 6.36868 31.2654C6.05824 32.6639 5.77853 34.0717 5.44657 35.4671C5.11461 36.8564 4.36155 37.9415 2.96609 38.4333C2.60954 38.5593 2.18537 38.547 1.79501 38.5162C1.47227 38.4917 1.17105 38.2919 1.21408 37.9138C1.24174 37.6679 1.38006 37.2652 1.52145 37.2407C1.79501 37.1915 2.10853 37.3636 2.4036 37.4466C2.43127 37.4558 2.44663 37.4989 2.47122 37.5234C2.97224 38.1351 3.28883 38.1505 3.60542 37.3943C3.98964 36.4784 4.23553 35.5009 4.46913 34.5327C4.79187 33.1895 5.05314 31.8309 5.33592 30.4785C5.35744 30.3801 5.34821 30.2756 5.35436 30.1189C4.9763 30.1189 4.62282 30.1189 4.26627 30.1189C4.18328 29.7224 4.28471 29.541 4.66892 29.5656C4.94248 29.5841 5.21912 29.5687 5.37588 29.5687C5.75702 28.7449 6.02136 27.9519 6.46704 27.2757C7.02953 26.4181 7.86251 25.8802 8.95675 25.954C9.17191 25.9694 9.41166 26.0278 9.58686 26.1476C9.93111 26.3782 9.94956 26.7439 9.74976 27.0667C9.53153 27.4232 9.1842 27.4386 8.84917 27.2142C8.71085 27.122 8.59712 26.9806 8.49262 26.8454C8.14836 26.3874 7.89632 26.3413 7.63505 26.8546C7.29387 27.5216 7.09101 28.2624 6.84204 28.9724C6.78671 29.1322 6.78364 29.3074 6.74368 29.5472C7.25084 29.541 7.73956 29.541 8.24672 29.541Z" fill="#C8CDE3"/>
<path d="M58.1238 35.0615C58.0223 35.249 57.9854 35.4181 57.9148 35.4335C57.3 35.5718 56.6822 35.7654 56.0613 35.7746C55.6095 35.7808 55.3851 35.3382 55.4681 34.8986C55.6248 34.0687 55.8523 33.2542 56.0306 32.4274C56.1412 31.9048 56.2642 31.3792 56.2888 30.8506C56.3134 30.3342 56.0213 30.1067 55.5019 30.1067C54.6874 30.1036 53.8021 30.8198 53.6269 31.6098C53.3657 32.7901 53.0767 33.9673 52.8431 35.1537C52.754 35.6117 52.5757 35.8269 52.0962 35.7439C51.9302 35.7162 51.755 35.7378 51.5153 35.7378C51.7858 34.539 52.0501 33.3894 52.3052 32.2368C52.4036 31.7973 52.5142 31.3577 52.5604 30.9151C52.6341 30.2174 52.4251 30.0514 51.7151 30.1651C51.6137 30.1805 51.5153 30.1928 51.4077 30.2082C51.4385 29.7778 51.7796 29.575 52.6526 29.452C53.3718 29.3506 53.6146 29.5258 53.9251 30.4049C54.1956 30.2174 54.4568 30.036 54.715 29.8547C55.213 29.5074 55.7539 29.3229 56.3718 29.3567C57.1002 29.3967 57.592 29.8485 57.5459 30.5862C57.5059 31.201 57.3461 31.8096 57.2139 32.4151C57.091 32.9714 56.9281 33.5185 56.7959 34.0749C56.5869 34.954 56.8051 35.1968 57.6996 35.1076C57.7949 35.0923 57.8963 35.0831 58.1238 35.0615Z" fill="#C8CDE3"/>
<path d="M165.498 30.0881C165.642 29.9682 165.771 29.8299 165.931 29.7377C166.078 29.6516 166.254 29.6178 166.417 29.5594C166.89 29.3934 167.379 29.2951 167.797 29.6486C168.224 30.0082 168.076 30.5184 167.987 30.9641C167.806 31.8432 167.56 32.71 167.373 33.5891C167.265 34.0901 167.081 34.6741 167.618 35.0183C168.156 35.3657 168.682 35.0614 169.168 34.7724C169.555 34.5419 169.782 34.2192 169.878 33.7489C170.117 32.5471 170.44 31.3575 170.674 30.1526C170.775 29.6301 170.981 29.3873 171.522 29.4672C171.654 29.4887 171.793 29.4703 172.017 29.4703C171.857 30.208 171.71 30.9057 171.553 31.6034C171.374 32.3965 171.178 33.1864 171.009 33.9794C170.797 34.9784 170.956 35.1597 171.968 35.0982C172.035 35.0952 172.103 35.1044 172.247 35.1136C171.949 35.7222 171.384 35.7222 170.904 35.8052C170.176 35.9312 169.911 35.7284 169.607 35.0153C168.974 35.298 168.365 35.6546 167.708 35.8513C166.724 36.1464 165.971 35.5532 166.075 34.5358C166.171 33.6136 166.435 32.7069 166.626 31.794C166.644 31.7079 166.669 31.628 166.687 31.542C166.911 30.3371 166.954 29.9805 165.498 30.0881Z" fill="#C8CDE3"/>
<path d="M25.4749 29.9561C25.6285 29.8885 25.7822 29.8209 25.939 29.7594C26.148 29.6764 26.357 29.5903 26.5691 29.5227C27.7279 29.1569 28.3365 29.7102 28.0691 30.8936C27.8693 31.788 27.6418 32.6763 27.4451 33.5708C27.3344 34.0749 27.1531 34.6497 27.6726 35.0062C28.2043 35.375 28.733 35.0677 29.2156 34.7849C29.5998 34.5574 29.8364 34.2501 29.9287 33.7706C30.1561 32.5841 30.485 31.4161 30.7217 30.2297C30.8354 29.6579 31.069 29.3659 31.6745 29.4705C31.7913 29.492 31.9112 29.4858 32.0895 29.4981C31.9204 30.2481 31.7637 30.9673 31.5977 31.6866C31.4133 32.495 31.2073 33.3003 31.0444 34.1118C30.8723 34.9785 31.069 35.1783 31.9512 35.1107C32.0526 35.1046 32.154 35.1107 32.3354 35.1107C32.0434 35.7408 31.4624 35.7193 30.9891 35.8084C30.2514 35.9468 29.984 35.7347 29.6858 35.0216C29.0465 35.3044 28.4287 35.6609 27.7648 35.8576C26.7904 36.1465 26.025 35.5318 26.1388 34.5298C26.2464 33.5923 26.5168 32.6702 26.7136 31.7419C26.775 31.4561 26.8519 31.1671 26.8703 30.8782C26.9133 30.2112 26.7136 30.0514 26.0312 30.162C25.9175 30.1805 25.8007 30.1958 25.6869 30.2112C25.6162 30.1252 25.5455 30.0422 25.4749 29.9561Z" fill="#C8CDE3"/>
<path d="M139.451 29.5041C139.119 30.9642 138.796 32.3934 138.471 33.8227C138.449 33.9241 138.418 34.0225 138.4 34.1239C138.246 34.96 138.437 35.1751 139.27 35.1106C139.386 35.1014 139.506 35.1106 139.706 35.1106C139.39 35.7499 138.79 35.7253 138.298 35.8083C137.57 35.9313 137.309 35.713 137.047 35.0153C136.414 35.2981 135.799 35.6546 135.136 35.8544C134.121 36.1556 133.344 35.4917 133.488 34.4436C133.614 33.5399 133.872 32.6578 134.066 31.7633C134.127 31.4775 134.204 31.1885 134.229 30.8996C134.284 30.2326 134.072 30.0513 133.411 30.1588C133.294 30.1773 133.181 30.1957 132.941 30.2326C133.055 30.0359 133.098 29.8484 133.193 29.8177C133.648 29.664 134.109 29.4673 134.579 29.4396C135.332 29.3966 135.652 29.9498 135.455 30.8289C135.252 31.7234 135.04 32.6117 134.831 33.503C134.813 33.586 134.785 33.669 134.77 33.7551C134.687 34.2038 134.598 34.6803 135.016 35.003C135.446 35.335 135.916 35.1383 136.337 34.9292C136.826 34.6864 137.189 34.3668 137.303 33.7489C137.518 32.5594 137.868 31.3976 138.096 30.2111C138.209 29.6148 138.48 29.3812 139.064 29.4734C139.171 29.4888 139.291 29.4919 139.451 29.5041Z" fill="#C8CDE3"/>
<path d="M84.3733 35.08C84.2104 35.2798 84.1366 35.4612 84.0198 35.4981C83.5772 35.6364 83.1253 35.7901 82.6674 35.8177C81.9082 35.8669 81.5424 35.4058 81.7114 34.6528C81.9235 33.7092 82.1786 32.7747 82.4153 31.8342C82.4399 31.7328 82.4706 31.6344 82.4922 31.533C82.5936 31.0658 82.6889 30.5648 82.237 30.2451C81.7883 29.9285 81.3026 30.1037 80.8692 30.3527C80.3467 30.6539 79.9348 31.0227 79.8365 31.6897C79.735 32.3721 79.526 33.036 79.3693 33.7092C79.2187 34.3639 79.0742 35.0216 78.9205 35.7009C78.5394 35.7009 78.1828 35.7009 77.7525 35.7009C77.9308 34.8987 78.1029 34.1149 78.2781 33.3311C78.441 32.6057 78.6131 31.8834 78.7607 31.1549C78.9451 30.2512 78.733 30.033 77.8416 30.1805C77.7771 30.1898 77.7095 30.1898 77.6418 30.1928C77.6603 29.7717 78.0138 29.5627 78.8898 29.4459C79.6152 29.3476 79.8641 29.5351 80.1377 30.4172C80.3959 30.2328 80.6418 30.0576 80.8877 29.8824C81.444 29.4859 82.0526 29.2861 82.7411 29.366C83.2852 29.4275 83.7124 29.7748 83.7339 30.3219C83.7524 30.8322 83.6725 31.3516 83.5649 31.8557C83.4081 32.5995 83.1561 33.3219 83.0116 34.0688C82.8303 34.994 83.0362 35.1876 83.9798 35.1015C84.069 35.0893 84.152 35.0893 84.3733 35.08Z" fill="#C8CDE3"/>
<path d="M22.2107 29.3567C23.7168 29.3506 24.5528 30.0452 24.7373 31.4192C25.0323 33.62 23.4279 35.999 21.0211 35.9468C19.7978 35.9191 18.9187 35.1998 18.7097 33.995C18.3901 32.1569 19.4413 30.2327 21.1287 29.5688C21.3039 29.4981 21.4853 29.4366 21.6697 29.4028C21.891 29.366 22.1185 29.3629 22.2107 29.3567ZM23.5016 31.8095C23.4863 31.5329 23.4863 31.2532 23.4494 30.9796C23.3111 29.9561 22.4689 29.4858 21.556 29.9592C21.2486 30.119 20.9412 30.3772 20.7568 30.6661C20.0253 31.8218 19.7732 33.0944 20.0314 34.4406C20.2005 35.3228 20.8675 35.7285 21.6881 35.3781C22.1154 35.1968 22.5211 34.8187 22.7885 34.4253C23.3172 33.6568 23.474 32.744 23.5016 31.8095Z" fill="#C8CDE3"/>
<path d="M126.031 33.3463C126.047 31.5973 127.03 30.0451 128.561 29.541C130.331 28.957 132.059 29.584 132.132 31.7541C132.179 33.1188 131.681 34.296 130.608 35.1843C129.833 35.8298 128.917 36.045 127.937 35.9159C126.741 35.7591 126.019 34.7571 126.031 33.3463ZM130.854 31.8125C130.838 31.5358 130.845 31.2561 130.808 30.9826C130.669 29.959 129.83 29.498 128.911 29.959C128.644 30.0943 128.37 30.2971 128.204 30.543C127.377 31.7572 127.11 33.1096 127.417 34.545C127.583 35.3227 128.186 35.6239 128.954 35.4333C129.501 35.2981 129.858 34.9446 130.131 34.4866C130.626 33.6659 130.838 32.7653 130.854 31.8125Z" fill="#C8CDE3"/>
<path d="M158.705 33.3004C158.72 31.5514 159.704 29.9992 161.234 29.4951C163.005 28.9111 164.732 29.5381 164.806 31.7082C164.852 33.0729 164.354 34.2501 163.282 35.1384C162.507 35.7839 161.591 35.9991 160.61 35.87C159.412 35.7132 158.692 34.7112 158.705 33.3004ZM163.527 31.7666C163.512 31.4899 163.518 31.2102 163.481 30.9367C163.343 29.9131 162.504 29.4521 161.585 29.9131C161.317 30.0484 161.044 30.2512 160.878 30.4971C160.051 31.7113 159.784 33.0637 160.091 34.4991C160.257 35.2768 160.859 35.578 161.628 35.3874C162.175 35.2522 162.532 34.8987 162.805 34.4407C163.3 33.62 163.512 32.7194 163.527 31.7666Z" fill="#C8CDE3"/>
<path d="M58.8739 33.3126C58.9046 31.5759 59.8667 30.0667 61.3851 29.5473C63.1341 28.951 64.8646 29.5811 64.9598 31.6835C64.9844 32.2245 64.8984 32.7993 64.7232 33.3095C64.2836 34.5882 63.4537 35.5011 62.0829 35.8453C60.2079 36.3156 58.8401 35.2459 58.8739 33.3126ZM63.6566 31.7573C63.6566 31.5145 63.6812 31.2686 63.6535 31.0319C63.5121 29.9069 62.5869 29.4489 61.6095 30.0268C61.3913 30.1559 61.1792 30.3342 61.0378 30.5401C60.1987 31.7788 59.9589 33.1466 60.2724 34.5974C60.4261 35.3043 61.0347 35.6056 61.7509 35.4427C62.2796 35.3228 62.6453 35.0062 62.922 34.5697C63.4629 33.7122 63.6873 32.7655 63.6566 31.7573Z" fill="#C8CDE3"/>
<path d="M43.2439 33.1558C43.0964 34.0779 43.3915 34.8064 44.0154 35.0984C44.8023 35.4672 45.7459 35.083 46.6803 33.9918C46.791 34.0656 46.9047 34.1424 47.0154 34.2193C46.2869 35.5164 44.7193 36.2018 43.4222 35.8361C42.6907 35.6301 42.2388 35.1691 42.0329 34.4375C41.5073 32.581 42.5431 30.2757 44.3197 29.6057C44.9037 29.3843 45.6076 29.3936 46.2469 29.4366C46.7602 29.4704 47.1844 29.8054 47.2951 30.3741C47.4211 31.0226 47.2244 31.582 46.7234 32.0062C45.9826 32.6333 45.0543 32.8115 44.1445 33.0144C43.8587 33.0759 43.5667 33.1035 43.2439 33.1558ZM43.1917 32.7992C43.8925 32.6025 44.5011 32.4949 45.0513 32.249C45.3863 32.0984 45.6937 31.7818 45.9027 31.4683C46.2838 30.8997 46.2469 30.2081 45.915 29.9407C45.5554 29.6518 44.8761 29.7778 44.3658 30.2481C43.6773 30.8874 43.3546 31.7019 43.1917 32.7992Z" fill="#C8CDE3"/>
<path d="M103.421 33.1558C103.271 34.0717 103.569 34.8063 104.193 35.0983C104.979 35.4703 105.935 35.0799 106.854 33.9887C106.965 34.0625 107.079 34.1393 107.189 34.2162C106.479 35.5194 104.869 36.2172 103.55 35.8237C102.865 35.6178 102.425 35.1783 102.222 34.4898C101.666 32.6148 102.699 30.2849 104.494 29.6056C105.078 29.3843 105.782 29.3935 106.421 29.4335C106.91 29.4642 107.334 29.7747 107.457 30.3218C107.608 30.9888 107.417 31.5667 106.901 32.0062C106.16 32.6363 105.232 32.8115 104.322 33.0174C104.036 33.0758 103.744 33.1035 103.421 33.1558ZM103.372 32.7254C104.282 32.5902 105.13 32.5041 105.769 31.8894C106.015 31.6527 106.181 31.2931 106.28 30.9611C106.384 30.6077 106.47 30.1159 106.052 29.9499C105.733 29.8239 105.247 29.8392 104.949 30.0021C103.919 30.5523 103.581 31.5574 103.372 32.7254Z" fill="#C8CDE3"/>
<path d="M150.584 33.1619C150.483 34.1578 150.772 34.8279 151.402 35.1107C152.192 35.4641 153.117 35.0738 154.146 33.8658C154.196 34.1363 154.306 34.3484 154.245 34.456C153.679 35.4303 152.152 36.1127 151.061 35.9129C150 35.7193 149.425 35.0615 149.305 33.9027C149.118 32.0861 150.058 30.2296 151.608 29.6302C152.207 29.3997 152.926 29.3936 153.581 29.4274C154.088 29.455 154.531 29.7686 154.644 30.3464C154.777 31.0134 154.592 31.5882 154.064 32.0216C153.317 32.6394 152.391 32.8177 151.479 33.0175C151.193 33.0789 150.901 33.1097 150.584 33.1619ZM150.541 32.79C151.214 32.6087 151.792 32.5103 152.318 32.289C152.662 32.1445 152.991 31.8618 153.215 31.5575C153.63 31.0011 153.618 30.2112 153.274 29.9407C152.899 29.6456 152.207 29.7932 151.688 30.288C151.021 30.9212 150.722 31.7296 150.541 32.79Z" fill="#C8CDE3"/>
<path d="M195.915 33.1588C195.761 34.0687 196.063 34.8033 196.69 35.0983C197.48 35.4672 198.368 35.0983 199.459 33.8842C199.514 34.124 199.637 34.3453 199.576 34.4314C198.841 35.4549 197.56 36.1772 196.25 35.8729C195.236 35.6362 194.741 35.0399 194.627 33.9795C194.418 32.0677 195.371 30.205 196.994 29.6026C197.581 29.3843 198.282 29.3905 198.921 29.4304C199.407 29.4612 199.837 29.7685 199.954 30.3187C200.095 30.9827 199.92 31.5636 199.401 32.0031C198.66 32.6302 197.732 32.8084 196.822 33.0113C196.518 33.0789 196.21 33.1127 195.915 33.1588ZM195.86 32.7869C196.527 32.6056 197.111 32.5195 197.627 32.2859C197.996 32.1199 198.34 31.8033 198.577 31.4683C198.955 30.9427 198.915 30.1989 198.592 29.9407C198.233 29.6517 197.547 29.7808 197.043 30.245C196.355 30.8843 196.038 31.705 195.86 32.7869Z" fill="#C8CDE3"/>
<path d="M88.1047 29.2644C88.6272 29.3904 89.0514 29.4611 89.4541 29.5964C89.8321 29.7255 90.0965 30.0328 89.9612 30.4355C89.8844 30.666 89.6201 30.9427 89.3926 30.9949C89.0176 31.0779 88.7195 30.7951 88.6303 30.4355C88.5012 29.9191 88.24 29.7039 87.7082 29.7962C87.1611 29.8914 86.7584 30.2541 86.697 30.7613C86.6509 31.1547 86.7615 31.4959 87.1303 31.6834C87.5299 31.8863 87.9449 32.0615 88.3537 32.2398C89.0053 32.5256 89.5371 32.9067 89.5647 33.7028C89.5955 34.5819 89.1559 35.2059 88.4182 35.587C87.4162 36.1034 86.3804 36.0481 85.3691 35.5778C85.2031 35.501 85.0525 35.3596 84.9357 35.212C84.6652 34.8708 84.7359 34.3729 85.0679 34.1547C85.3968 33.9364 85.7933 34.044 86.0423 34.4313C86.1068 34.5327 86.1867 34.6403 86.2052 34.754C86.3035 35.3503 86.7246 35.4948 87.2318 35.4764C87.9449 35.4518 88.3414 35.1229 88.4643 34.5112C88.5719 33.9795 88.3998 33.6168 87.8465 33.334C87.4807 33.1465 87.0812 33.0205 86.7062 32.8422C86.0945 32.5533 85.6365 32.1199 85.615 31.3914C85.5935 30.6138 86.0084 30.0574 86.6601 29.7255C87.1211 29.4949 87.659 29.4027 88.1047 29.2644Z" fill="#C8CDE3"/>
<path d="M179.437 36.0173C178.936 35.8913 178.46 35.8083 178.014 35.6392C177.771 35.547 177.531 35.3442 177.39 35.129C177.169 34.7909 177.209 34.4098 177.571 34.17C177.934 33.9303 178.269 34.0471 178.512 34.3944C178.601 34.5204 178.69 34.6618 178.718 34.8093C178.828 35.3872 179.253 35.4948 179.729 35.4825C180.408 35.464 180.802 35.1628 180.937 34.6218C181.081 34.0532 180.94 33.6813 180.439 33.3893C180.218 33.2602 179.966 33.1772 179.732 33.0727C179.449 32.9436 179.151 32.8391 178.89 32.6731C177.974 32.086 177.848 30.9795 178.592 30.1742C179.357 29.3412 180.912 29.0769 181.96 29.5933C182.32 29.7715 182.597 30.042 182.462 30.4447C182.385 30.6752 182.117 30.9518 181.89 31.001C181.515 31.084 181.229 30.7951 181.128 30.4385C180.995 29.9775 180.786 29.7131 180.255 29.7961C179.729 29.8791 179.317 30.1926 179.21 30.6691C179.111 31.1024 179.225 31.4744 179.631 31.6895C180.027 31.8985 180.442 32.0676 180.854 32.2489C181.521 32.544 182.062 32.9405 182.068 33.7643C182.071 34.6649 181.601 35.2796 180.823 35.6362C180.393 35.8267 179.904 35.8913 179.437 36.0173Z" fill="#C8CDE3"/>
<path d="M67.2342 30.1127C66.8407 30.1127 66.5334 30.1127 66.2291 30.1127C66.1799 29.5779 66.186 29.5225 66.6348 29.5779C67.2557 29.6578 67.5016 29.4027 67.5692 28.8187C67.6122 28.4621 67.7352 28.1148 67.8305 27.7336C68.1932 27.7336 68.5466 27.7336 68.9493 27.7336C68.8233 28.3269 68.6973 28.9078 68.562 29.5471C69.146 29.5471 69.6901 29.5471 70.2894 29.5471C70.2495 29.7654 70.2218 29.919 70.188 30.1096C69.6993 30.1096 69.229 30.082 68.768 30.125C68.6204 30.1373 68.3991 30.3094 68.3653 30.4447C68.0671 31.6157 67.7813 32.7899 67.5354 33.9733C67.3356 34.9415 67.6676 35.2612 68.6481 35.1136C68.8018 35.089 68.9554 35.0706 69.2843 35.0245C69.1214 35.255 69.0446 35.4855 68.9216 35.5163C68.3223 35.6577 67.7137 35.8267 67.1051 35.8267C66.3797 35.8267 66.0846 35.4056 66.2106 34.6802C66.3582 33.8472 66.5672 33.0266 66.7547 32.1997C66.9053 31.5297 67.062 30.8596 67.2342 30.1127Z" fill="#C8CDE3"/>
<path d="M175.032 27.7246C175.41 27.7246 175.752 27.7246 176.151 27.7246C176.022 28.3332 175.899 28.9111 175.764 29.5535C176.363 29.5535 176.895 29.5535 177.454 29.5535C177.473 29.9469 177.381 30.1344 176.981 30.1221C176.535 30.1067 175.957 29.9869 175.681 30.2112C175.401 30.4387 175.413 31.0319 175.309 31.4684C175.118 32.2737 174.922 33.0821 174.756 33.8935C174.534 34.9847 174.82 35.2767 175.905 35.1138C176.037 35.0923 176.173 35.08 176.483 35.04C176.296 35.2829 176.21 35.5103 176.08 35.541C175.496 35.6763 174.903 35.8392 174.313 35.8361C173.6 35.8331 173.299 35.4488 173.422 34.7419C173.609 33.6538 173.88 32.578 174.116 31.4991C174.212 31.0627 174.31 30.6293 174.424 30.1313C174.03 30.1313 173.708 30.1313 173.363 30.1313C173.323 29.7225 173.449 29.5074 173.834 29.575C174.436 29.6795 174.719 29.4459 174.771 28.8373C174.802 28.4746 174.934 28.1273 175.032 27.7246Z" fill="#C8CDE3"/>
<path d="M38.5782 30.4971C38.8149 30.3004 39.027 30.1037 39.2637 29.9346C39.5157 29.7533 39.7739 29.5719 40.0536 29.4459C40.5515 29.2277 41.0925 29.3598 41.323 29.7041C41.5843 30.0975 41.529 30.8844 41.2093 31.2194C40.9357 31.5053 40.6007 31.5545 40.2626 31.3823C39.9153 31.2041 39.9276 30.8967 40.0536 30.574C40.112 30.4172 40.1489 30.2543 40.2011 30.0822C39.4266 30.0975 38.4706 30.8383 38.3077 31.533C38.1448 32.2215 37.9788 32.91 37.8221 33.6016C37.6653 34.2931 37.5147 34.9847 37.3549 35.704C36.986 35.704 36.6295 35.704 36.1899 35.704C36.359 34.9202 36.5188 34.1548 36.6879 33.3895C36.8539 32.6303 37.0383 31.8741 37.192 31.1119C37.361 30.2512 37.1397 30.0391 36.2699 30.1836C36.2053 30.1928 36.1377 30.1928 36.0701 30.199C36.0824 29.7779 36.4389 29.5689 37.3118 29.449C38.0526 29.3445 38.2801 29.5289 38.5782 30.4971Z" fill="#C8CDE3"/>
<path d="M143.41 30.2019C143.462 29.787 144.022 29.4888 144.799 29.4274C145.429 29.3782 145.663 29.5903 145.927 30.4939C146.244 30.2419 146.539 29.9899 146.856 29.7624C147.049 29.6241 147.264 29.495 147.489 29.4151C147.987 29.2399 148.488 29.3874 148.7 29.7347C148.952 30.1466 148.875 30.9304 148.549 31.2439C148.266 31.5175 147.928 31.5513 147.596 31.3638C147.28 31.1855 147.301 30.8904 147.412 30.5892C147.47 30.4294 147.513 30.2634 147.566 30.0974C146.871 30.0636 145.832 30.8198 145.681 31.4622C145.356 32.873 145.036 34.2838 144.71 35.71C144.317 35.71 143.96 35.71 143.548 35.71C143.69 35.0461 143.819 34.4098 143.963 33.7767C144.145 32.9683 144.347 32.163 144.52 31.3515C144.759 30.2296 144.578 30.036 143.41 30.2019Z" fill="#C8CDE3"/>
<path d="M76.6921 35.0921C76.5384 35.3042 76.48 35.4856 76.3786 35.5163C75.9022 35.6577 75.4165 35.8329 74.9309 35.8513C74.2362 35.879 73.8797 35.4241 74.0241 34.7233C74.2639 33.5583 74.5589 32.4057 74.8325 31.2469C74.8448 31.1977 74.8602 31.1455 74.8694 31.0963C75.02 30.2172 74.8663 30.0482 73.9719 30.1096C73.8889 30.1158 73.8028 30.1189 73.603 30.1312C73.7075 29.9498 73.7475 29.7685 73.8366 29.7408C74.31 29.5933 74.7864 29.4181 75.2751 29.3781C75.8899 29.3289 76.2249 29.6793 76.1603 30.3064C76.0927 30.9518 75.9145 31.5881 75.77 32.2274C75.6255 32.8668 75.438 33.4969 75.3059 34.1362C75.1307 34.9876 75.4534 35.2919 76.3202 35.1321C76.3847 35.1167 76.4524 35.1136 76.6921 35.0921Z" fill="#C8CDE3"/>
<path d="M186.248 35.1046C186.196 35.2645 186.193 35.3874 186.128 35.452C185.803 35.7778 184.521 35.9653 184.097 35.7593C183.593 35.5134 183.559 35.0677 183.654 34.6036C183.795 33.9274 183.977 33.2635 184.14 32.5903C184.263 32.0862 184.386 31.5852 184.496 31.0781C184.678 30.242 184.505 30.0484 183.648 30.1006C183.546 30.1068 183.445 30.1006 183.248 30.1006C183.328 29.95 183.362 29.7748 183.436 29.7533C183.995 29.6088 184.558 29.4213 185.126 29.3937C185.581 29.3722 185.855 29.7625 185.793 30.2113C185.686 30.9766 185.504 31.7328 185.338 32.4858C185.222 33.0237 185.071 33.5555 184.951 34.0964C184.757 34.9632 185.077 35.2829 185.965 35.1231C186.033 35.1138 186.101 35.1138 186.248 35.1046Z" fill="#C8CDE3"/>
<path d="M90.825 30.1189C90.8127 30.0206 90.7912 29.9806 90.8066 29.956C91.0033 29.5687 92.156 29.2306 92.7307 29.3874C93.1672 29.5073 93.4131 29.873 93.2902 30.5185C93.0873 31.6005 92.7922 32.667 92.5279 33.7397C92.2144 35.0153 92.3988 35.2428 93.782 35.1198C93.6652 35.292 93.6098 35.4856 93.5053 35.5164C93.0289 35.6577 92.5432 35.8329 92.0576 35.8483C91.3537 35.8698 91.0125 35.3965 91.157 34.6619C91.3045 33.918 91.5105 33.1865 91.6857 32.4488C91.7994 31.9785 91.9193 31.5113 92.0146 31.038C92.1713 30.2665 91.9808 30.0544 91.2062 30.1005C91.0863 30.1066 90.9695 30.1128 90.825 30.1189Z" fill="#C8CDE3"/>
<path d="M3.05527 35.0859C2.98764 35.2642 2.97535 35.4364 2.90465 35.4671C2.2684 35.7376 1.61677 36.0265 0.909817 35.7652C0.46413 35.5993 0.35655 35.1935 0.445688 34.7755C0.6547 33.7796 0.906744 32.7899 1.13112 31.7971C1.21104 31.4436 1.28788 31.0871 1.31247 30.7274C1.34628 30.1711 1.22026 30.0697 0.645479 30.0881C0.461056 30.0942 0.279707 30.1096 0 30.125C0.33196 29.4949 0.888302 29.4672 1.38009 29.3781C1.81041 29.3012 2.31758 29.2951 2.48663 29.8022C2.60036 30.1404 2.59114 30.5615 2.51737 30.918C2.3145 31.8801 2.04402 32.8298 1.80119 33.7827C1.76738 33.9149 1.73357 34.0501 1.71513 34.1854C1.59833 34.9907 1.9057 35.2857 2.70486 35.1351C2.78785 35.1228 2.87084 35.1136 3.05527 35.0859Z" fill="#C8CDE3"/>
<path d="M34.1643 29.4211C33.9799 29.1752 34.9665 28.4529 34.9942 27.8751C35.0127 27.5031 34.5393 27.2849 34.5639 26.9222C34.5916 26.5472 34.8221 26.286 35.2124 26.2153C35.8733 26.1077 36.1346 26.5226 36.236 26.9161C36.3067 27.1865 36.1315 27.8781 35.9071 28.1794C35.4061 28.8494 34.3518 29.667 34.1643 29.4211Z" fill="#C8CDE3"/>
<path d="M141.277 29.449C141.092 29.2031 142.079 28.4807 142.107 27.9029C142.125 27.531 141.652 27.3127 141.676 26.95C141.704 26.575 141.935 26.3138 142.325 26.2431C142.986 26.1355 143.247 26.5505 143.349 26.9439C143.419 27.2144 143.244 27.906 143.02 28.2072C142.519 28.8773 141.461 29.6949 141.277 29.449Z" fill="#C8CDE3"/>
<path d="M110.34 35.0124C110.346 35.4796 109.962 35.8608 109.482 35.87C109.003 35.8761 108.613 35.4981 108.613 35.0278C108.613 34.5637 109.009 34.1641 109.47 34.1641C109.934 34.161 110.334 34.5483 110.34 35.0124Z" fill="#C8CDE3"/>
<path d="M116.457 34.1641C116.936 34.1641 117.302 34.5329 117.308 35.0155C117.311 35.5011 116.955 35.8638 116.463 35.8669C115.965 35.87 115.621 35.5257 115.621 35.0216C115.624 34.5268 115.974 34.161 116.457 34.1641Z" fill="#C8CDE3"/>
<path d="M112.113 35.04C112.104 34.5605 112.473 34.1732 112.943 34.1609C113.423 34.1487 113.798 34.5113 113.813 34.9939C113.826 35.4919 113.487 35.8515 112.993 35.8638C112.507 35.8822 112.12 35.5165 112.113 35.04Z" fill="#C8CDE3"/>
<path d="M186.716 26.9777C186.7 27.4664 186.31 27.8568 185.858 27.8322C185.446 27.8107 185.102 27.4234 185.108 26.9869C185.114 26.532 185.489 26.1355 185.913 26.1355C186.359 26.1386 186.728 26.5228 186.716 26.9777Z" fill="white"/>
<path d="M77.0762 26.9438C77.0854 27.4325 76.7166 27.8382 76.2616 27.8352C75.8313 27.8321 75.5055 27.4878 75.4963 27.0268C75.4871 26.5381 75.8067 26.1569 76.2432 26.1416C76.7012 26.1231 77.067 26.4766 77.0762 26.9438Z" fill="white"/>
<path d="M3.4979 26.953C3.50097 27.4479 3.1352 27.8413 2.67722 27.8321C2.2469 27.8229 1.93031 27.4786 1.92416 27.0114C1.91801 26.5166 2.23768 26.1477 2.68029 26.1354C3.14442 26.1262 3.49482 26.4797 3.4979 26.953Z" fill="white"/>
<path d="M94.2154 26.9346C94.2277 27.3957 93.8803 27.8045 93.4531 27.8321C93.0105 27.8598 92.6293 27.4971 92.614 27.033C92.5955 26.575 92.9459 26.16 93.3701 26.1416C93.8219 26.117 94.2031 26.4735 94.2154 26.9346Z" fill="white"/>
</g>
<defs>
<clipPath id="clip0_962_18406">
<rect width="200" height="38.3568" fill="white" transform="translate(0 0.230225)"/>
</clipPath>
</defs>
</svg>
