<svg width="200" height="74" viewBox="0 0 200 74" fill="none" xmlns="http://www.w3.org/2000/svg">
<g clip-path="url(#clip0_962_18407)">
<path d="M87.7234 11.8132C87.7131 11.9425 87.6924 12.0718 87.6924 12.2012C87.6924 15.739 87.6924 19.2821 87.6924 22.82C87.6924 22.9596 87.7079 23.0941 87.7234 23.3062C87.8527 23.1872 87.9251 23.1252 87.9872 23.0528C90.0458 20.8442 92.6113 20.3838 95.4095 21.0614C98.0991 21.7131 99.6146 23.6165 100.282 26.2131C100.504 27.082 100.634 27.9923 100.644 28.8872C100.68 33.3612 100.665 37.8302 100.665 42.3042C100.665 42.3922 100.654 42.4749 100.644 42.6042C98.156 42.6042 95.6733 42.6042 93.144 42.6042C93.144 42.4129 93.144 42.2422 93.144 42.0715C93.144 38.4457 93.1544 34.8147 93.1337 31.1889C93.1285 30.6251 93.0664 30.0509 92.9216 29.5078C92.6526 28.4837 91.9647 27.8527 90.8889 27.7337C89.7613 27.6096 88.8458 27.982 88.251 28.9906C87.8217 29.7147 87.7182 30.5216 87.7182 31.3492C87.7182 34.9181 87.7182 38.487 87.7182 42.056C87.7182 42.2318 87.7182 42.4025 87.7182 42.6146C85.2148 42.6146 82.7476 42.6146 80.2028 42.6146C80.2028 42.4284 80.2028 42.2473 80.2028 42.0663C80.2028 32.1871 80.2028 22.3079 80.2028 12.4339C80.2028 12.2322 80.1976 12.0253 80.1976 11.8236C82.7062 11.8132 85.2148 11.8132 87.7234 11.8132Z" fill="white"/>
<path d="M170 11.8132C168.862 14.5391 167.724 17.2649 166.586 19.9959C165.102 23.57 163.617 27.1492 162.143 30.7337C162.014 31.0492 161.859 31.1733 161.507 31.1682C158.838 31.1526 156.169 31.1578 153.5 31.1578C153.371 31.1578 153.242 31.1423 153.05 31.132C153.123 30.9354 153.179 30.7802 153.247 30.6251C155.776 24.5165 158.31 18.4132 160.835 12.3046C160.902 12.1494 160.928 11.9787 160.974 11.8132C163.99 11.8132 166.995 11.8132 170 11.8132Z" fill="white"/>
<path d="M70.3857 23.2751C70.3857 22.5613 70.3857 21.9716 70.3857 21.3354C72.8115 21.3354 75.2063 21.3354 77.6167 21.3354C77.6167 28.4371 77.6167 35.5128 77.6167 42.6145C75.2115 42.6145 72.8271 42.6145 70.3805 42.6145C70.3805 41.9938 70.3805 41.3938 70.3805 40.7266C70.2616 40.8041 70.2099 40.8248 70.1788 40.861C68.4202 42.8317 66.134 43.4058 63.6306 43.1317C59.079 42.6352 55.6807 39.4386 54.7031 34.7215C53.8756 30.7336 54.6773 27.0922 57.429 24.0044C59.9893 21.1337 63.9927 20.0682 67.3857 21.2578C68.4513 21.6302 69.3823 22.2044 70.1426 23.0526C70.1892 23.1044 70.2461 23.1457 70.3857 23.2751ZM66.1134 36.3973C68.6013 36.4025 70.5357 34.4887 70.5512 32.0112C70.5667 29.5439 68.6323 27.594 66.1547 27.5784C63.6461 27.5629 61.6858 29.4819 61.6703 31.9749C61.6548 34.4577 63.5996 36.3921 66.1134 36.3973Z" fill="white"/>
<path d="M35.8396 50.5646C36.4034 49.2353 36.9206 48.0043 37.443 46.7681C37.9447 45.5888 38.4361 44.4043 38.9482 43.2302C39.0775 42.9354 39.0671 42.6974 38.943 42.4026C36.0465 35.5958 33.1603 28.7838 30.269 21.9718C30.1862 21.7753 30.1034 21.5735 30 21.3149C30.2121 21.3046 30.3672 21.2891 30.5224 21.2891C32.9017 21.2891 35.2758 21.2994 37.6551 21.2787C38.0482 21.2735 38.2085 21.4184 38.343 21.7649C39.8275 25.5925 41.3274 29.4148 42.8274 33.2424C42.8895 33.4027 42.9619 33.5631 43.0654 33.8165C43.1636 33.5941 43.236 33.4544 43.2878 33.3148C44.8084 29.4665 46.3343 25.6235 47.8394 21.7701C47.9843 21.3977 48.1653 21.2735 48.5687 21.2787C50.8601 21.2994 53.1463 21.2891 55.4376 21.2891C55.5928 21.2891 55.748 21.2891 55.96 21.2891C55.8876 21.4908 55.8462 21.6201 55.7945 21.7494C51.879 31.1838 47.9584 40.613 44.0584 50.0422C43.8929 50.4404 43.7067 50.5801 43.2671 50.5749C40.9757 50.5491 38.6895 50.5646 36.3982 50.5646C36.243 50.5646 36.0827 50.5646 35.8396 50.5646Z" fill="white"/>
<path d="M149.311 31.3389C149.305 37.8922 145.074 42.5629 139.209 43.1163C135.216 43.4887 131.709 42.3922 129.087 39.2784C126.211 35.8595 125.688 31.9026 127.256 27.7906C128.797 23.751 131.937 21.5476 136.178 20.9217C138.49 20.5804 140.761 20.8493 142.887 21.8579C147.149 23.8855 149.145 27.3717 149.311 31.3389ZM137.875 36.3147C140.3 36.3147 142.162 34.4526 142.168 32.0216C142.178 29.5544 140.321 27.6717 137.885 27.6665C135.449 27.6665 133.581 29.5544 133.587 32.0061C133.597 34.4423 135.454 36.3095 137.875 36.3147Z" fill="white"/>
<path d="M125.135 31.313C125.125 37.9077 120.914 42.5629 115.033 43.1163C111.025 43.4939 107.503 42.3818 104.885 39.237C102.03 35.8026 101.513 31.8458 103.106 27.7389C104.658 23.7252 107.792 21.5321 112.018 20.9166C114.459 20.5597 116.833 20.8752 119.042 22.0079C123.097 24.0872 125.001 27.5217 125.135 31.313ZM113.725 36.3147C116.146 36.3095 118.002 34.4371 118.002 32.0009C118.002 29.5441 116.125 27.6561 113.694 27.6665C111.268 27.6768 109.421 29.5441 109.421 31.9854C109.421 34.4474 111.278 36.3198 113.725 36.3147Z" fill="white"/>
<path d="M119.497 51.93C119.497 51.5576 119.502 51.2886 119.497 51.0248C119.492 50.7662 119.595 50.6628 119.859 50.6628C121.013 50.6731 122.166 50.6731 123.314 50.6628C123.661 50.6576 123.676 50.8542 123.676 51.1128C123.671 52.83 123.676 54.5524 123.676 56.2696C123.676 58.1937 123.676 60.1178 123.676 62.042C123.676 62.6109 123.671 62.6161 123.082 62.6213C122.063 62.6213 121.038 62.6109 120.02 62.6264C119.621 62.6316 119.456 62.5023 119.487 62.0989C119.502 61.892 119.466 61.6799 119.451 61.4471C119.347 61.4782 119.295 61.4782 119.275 61.504C117.371 63.7178 113.802 63.304 111.997 61.3127C110.456 59.6109 110.011 57.5886 110.383 55.38C110.73 53.3214 111.759 51.7076 113.709 50.8024C115.463 49.9904 117.878 50.2076 119.166 51.7024C119.228 51.7542 119.306 51.7904 119.497 51.93ZM117.014 59.1506C118.473 59.1506 119.606 58.0592 119.606 56.6524C119.606 55.261 118.432 54.1076 117.02 54.1127C115.602 54.1179 114.47 55.23 114.464 56.6213C114.464 58.0644 115.556 59.1506 117.014 59.1506Z" fill="white"/>
<path d="M101.565 52.0231C101.616 51.9352 101.658 51.8421 101.715 51.7645C103.054 49.8559 106.37 49.9076 107.808 51.6093C108.506 52.4369 108.847 53.4093 108.863 54.4645C108.899 57.0403 108.878 59.6213 108.889 62.1971C108.889 62.5281 108.749 62.6264 108.444 62.6213C107.337 62.6109 106.23 62.6057 105.118 62.6264C104.725 62.6316 104.622 62.4764 104.627 62.1092C104.642 60.1747 104.642 58.2351 104.627 56.3006C104.622 55.9437 104.565 55.5713 104.466 55.23C104.28 54.5834 103.789 54.2524 103.137 54.211C102.511 54.1748 101.953 54.4076 101.694 54.9972C101.508 55.4265 101.394 55.9179 101.384 56.3834C101.347 58.2765 101.358 60.1696 101.378 62.0626C101.384 62.5126 101.228 62.6419 100.799 62.6316C99.7337 62.6057 98.6682 62.6109 97.6078 62.6316C97.2251 62.6368 97.1009 62.5075 97.1061 62.1247C97.1165 58.4679 97.1165 54.8162 97.1061 51.1593C97.1061 50.7714 97.2251 50.6576 97.6078 50.668C98.6992 50.6886 99.7957 50.6886 100.887 50.668C101.28 50.6576 101.415 50.7973 101.378 51.1697C101.358 51.4283 101.373 51.6972 101.373 51.961C101.435 51.9766 101.497 51.9972 101.565 52.0231Z" fill="white"/>
<path d="M130.095 51.9661C130.168 51.8989 130.245 51.842 130.302 51.7696C131.352 50.4299 132.775 50.1351 134.347 50.4403C135.863 50.7351 136.814 51.7075 137.228 53.1713C137.383 53.7092 137.476 54.2833 137.481 54.8471C137.507 57.2626 137.487 59.6833 137.502 62.0988C137.507 62.5022 137.378 62.6367 136.98 62.6264C135.914 62.6057 134.849 62.6057 133.788 62.6264C133.375 62.6367 133.225 62.5022 133.23 62.0781C133.245 60.216 133.24 58.3488 133.235 56.4868C133.235 56.1402 133.209 55.7833 133.137 55.4471C132.961 54.6402 132.382 54.1851 131.621 54.2006C130.861 54.2161 130.251 54.7178 130.08 55.504C130.013 55.8144 129.982 56.1402 129.982 56.4557C129.971 58.3333 129.966 60.216 129.987 62.0936C129.992 62.4867 129.883 62.6367 129.469 62.6315C128.388 62.6108 127.313 62.616 126.232 62.6315C125.864 62.6367 125.709 62.5281 125.714 62.135C125.725 58.4626 125.725 54.7954 125.714 51.123C125.714 50.7868 125.823 50.6627 126.17 50.6679C127.292 50.6834 128.414 50.6886 129.537 50.6679C129.888 50.6627 130.007 50.7868 129.982 51.123C129.961 51.392 129.976 51.6661 129.976 51.9351C130.013 51.9403 130.054 51.9506 130.095 51.9661Z" fill="white"/>
<path d="M161.186 60.1024C160.514 61.1938 159.645 61.9644 158.512 62.4093C156.578 63.1696 154.612 63.2265 152.678 62.4506C150.433 61.5455 149.342 59.7662 149.124 57.4231C148.954 55.5973 149.362 53.9111 150.593 52.499C151.99 50.8956 153.79 50.2387 155.9 50.3629C157.835 50.4715 159.423 51.2422 160.535 52.8508C161.476 54.2163 161.729 55.7628 161.657 57.3869C161.641 57.7335 161.409 57.6817 161.191 57.6817C158.89 57.6817 156.583 57.6817 154.281 57.6817C154.079 57.6817 153.873 57.6921 153.671 57.6817C153.293 57.661 153.221 57.8266 153.319 58.1679C153.552 58.9748 154.312 59.5903 155.228 59.6627C156.055 59.73 156.785 59.5386 157.374 58.9128C157.457 58.8248 157.664 58.7576 157.773 58.799C158.89 59.2128 160.002 59.6472 161.186 60.1024ZM153.314 55.2714C153.479 55.2869 153.593 55.3025 153.707 55.3025C154.886 55.3025 156.06 55.3076 157.24 55.2869C157.323 55.2869 157.478 55.08 157.462 54.9921C157.426 54.7852 157.333 54.5732 157.219 54.3973C156.593 53.4456 155.057 53.2128 154.059 53.9163C153.614 54.2318 153.319 54.6456 153.314 55.2714Z" fill="white"/>
<path d="M89.2803 48.5007C88.7062 48.4697 88.2148 48.3869 87.7286 48.4231C86.6683 48.5007 86.151 49.3024 86.1355 50.3162C86.1303 50.6162 86.3062 50.6731 86.5596 50.6679C87.2734 50.6628 87.9872 50.6783 88.701 50.6628C89.0062 50.6576 89.1148 50.7662 89.1096 51.0714C89.0993 51.9455 89.0993 52.8196 89.1096 53.6938C89.1148 53.9937 89.0113 54.1075 88.701 54.1024C88.0182 54.0869 87.3303 54.1179 86.6476 54.0869C86.2338 54.0662 86.12 54.2265 86.12 54.6144C86.1303 57.0765 86.1252 59.5385 86.1252 62.0005C86.1252 62.6212 86.1252 62.6212 85.489 62.6212C84.47 62.6212 83.4459 62.6057 82.4269 62.6316C82.0131 62.6419 81.8735 62.5126 81.8735 62.0885C81.889 59.6264 81.8838 57.1644 81.8838 54.7024C81.8838 54.0972 81.8838 54.1075 81.2787 54.0972C80.1563 54.0817 80.2856 54.2834 80.2752 53.1093C80.2701 52.4369 80.2856 51.7696 80.2701 51.0972C80.2649 50.7765 80.3787 50.6576 80.7045 50.6628C81.0614 50.6731 81.5269 50.7507 81.7545 50.5697C81.9459 50.4197 81.8218 49.9179 81.9045 49.5869C82.0959 48.8007 82.2149 47.9731 82.5666 47.2542C83.3217 45.7076 84.7028 44.9732 86.3631 44.8335C87.1751 44.7663 88.0079 44.9111 88.8303 44.9835C89.1562 45.0094 89.2855 45.2111 89.2803 45.5525C89.27 46.5352 89.2803 47.5231 89.2803 48.5007Z" fill="white"/>
<path d="M148.085 58.5247C148.085 59.7919 148.09 60.9661 148.074 62.1402C148.074 62.2436 147.93 62.3885 147.816 62.4402C144.392 63.935 139.509 62.2747 138.945 57.6558C138.712 55.7575 139.069 54.0248 140.306 52.5351C141.371 51.2472 142.783 50.5903 144.428 50.3938C145.53 50.2645 146.605 50.3783 147.655 50.7403C147.987 50.8541 148.105 51.03 148.1 51.3765C148.08 52.3386 148.095 53.3006 148.09 54.2627C148.09 54.3868 148.074 54.5161 148.069 54.6092C147.428 54.4541 146.818 54.211 146.197 54.1696C143.952 54.0248 142.907 55.7316 143.264 57.2264C143.523 58.3075 144.506 59.0781 145.742 59.1454C146.554 59.1919 147.293 58.9592 148.085 58.5247Z" fill="white"/>
<path d="M150.293 38.1094C150.304 35.2956 152.548 33.0715 155.367 33.0767C158.119 33.0818 160.245 35.2129 160.245 37.9645C160.24 40.8042 157.995 43.0283 155.145 43.0179C152.404 43.0076 150.288 40.8662 150.293 38.1094Z" fill="white"/>
<path d="M90.8165 56.6213C90.8165 54.8006 90.8269 52.9799 90.8113 51.1593C90.8062 50.7817 90.9096 50.6472 91.3027 50.6575C92.4096 50.6834 93.5217 50.6782 94.6285 50.6575C94.9751 50.6524 95.0837 50.7713 95.0837 51.1127C95.0734 54.7851 95.0734 58.4574 95.0837 62.1246C95.0837 62.4764 94.9699 62.6212 94.6078 62.616C93.501 62.6005 92.3889 62.6005 91.282 62.616C90.9096 62.6212 90.8113 62.4764 90.8165 62.1246C90.8217 60.2936 90.8165 58.4574 90.8165 56.6213Z" fill="white"/>
<path d="M95.3372 47.0267C95.3372 48.3664 94.3027 49.3853 92.9424 49.3853C91.6027 49.3853 90.5476 48.3405 90.5528 47.0112C90.5579 45.7285 91.6441 44.6526 92.9372 44.6526C94.2562 44.6474 95.3372 45.7129 95.3372 47.0267Z" fill="white"/>
</g>
<defs>
<clipPath id="clip0_962_18407">
<rect width="140" height="51.1908" fill="white" transform="translate(30 11.8132)"/>
</clipPath>
</defs>
</svg>
