<svg width="41" height="41" xmlns="http://www.w3.org/2000/svg" xml:space="preserve" style="enable-background:new 0 0 151 41;" version="1.1">
 <style type="text/css">.st0{fill:url(#SVGID_1_);}
	.st1{fill:#FCFEFD;}
	.st2{fill:none;stroke:#4A87B1;stroke-width:0.1078;stroke-miterlimit:10;}
	.st3{fill:none;stroke:#4A87B1;stroke-width:5.390861e-02;stroke-miterlimit:10;}
	.st4{fill:#4A87B1;}
	.st5{fill:#689769;}
	.st6{fill:#FFFFFF;}</style>

 <g>
  <title>background</title>
  <rect fill="none" id="canvas_background" height="43" width="43" y="-1" x="-1"/>
 </g>
 <g>
  <title>Layer 1</title>
  <g id="svg_1">
   <path id="svg_2" d="m30.8,4.9l-1.6,-0.9c-5.3,-3 -11.7,-3 -17,0l-1.6,0.9c-5.3,3 -8.5,8.6 -8.5,14.7l0,1.8c0,6.1 3.2,11.7 8.5,14.7l1.6,0.9c5.3,3 11.7,3 17,0l1.6,-0.9c5.3,-3 8.5,-8.6 8.5,-14.7l0,-1.8c0,-6.1 -3.3,-11.7 -8.5,-14.7z" class="st0"/>
   <circle id="svg_3" r="1.2" cy="13.8" cx="33.9" class="st1"/>
   <circle id="svg_4" r="1.2" cy="30.2" cx="26.8" class="st1"/>
   <circle id="svg_5" r="0.8" cy="16.2" cx="10.4" class="st1"/>
   <circle id="svg_6" r="0.6" cy="27.7" cx="3.8" class="st1"/>
   <path id="svg_7" d="m16.6,16.3c-0.1,-1.4 -1.4,-2.4 -2.8,-2.2c-1.1,0.2 -2,1.1 -2,2.3c0,0.3 0,0.6 0.1,0.9c0.1,0.2 0.1,0.5 0,0.7c0,0.1 -0.1,0.3 -0.1,0.4c-0.3,1.2 -0.8,2.3 -1.4,3.3c-0.4,1 -1,1.9 -1.7,2.7c-0.3,0.3 -0.6,0.7 -0.9,1c-0.1,0.1 -0.3,0.2 -0.5,0.3c-1,0.3 -1.7,1.3 -1.7,2.3c0,0 0,0 0,0.1c0,0 0,0 0,0c0,0 0,0.1 0,0.1c0,0 0,0 0,0c0,0 0,0 0,0.1c0,0 0,0 0,0c0.2,1.3 1.4,2.3 2.7,2.1c1.2,-0.2 2.1,-1.3 2.1,-2.5c0,-0.3 -0.1,-0.5 -0.2,-0.8c-0.1,-0.3 -0.1,-0.6 0,-0.9c0,0 0,0 0,0c0,-0.1 0,-0.1 0,-0.2c0.5,-1.9 1.4,-3.6 2.4,-5.3c0.4,-0.6 0.9,-1.3 1.4,-1.8c0.2,-0.1 0.3,-0.2 0.5,-0.3c1.4,-0.1 2.2,-1.1 2.1,-2.3z" class="st1"/>
   <path id="svg_8" d="m21.4,28.9c1.3,0.5 2.8,-0.3 3.1,-1.6c0.3,-1.1 -0.2,-2.3 -1.3,-2.8c-0.3,-0.1 -0.6,-0.2 -0.9,-0.2c-0.2,0 -0.5,-0.1 -0.6,-0.2c-0.1,-0.1 -0.2,-0.2 -0.4,-0.3c-0.9,-0.8 -1.8,-1.6 -2.5,-2.6c-0.7,-0.8 -1.3,-1.7 -1.8,-2.6c-0.2,-0.4 -0.4,-0.8 -0.5,-1.2c-0.1,-0.2 -0.1,-0.4 -0.1,-0.6c0.1,-1 -0.4,-2.1 -1.4,-2.5c0,0 0,0 -0.1,0c0,0 0,0 0,0c0,0 -0.1,0 -0.1,0c0,0 0,0 0,0c0,0 0,0 -0.1,0c0,0 0,0 0,0c-1.3,-0.4 -2.6,0.3 -3,1.6c-0.4,1.2 0.3,2.5 1.4,2.9c0.3,0.1 0.5,0.2 0.8,0.2c0.3,0 0.6,0.1 0.8,0.3c0,0 0,0 0,0c0,0 0.1,0.1 0.1,0.1c1.5,1.2 2.7,2.8 3.8,4.4c0.4,0.6 0.8,1.3 1,2c0.1,0.2 0.1,0.4 0,0.6c0.1,1 0.7,2.1 1.8,2.5z" class="st1"/>
   <path id="svg_9" d="m19.7,26.7c0,1.4 1.2,2.5 2.6,2.4c1.1,-0.1 2.1,-1 2.2,-2.1c0,-0.3 0,-0.6 -0.1,-0.9c-0.1,-0.2 -0.1,-0.5 0,-0.7c0,-0.1 0.1,-0.3 0.1,-0.4c0.4,-1.1 1,-2.2 1.7,-3.2c0.5,-0.9 1.2,-1.8 1.9,-2.6c0.3,-0.3 0.6,-0.6 1,-0.9c0.1,-0.1 0.3,-0.2 0.5,-0.2c1,-0.2 1.8,-1.1 1.9,-2.2c0,0 0,0 0,-0.1c0,0 0,0 0,0c0,0 0,-0.1 0,-0.1c0,0 0,0 0,0c0,0 0,0 0,-0.1c0,0 0,0 0,0c0,-1.3 -1.2,-2.4 -2.5,-2.3c-1.2,0.1 -2.2,1.1 -2.3,2.3c0,0.3 0,0.5 0.1,0.8c0.1,0.3 0.1,0.6 0,0.9c0,0 0,0 0,0c0,0.1 0,0.1 0,0.2c-0.6,1.8 -1.7,3.5 -2.9,5c-0.5,0.6 -1,1.2 -1.6,1.6c-0.2,0.1 -0.4,0.2 -0.6,0.2c-1.2,0.2 -2,1.2 -2,2.4z" class="st1"/>
   <polygon id="svg_10" points="10.5,4.8 20.7,1.8 29.7,4.2 37,11.1 39.3,20.5 37.2,29.9 30.3,36.5 20.7,39.4 11.7,36.9 4,29.8    2.2,20.5 4.4,11.1  " class="st2"/>
   <line id="svg_11" y2="36" x2="30.7" y1="4.8" x1="10.5" class="st3"/>
   <line id="svg_12" y2="20.5" x2="2.2" y1="20.5" x1="39.3" class="st3"/>
   <line id="svg_13" y2="36.9" x2="11.7" y1="4.2" x1="29.7" class="st3"/>
   <path id="svg_14" d="m23,3.3c0,-1.4 -1.2,-2.5 -2.6,-2.4c-1.1,0.1 -2.1,1 -2.2,2.1c0,0.3 0,0.6 0.1,0.9c0.1,0.2 0.1,0.5 0,0.7c0,0.1 -0.1,0.3 -0.1,0.4c-0.4,1.1 -1,2.2 -1.7,3.2c-0.5,0.9 -1.2,1.8 -1.9,2.6c-0.3,0.3 -0.6,0.6 -1,0.9c-0.1,0.1 -0.3,0.2 -0.5,0.2c-1,0.2 -1.8,1.1 -1.9,2.2c0,0 0,0 0,0.1c0,0 0,0 0,0c0,0 0,0.1 0,0.1c0,0 0,0 0,0c0,0 0,0 0,0.1c0,0 0,0 0,0c0,1.3 1.2,2.4 2.5,2.3c1.2,-0.1 2.2,-1.1 2.3,-2.3c0,-0.3 0,-0.5 -0.1,-0.8c-0.1,-0.3 -0.1,-0.6 0,-0.9c0,0 0,0 0,0c0,-0.1 0,-0.1 0,-0.2c0.6,-1.8 1.7,-3.5 2.9,-5c0.5,-0.6 1,-1.2 1.6,-1.6c0.2,-0.1 0.4,-0.2 0.6,-0.2c1.2,-0.2 2,-1.2 2,-2.4z" class="st4"/>
   <path id="svg_15" d="m36.8,13.9c1.2,-0.7 1.6,-2.3 0.8,-3.4c-0.6,-1 -1.9,-1.3 -2.9,-0.9c-0.3,0.1 -0.6,0.3 -0.8,0.5c-0.2,0.2 -0.4,0.3 -0.6,0.3c-0.1,0 -0.3,0.1 -0.4,0.1c-1.2,0.2 -2.4,0.3 -3.6,0.2c-1.1,0 -2.1,-0.2 -3.2,-0.4c-0.4,-0.1 -0.9,-0.2 -1.3,-0.4c-0.2,-0.1 -0.3,-0.2 -0.5,-0.3c-0.7,-0.8 -1.8,-1 -2.8,-0.5c0,0 0,0 -0.1,0c0,0 0,0 0,0c0,0 -0.1,0 -0.1,0c0,0 0,0 0,0c0,0 0,0 -0.1,0c0,0 0,0 0,0c-1.1,0.7 -1.5,2.2 -0.8,3.4c0.7,1 2,1.4 3.1,0.8c0.2,-0.1 0.5,-0.3 0.6,-0.5c0.2,-0.2 0.5,-0.4 0.8,-0.4c0,0 0,0 0,0c0.1,0 0.1,0 0.2,0c1.9,-0.4 3.9,-0.3 5.8,0c0.7,0.1 1.5,0.3 2.2,0.6c0.2,0.1 0.4,0.2 0.5,0.4c0.9,0.8 2.2,1.1 3.2,0.5z" class="st5"/>
   <path id="svg_16" d="m34.5,31.1c1.2,0.7 2.8,0.2 3.4,-1c0.5,-1 0.2,-2.3 -0.7,-3c-0.3,-0.2 -0.5,-0.3 -0.8,-0.4c-0.2,-0.1 -0.4,-0.2 -0.6,-0.4c-0.1,-0.1 -0.2,-0.2 -0.3,-0.3c-0.8,-0.9 -1.4,-1.9 -1.9,-3c-0.7,-1 -1,-2 -1.4,-3c-0.1,-0.4 -0.2,-0.9 -0.3,-1.3c0,-0.2 0,-0.4 0,-0.6c0.3,-1 -0.1,-2.1 -0.9,-2.7c0,0 0,0 -0.1,0c0,0 0,0 0,0c0,0 -0.1,0 -0.1,0c0,0 0,0 0,0c0,0 0,0 -0.1,0c0,0 0,0 0,0c-1.2,-0.6 -2.7,-0.2 -3.3,1c-0.6,1.1 -0.2,2.5 0.8,3.1c0.2,0.2 0.5,0.3 0.7,0.3c0.3,0.1 0.6,0.2 0.7,0.5c0,0 0,0 0,0c0,0 0.1,0.1 0.1,0.1c1.3,1.5 2.2,3.2 2.9,5c0.3,0.7 0.5,1.4 0.6,2.2c0,0.2 0,0.4 -0.1,0.6c-0.1,1.1 0.4,2.3 1.4,2.9z" class="st4"/>
   <path id="svg_17" d="m18.4,37.7c0,1.4 1.2,2.5 2.6,2.4c1.1,-0.1 2.1,-1 2.2,-2.1c0,-0.3 0,-0.6 -0.1,-0.9c-0.1,-0.2 -0.1,-0.5 0,-0.7c0,-0.1 0.1,-0.3 0.1,-0.4c0.4,-1.1 1,-2.2 1.7,-3.2c0.5,-0.9 1.2,-1.8 1.9,-2.6c0.3,-0.3 0.6,-0.6 1,-0.9c0.1,-0.1 0.3,-0.2 0.5,-0.2c1,-0.2 1.8,-1.1 1.9,-2.2c0,0 0,0 0,-0.1c0,0 0,0 0,0c0,0 0,-0.1 0,-0.1c0,0 0,0 0,0c0,0 0,0 0,-0.1c0,0 0,0 0,0c0,-1.3 -1.2,-2.4 -2.5,-2.3c-1.2,0.1 -2.2,1.1 -2.3,2.3c0,0.3 0,0.5 0.1,0.8c0.1,0.3 0.1,0.6 0,0.9c0,0 0,0 0,0c0,0.1 0,0.1 0,0.2c-0.6,1.8 -1.7,3.5 -2.9,5c-0.5,0.6 -1,1.2 -1.6,1.6c-0.2,0.1 -0.4,0.2 -0.6,0.2c-1.1,0.2 -2,1.2 -2,2.4z" class="st5"/>
   <path id="svg_18" d="m4.7,27.1c-1.2,0.7 -1.6,2.3 -0.8,3.4c0.6,1 1.9,1.3 2.9,0.9c0.3,-0.1 0.6,-0.3 0.8,-0.5c0.2,-0.2 0.4,-0.3 0.6,-0.3c0.1,0 0.3,-0.1 0.4,-0.1c1.2,-0.2 2.4,-0.3 3.6,-0.2c1.1,0 2.1,0.2 3.2,0.4c0.4,0.1 0.9,0.2 1.3,0.4c0.2,0.1 0.3,0.2 0.5,0.3c0.7,0.8 1.8,1 2.8,0.5c0,0 0,0 0.1,0c0,0 0,0 0,0c0,0 0.1,0 0.1,0c0,0 0,0 0,0c0,0 0,0 0.1,0c0,0 0,0 0,0c1.1,-0.7 1.5,-2.2 0.8,-3.4c-0.7,-1 -2,-1.4 -3.1,-0.8c-0.2,0.1 -0.5,0.3 -0.6,0.5c-0.2,0.2 -0.5,0.4 -0.8,0.4c0,0 0,0 0,0c-0.1,0 -0.1,0 -0.2,0c-1.9,0.4 -3.9,0.3 -5.8,0c-0.7,-0.1 -1.5,-0.3 -2.2,-0.6c-0.2,-0.1 -0.4,-0.2 -0.5,-0.4c-0.9,-0.8 -2.2,-1.1 -3.2,-0.5z" class="st4"/>
   <path id="svg_19" d="m7,9.9c-1.2,-0.7 -2.8,-0.2 -3.4,1c-0.5,1 -0.2,2.3 0.7,3c0.3,0.2 0.5,0.3 0.8,0.4c0.2,0.1 0.4,0.2 0.6,0.4c0.1,0.1 0.2,0.2 0.3,0.3c0.8,0.9 1.4,2 2,3c0.5,1 0.9,2 1.2,3c0.1,0.4 0.2,0.9 0.3,1.3c0,0.2 0,0.4 0,0.6c-0.3,1 0.1,2.1 0.9,2.7c0,0 0,0 0.1,0c0,0 0,0 0,0c0,0 0.1,0 0.1,0c0,0 0,0 0,0c0,0 0,0 0.1,0c0,0 0,0 0,0c1.2,0.6 2.7,0.2 3.3,-1c0.6,-1.1 0.2,-2.5 -0.8,-3.1c-0.2,-0.2 -0.5,-0.3 -0.7,-0.3c-0.3,-0.1 -0.6,-0.2 -0.7,-0.5c0,0 0,0 0,0c0,0 -0.1,-0.1 -0.1,-0.1c-1.3,-1.5 -2.2,-3.2 -2.9,-5c-0.5,-0.7 -0.8,-1.4 -0.8,-2.2c0,-0.2 0,-0.4 0.1,-0.6c0.3,-1.1 -0.1,-2.3 -1.1,-2.9z" class="st5"/>
   <circle id="svg_20" r="1.2" cy="4.8" cx="10.5" class="st4"/>
   <circle id="svg_21" r="1.2" cy="4.2" cx="29.7" class="st4"/>
   <circle id="svg_22" r="1.2" cy="20.5" cx="39.3" class="st4"/>
   <circle id="svg_23" r="1.2" cy="36.5" cx="30.3" class="st4"/>
   <circle id="svg_24" r="1.2" cy="36.9" cx="11.7" class="st4"/>
   <circle id="svg_25" r="1.2" cy="20.5" cx="2.2" class="st4"/>
  </g>
 </g>
</svg>