<svg width="191" height="184" viewBox="0 0 191 184" fill="none" xmlns="http://www.w3.org/2000/svg">
<path d="M141.157 80.6952C141.157 119.592 109.624 151.123 70.7251 151.123C31.8257 151.123 0.293457 119.592 0.293457 80.6952C0.293457 41.8053 31.8257 10.2679 70.7251 10.2679C109.624 10.2679 141.157 41.8053 141.157 80.6952Z" fill="url(#paint0_linear_1111_10963)"/>
<g opacity="0.5" filter="url(#filter0_f_1111_10963)">
<path d="M101.718 70.102C101.718 91.0587 84.7292 108.046 63.7712 108.046C42.8131 108.046 25.8243 91.0587 25.8243 70.102C25.8243 49.149 42.8131 32.1575 63.7712 32.1575C84.7292 32.1575 101.718 49.149 101.718 70.102Z" fill="#00E4D6"/>
</g>
<g filter="url(#filter1_b_1111_10963)">
<path d="M26.1646 103.119C26.1646 64.2222 57.6969 32.6919 96.5962 32.6919C135.496 32.6919 167.028 64.2222 167.028 103.119C167.028 142.009 135.496 173.547 96.5962 173.547C57.6968 173.546 26.1646 142.009 26.1646 103.119Z" fill="#D8B9FF" fill-opacity="0.35"/>
<path d="M96.5962 32.1919C57.4207 32.1919 25.6646 63.9461 25.6646 103.119C25.6646 142.285 57.4207 174.046 96.5962 174.047C135.772 174.047 167.528 142.285 167.528 103.119C167.528 63.9461 135.772 32.1919 96.5962 32.1919Z" stroke="url(#paint1_linear_1111_10963)" stroke-linecap="round" stroke-linejoin="round"/>
</g>
<g filter="url(#filter2_bd_1111_10963)">
<path d="M107.916 22.0123C105.966 21.725 103.983 22.1909 102.405 23.3072C100.828 24.4234 99.7847 26.0983 99.5063 27.9626L99.393 29.0608L97.1987 96.142C96.9614 98.3497 97.7089 100.559 99.2575 102.228C100.806 103.897 103.012 104.87 105.334 104.909L175.382 107.617C177.333 107.696 179.23 107.029 180.653 105.762C182.075 104.495 182.906 102.734 182.962 100.868C183.026 100.638 183.051 100.399 183.035 100.162C180.802 60.3599 149.209 27.4933 107.916 22.0123Z" fill="url(#paint2_linear_1111_10963)"/>
</g>
<g filter="url(#filter3_bd_1111_10963)">
<ellipse cx="95.1599" cy="105.129" rx="12.074" ry="12.0732" fill="url(#paint3_linear_1111_10963)"/>
<path d="M107.034 105.129C107.034 111.687 101.718 117.002 95.1599 117.002C88.6021 117.002 83.2859 111.687 83.2859 105.129C83.2859 98.5718 88.6021 93.256 95.1599 93.256C101.718 93.256 107.034 98.5718 107.034 105.129Z" stroke="url(#paint4_linear_1111_10963)" stroke-width="0.4"/>
</g>
<defs>
<filter id="filter0_f_1111_10963" x="6.82434" y="13.1575" width="113.894" height="113.889" filterUnits="userSpaceOnUse" color-interpolation-filters="sRGB">
<feFlood flood-opacity="0" result="BackgroundImageFix"/>
<feBlend mode="normal" in="SourceGraphic" in2="BackgroundImageFix" result="shape"/>
<feGaussianBlur stdDeviation="9.5" result="effect1_foregroundBlur_1111_10963"/>
</filter>
<filter id="filter1_b_1111_10963" x="1.16467" y="7.69196" width="190.863" height="190.855" filterUnits="userSpaceOnUse" color-interpolation-filters="sRGB">
<feFlood flood-opacity="0" result="BackgroundImageFix"/>
<feGaussianBlur in="BackgroundImage" stdDeviation="12"/>
<feComposite in2="SourceAlpha" operator="in" result="effect1_backgroundBlur_1111_10963"/>
<feBlend mode="normal" in="SourceGraphic" in2="effect1_backgroundBlur_1111_10963" result="shape"/>
</filter>
<filter id="filter2_bd_1111_10963" x="82.1555" y="6.92938" width="115.884" height="115.694" filterUnits="userSpaceOnUse" color-interpolation-filters="sRGB">
<feFlood flood-opacity="0" result="BackgroundImageFix"/>
<feGaussianBlur in="BackgroundImage" stdDeviation="7.5"/>
<feComposite in2="SourceAlpha" operator="in" result="effect1_backgroundBlur_1111_10963"/>
<feColorMatrix in="SourceAlpha" type="matrix" values="0 0 0 0 0 0 0 0 0 0 0 0 0 0 0 0 0 0 127 0" result="hardAlpha"/>
<feOffset dx="-3" dy="5"/>
<feGaussianBlur stdDeviation="5"/>
<feColorMatrix type="matrix" values="0 0 0 0 0.723921 0 0 0 0 0.137255 0 0 0 0 1 0 0 0 0.3 0"/>
<feBlend mode="normal" in2="effect1_backgroundBlur_1111_10963" result="effect2_dropShadow_1111_10963"/>
<feBlend mode="normal" in="SourceGraphic" in2="effect2_dropShadow_1111_10963" result="shape"/>
</filter>
<filter id="filter3_bd_1111_10963" x="68.0859" y="78.056" width="54.1479" height="54.1465" filterUnits="userSpaceOnUse" color-interpolation-filters="sRGB">
<feFlood flood-opacity="0" result="BackgroundImageFix"/>
<feGaussianBlur in="BackgroundImage" stdDeviation="7.5"/>
<feComposite in2="SourceAlpha" operator="in" result="effect1_backgroundBlur_1111_10963"/>
<feColorMatrix in="SourceAlpha" type="matrix" values="0 0 0 0 0 0 0 0 0 0 0 0 0 0 0 0 0 0 127 0" result="hardAlpha"/>
<feOffset dx="5" dy="5"/>
<feGaussianBlur stdDeviation="5"/>
<feColorMatrix type="matrix" values="0 0 0 0 0.137255 0 0 0 0 0.689412 0 0 0 0 1 0 0 0 0.5 0"/>
<feBlend mode="normal" in2="effect1_backgroundBlur_1111_10963" result="effect2_dropShadow_1111_10963"/>
<feBlend mode="normal" in="SourceGraphic" in2="effect2_dropShadow_1111_10963" result="shape"/>
</filter>
<linearGradient id="paint0_linear_1111_10963" x1="70.7251" y1="10.2679" x2="70.7251" y2="151.123" gradientUnits="userSpaceOnUse">
<stop stop-color="#7FD1FF"/>
<stop offset="1" stop-color="#0D5FFF"/>
</linearGradient>
<linearGradient id="paint1_linear_1111_10963" x1="167.439" y1="174.504" x2="18.324" y2="48.2035" gradientUnits="userSpaceOnUse">
<stop stop-color="white" stop-opacity="0.4"/>
<stop offset="1" stop-color="white" stop-opacity="0"/>
</linearGradient>
<linearGradient id="paint2_linear_1111_10963" x1="182.335" y1="44.7074" x2="30.6982" y2="23.0128" gradientUnits="userSpaceOnUse">
<stop stop-color="white" stop-opacity="0.2"/>
<stop offset="1" stop-color="white"/>
</linearGradient>
<linearGradient id="paint3_linear_1111_10963" x1="105.522" y1="97.4163" x2="64.6827" y2="95.9486" gradientUnits="userSpaceOnUse">
<stop stop-color="white"/>
<stop offset="1" stop-color="white" stop-opacity="0.2"/>
</linearGradient>
<linearGradient id="paint4_linear_1111_10963" x1="86.9299" y1="95.8691" x2="102.333" y2="114.947" gradientUnits="userSpaceOnUse">
<stop stop-color="white" stop-opacity="0.25"/>
<stop offset="1" stop-color="white" stop-opacity="0"/>
</linearGradient>
</defs>
</svg>
