<svg width="188" height="187" viewBox="0 0 188 187" fill="none" xmlns="http://www.w3.org/2000/svg">
<path d="M181.554 48.1742L140.895 56.2806C136.848 57.0925 135.495 62.196 138.626 64.9024L151.875 76.3467L123.419 109.893L73.6227 76.2307C70.4009 74.0527 66.045 74.6069 63.4804 77.5324L16.8025 130.707C15.6555 132.008 15.7844 134.006 17.086 135.14L23.9807 141.197C25.2824 142.344 27.2799 142.216 28.4269 140.914L70.6071 92.8687L120.494 126.596C123.767 128.799 128.175 128.207 130.726 125.191L163.576 86.4635L177.185 98.217C180.317 100.911 185.175 98.8357 185.382 94.7116L187.495 53.3035C187.637 50.0687 184.724 47.5427 181.554 48.1742Z" fill="url(#paint0_linear_1111_10628)"/>
<path d="M33.6205 99.3253V172.824H1.78882V99.3253C1.78882 94.6342 5.59059 90.8195 10.2945 90.8195H25.1149C29.8059 90.8195 33.6205 94.6213 33.6205 99.3253ZM73.1588 65.0441H58.3384C53.6474 65.0441 49.8328 68.846 49.8328 73.55V172.824H81.6645V73.55C81.6645 68.846 77.8627 65.0441 73.1588 65.0441ZM121.203 39.2688H106.382C101.691 39.2688 97.8767 43.0706 97.8767 47.7746V172.824H129.708V47.7746C129.708 43.0706 125.907 39.2688 121.203 39.2688Z" fill="url(#paint1_linear_1111_10628)"/>
<path d="M121.203 39.2687C125.894 39.2687 129.708 43.0706 129.708 47.7746V172.824H97.8766V47.7746C97.8766 43.0835 101.678 39.2687 106.382 39.2687H121.203M73.1587 65.0441C77.8497 65.0441 81.6644 68.8459 81.6644 73.5499V172.824H49.8327V73.5499C49.8327 68.8588 53.6344 65.0441 58.3383 65.0441H73.1587M25.1148 90.8194C29.8058 90.8194 33.6204 94.6212 33.6204 99.3252V172.824H1.78873V99.3252C1.78873 94.6341 5.5905 90.8194 10.2944 90.8194H25.1148ZM121.203 37.98H106.382C100.982 37.98 96.5879 42.3746 96.5879 47.7746V172.824C96.5879 173.532 97.1678 174.112 97.8766 174.112H129.708C130.417 174.112 130.997 173.532 130.997 172.824V47.7746C130.997 42.3746 126.602 37.98 121.203 37.98ZM73.1587 63.7553H58.3383C52.9385 63.7553 48.5439 68.15 48.5439 73.5499V172.824C48.5439 173.532 49.1239 174.112 49.8327 174.112H81.6644C82.3732 174.112 82.9531 173.532 82.9531 172.824V73.5499C82.9531 68.15 78.5585 63.7553 73.1587 63.7553ZM25.1148 89.5306H10.2944C4.89458 89.5306 0.5 93.9253 0.5 99.3252V172.824C0.5 173.532 1.07993 174.112 1.78873 174.112H33.6204C34.3292 174.112 34.9092 173.532 34.9092 172.824V99.3252C34.9092 93.9253 30.5146 89.5306 25.1148 89.5306Z" fill="url(#paint2_linear_1111_10628)"/>
<path d="M33.6205 99.3253V101.632C33.6205 96.9411 29.8188 93.1263 25.1149 93.1263H10.2945C5.60347 93.1263 1.78882 96.9282 1.78882 101.632V99.3253C1.78882 94.6342 5.59059 90.8195 10.2945 90.8195H25.1149C29.8059 90.8195 33.6205 94.6213 33.6205 99.3253ZM121.203 39.2688H106.382C101.691 39.2688 97.8767 43.0706 97.8767 47.7746V50.0815C97.8767 45.3904 101.678 41.5757 106.382 41.5757H121.203C125.894 41.5757 129.708 45.3775 129.708 50.0815V47.7746C129.708 43.0706 125.907 39.2688 121.203 39.2688ZM73.1588 65.0441H58.3384C53.6474 65.0441 49.8328 68.846 49.8328 73.55V75.8569C49.8328 71.1657 53.6345 67.351 58.3384 67.351H73.1588C77.8498 67.351 81.6645 71.1529 81.6645 75.8569V73.55C81.6645 68.846 77.8627 65.0441 73.1588 65.0441Z" fill="white"/>
<defs>
<linearGradient id="paint0_linear_1111_10628" x1="185.379" y1="49.1194" x2="34.7759" y2="143.132" gradientUnits="userSpaceOnUse">
<stop stop-color="#1CFFC2"/>
<stop offset="0.1318" stop-color="#17F0B8"/>
<stop offset="0.5051" stop-color="#0BCCA0"/>
<stop offset="0.8077" stop-color="#03B591"/>
<stop offset="1" stop-color="#00AD8C"/>
</linearGradient>
<linearGradient id="paint1_linear_1111_10628" x1="65.748" y1="39.2654" x2="65.748" y2="172.812" gradientUnits="userSpaceOnUse">
<stop stop-color="white" stop-opacity="0.9"/>
<stop offset="0.0358" stop-color="white" stop-opacity="0.8492"/>
<stop offset="0.2822" stop-color="white" stop-opacity="0.5"/>
<stop offset="0.6461" stop-color="#FAFAFA" stop-opacity="0.3986"/>
<stop offset="1" stop-color="#EFEFEF" stop-opacity="0.3"/>
</linearGradient>
<linearGradient id="paint2_linear_1111_10628" x1="65.7479" y1="174.1" x2="65.7479" y2="37.9766" gradientUnits="userSpaceOnUse">
<stop stop-color="white" stop-opacity="0.9"/>
<stop offset="0.2822" stop-color="white" stop-opacity="0.5"/>
<stop offset="0.6461" stop-color="#FAFAFA" stop-opacity="0.3986"/>
<stop offset="1" stop-color="#EFEFEF" stop-opacity="0.3"/>
</linearGradient>
</defs>
</svg>
