<svg width="188" height="187" viewBox="0 0 188 187" fill="none" xmlns="http://www.w3.org/2000/svg">
<path d="M185.835 147.997C181.698 120.963 168.934 64.9541 132.024 35.4853C132.301 34.9707 132.46 34.377 132.46 33.7635C132.46 31.6854 130.778 30.0032 128.7 30.0032H129.353L147.045 4.09675C141.306 4.09675 141.306 0 135.587 0C129.847 0 129.847 4.09675 124.108 4.09675C118.369 4.09675 118.369 0 112.63 0C106.89 0 106.89 4.09675 101.151 4.09675C95.412 4.09675 95.4121 0 89.6728 0C83.9336 0 83.9335 4.09675 78.1943 4.09675L95.887 30.0032H96.5401C94.4621 30.0032 92.7799 31.6854 92.7799 33.7635C92.7799 34.3968 92.9382 34.9707 93.2153 35.4853C56.2863 64.9541 43.5214 120.943 39.405 147.997C38.178 156.092 44.4318 163.375 52.6053 163.375H172.634C180.808 163.375 187.062 156.092 185.835 147.997Z" fill="url(#paint0_linear_1111_10636)"/>
<path d="M110.453 24.283C104.714 24.283 104.714 20.1863 98.9942 20.1863C93.255 20.1863 93.255 24.283 87.5158 24.283C81.7766 24.283 81.7765 20.1863 76.0373 20.1863C70.2981 20.1863 70.2981 24.283 64.5589 24.283C58.8196 24.283 58.8196 20.1863 53.0804 20.1863C47.3411 20.1863 47.3412 24.283 41.6019 24.283L59.2946 50.1895H92.7603L110.453 24.283Z" fill="url(#paint1_linear_1111_10636)" stroke="url(#paint2_linear_1111_10636)" stroke-width="1.1627" stroke-miterlimit="10" stroke-linecap="round" stroke-linejoin="round"/>
<path d="M92.107 57.7295H59.9673C57.8893 57.7295 56.2072 56.0473 56.2072 53.9693C56.2072 51.8912 57.8893 50.209 59.9673 50.209H92.107C94.185 50.209 95.8672 51.8912 95.8672 53.9693C95.887 56.0275 94.185 57.7295 92.107 57.7295Z" fill="url(#paint3_linear_1111_10636)" stroke="url(#paint4_linear_1111_10636)" stroke-width="1.1627" stroke-miterlimit="10" stroke-linecap="round" stroke-linejoin="round"/>
<path d="M149.262 168.203C145.126 141.169 132.361 85.16 95.4517 55.6912C94.8184 56.8984 93.5716 57.7296 92.1269 57.7296H59.9674C58.5227 57.7296 57.2759 56.8984 56.6426 55.6912C19.7136 85.16 6.9488 141.149 2.83238 168.203C1.60537 176.298 7.85912 183.581 16.0326 183.581H136.062C144.235 183.561 150.489 176.278 149.262 168.203Z" fill="url(#paint5_linear_1111_10636)" stroke="url(#paint6_linear_1111_10636)" stroke-width="1.1627" stroke-miterlimit="10" stroke-linecap="round" stroke-linejoin="round"/>
<path d="M79.56 137.587V144.375H73.4843V137.765C67.4878 137.408 61.7091 135.528 58.3843 132.916L61.7289 125.514C64.7568 127.75 69.1305 129.393 73.5042 129.828V119.695C66.7754 118.053 59.2551 115.816 59.2551 107.128C59.2551 100.696 63.9256 95.1744 73.5042 94.0859V87.3569H79.5798V93.9671C84.1316 94.3234 88.5647 95.5505 91.8895 97.6681L88.8616 105.129C85.7743 103.368 82.6078 102.339 79.5798 101.983V112.294C86.3086 113.877 93.7102 116.113 93.7102 124.663C93.6904 130.976 89.0792 136.439 79.56 137.587ZM73.4843 110.77V102.161C70.2783 102.893 68.9919 104.654 68.9919 106.653C69.0117 108.771 70.8324 109.919 73.4843 110.77ZM83.9337 125.395C83.9337 123.278 82.1724 122.11 79.56 121.2V129.571C82.588 128.918 83.9337 127.335 83.9337 125.395Z" fill="url(#paint7_linear_1111_10636)"/>
<path d="M21.574 97.8456C23.2759 99.132 31.0338 91.6708 38.9104 81.1815C46.7672 70.6923 51.7544 61.1531 50.0524 59.8864C48.3504 58.6 40.5926 66.0612 32.716 76.5504C24.8592 87.0199 19.872 96.5592 21.574 97.8456Z" fill="url(#paint8_radial_1111_10636)"/>
<path d="M94.759 183.739C94.8184 185.877 105.485 187.302 118.587 186.945C131.688 186.589 142.256 184.551 142.197 182.433C142.137 180.296 131.47 178.871 118.369 179.227C105.288 179.563 94.7194 181.602 94.759 183.739Z" fill="url(#paint9_radial_1111_10636)"/>
<defs>
<linearGradient id="paint0_linear_1111_10636" x1="165.551" y1="38.3821" x2="92.2275" y2="128.304" gradientUnits="userSpaceOnUse">
<stop stop-color="#F1DE89"/>
<stop offset="0.0556" stop-color="#EED27A"/>
<stop offset="0.3389" stop-color="#E0972F"/>
<stop offset="0.4144" stop-color="#DF8637"/>
<stop offset="0.6647" stop-color="#DC504F"/>
<stop offset="0.8527" stop-color="#DA2F5D"/>
<stop offset="0.9554" stop-color="#D92363"/>
</linearGradient>
<linearGradient id="paint1_linear_1111_10636" x1="76.0407" y1="16.8034" x2="76.0407" y2="64.6151" gradientUnits="userSpaceOnUse">
<stop stop-color="white" stop-opacity="0.35"/>
<stop offset="0.8963" stop-color="white" stop-opacity="0.0139"/>
<stop offset="0.9333" stop-color="white" stop-opacity="0"/>
</linearGradient>
<linearGradient id="paint2_linear_1111_10636" x1="40.4727" y1="35.1825" x2="111.609" y2="35.1825" gradientUnits="userSpaceOnUse">
<stop stop-color="white" stop-opacity="0.45"/>
<stop offset="0.1413" stop-color="white" stop-opacity="0.3977"/>
<stop offset="1" stop-color="white" stop-opacity="0.08"/>
</linearGradient>
<linearGradient id="paint3_linear_1111_10636" x1="76.0408" y1="43.2396" x2="76.0408" y2="73.6207" gradientUnits="userSpaceOnUse">
<stop stop-color="white" stop-opacity="0.35"/>
<stop offset="0.8963" stop-color="white" stop-opacity="0.0139"/>
<stop offset="0.9333" stop-color="white" stop-opacity="0"/>
</linearGradient>
<linearGradient id="paint4_linear_1111_10636" x1="55.0522" y1="53.9552" x2="97.0291" y2="53.9552" gradientUnits="userSpaceOnUse">
<stop stop-color="white" stop-opacity="0.45"/>
<stop offset="0.1413" stop-color="white" stop-opacity="0.3977"/>
<stop offset="1" stop-color="white" stop-opacity="0.08"/>
</linearGradient>
<linearGradient id="paint5_linear_1111_10636" x1="76.0408" y1="59.5585" x2="76.0408" y2="230.911" gradientUnits="userSpaceOnUse">
<stop stop-color="white" stop-opacity="0.35"/>
<stop offset="0.8963" stop-color="white" stop-opacity="0.0139"/>
<stop offset="0.9333" stop-color="white" stop-opacity="0"/>
</linearGradient>
<linearGradient id="paint6_linear_1111_10636" x1="46.7959" y1="204.731" x2="124.073" y2="70.8866" gradientUnits="userSpaceOnUse">
<stop stop-color="white" stop-opacity="0.45"/>
<stop offset="0.1413" stop-color="white" stop-opacity="0.3977"/>
<stop offset="1" stop-color="white" stop-opacity="0.08"/>
</linearGradient>
<linearGradient id="paint7_linear_1111_10636" x1="76.0407" y1="76.2037" x2="76.0407" y2="162.334" gradientUnits="userSpaceOnUse">
<stop stop-color="white" stop-opacity="0.35"/>
<stop offset="0.8963" stop-color="white" stop-opacity="0.0139"/>
<stop offset="0.9333" stop-color="white" stop-opacity="0"/>
</linearGradient>
<radialGradient id="paint8_radial_1111_10636" cx="0" cy="0" r="1" gradientUnits="userSpaceOnUse" gradientTransform="translate(35.5282 79.1379) rotate(126.873) scale(24.348 3.96719)">
<stop offset="0.0003337" stop-color="#B0B0AF"/>
<stop offset="0.3013" stop-color="#7F7F7E" stop-opacity="0.6989"/>
<stop offset="0.6146" stop-color="#535352" stop-opacity="0.3855"/>
<stop offset="0.8581" stop-color="#373736" stop-opacity="0.142"/>
<stop offset="1" stop-color="#2D2D2C" stop-opacity="0"/>
</radialGradient>
<radialGradient id="paint9_radial_1111_10636" cx="0" cy="0" r="1" gradientUnits="userSpaceOnUse" gradientTransform="translate(118.098 183.025) rotate(178.422) scale(24.3505 3.96691)">
<stop offset="0.0003337" stop-color="#B0B0AF"/>
<stop offset="0.3013" stop-color="#7F7F7E" stop-opacity="0.6989"/>
<stop offset="0.6146" stop-color="#535352" stop-opacity="0.3855"/>
<stop offset="0.8581" stop-color="#373736" stop-opacity="0.142"/>
<stop offset="1" stop-color="#2D2D2C" stop-opacity="0"/>
</radialGradient>
</defs>
</svg>
