<svg width="100" height="101" viewBox="0 0 100 101" fill="none" xmlns="http://www.w3.org/2000/svg">
<path fill-rule="evenodd" clip-rule="evenodd" d="M51.0431 38.0899C51.0434 38.0881 51.0438 38.0862 51.0443 38.0843L51.214 37.451C52.9227 29.8075 48.2801 22.1702 40.6887 20.1362C33.0974 18.1022 25.2578 22.3953 22.9156 29.8689C22.8216 30.0703 22.7637 30.2864 22.7443 30.5078L22.5228 30.4484C18.8927 29.4758 14.3703 30.8324 11.5176 36.9722L4.61251 53.9289C-0.642266 66.3291 5.12882 71.3274 13.7908 73.6482L37.2732 79.9399C45.9101 82.254 53.5937 79.3141 55.0572 67.4445L57.5812 49.314C57.9321 42.6973 54.8674 39.1145 51.2875 38.1553L51.0431 38.0899ZM46.7745 36.9462C46.7504 36.7211 46.7667 36.4936 46.8225 36.2743C48.278 30.8428 45.0395 25.2559 39.5891 23.7956C34.1388 22.3353 28.5406 25.5546 27.0851 30.9861C27.0658 31.2074 27.0079 31.4236 26.914 31.6249L46.7745 36.9462Z" fill="url(#paint0_linear_1111_10927)"/>
<g opacity="0.5" filter="url(#filter0_f_1111_10927)">
<path d="M25.5063 48.722C27.2182 44.2796 32.0055 41.8441 36.6041 43.0762V43.0762C41.2027 44.3083 44.1309 48.8111 43.392 53.5142L42.3296 60.2769C41.4039 66.1691 35.5752 69.9595 29.814 68.4159V68.4159C24.0527 66.8722 20.9003 60.6755 23.0449 55.1099L25.5063 48.722Z" fill="#0062FF"/>
</g>
<g filter="url(#filter1_bd_1111_10927)">
<path fill-rule="evenodd" clip-rule="evenodd" d="M71.1987 28.6138C71.2803 28.8755 72.5845 34.3024 72.5409 34.5731L67.6399 35.8863C67.493 35.6849 66.0467 30.4856 65.7431 29.3943L65.6899 29.2031C63.9376 22.664 57.1978 18.7882 50.636 20.5463C44.0742 22.3045 40.1753 29.0307 41.9276 35.5698C42.0408 35.8124 43.7059 42.0261 43.7292 42.2928L38.7094 43.6377C38.5962 43.3952 36.9311 37.1814 36.9078 36.9148C34.8507 27.7127 40.4401 18.5178 49.5795 16.0691C58.7189 13.6204 68.1571 18.7888 70.977 27.7865L71.1987 28.6138ZM50.3151 54.4152C48.6505 54.8612 46.9289 53.8339 46.4698 52.1207C46.0108 50.4075 46.988 48.6571 48.6526 48.2111C50.3171 47.7651 52.0387 48.7924 52.4978 50.5056C52.9569 52.2188 51.9796 53.9692 50.3151 54.4152ZM66.2114 46.8317C66.6705 48.5449 68.392 49.5723 70.0566 49.1263C71.7212 48.6803 72.6984 46.9299 72.2393 45.2167C71.7802 43.5034 70.0587 42.4761 68.3941 42.9221C66.7295 43.3681 65.7523 45.1185 66.2114 46.8317Z" fill="url(#paint1_linear_1111_10927)"/>
</g>
<g filter="url(#filter2_b_1111_10927)">
<mask id="path-4-outside-1_1111_10927" maskUnits="userSpaceOnUse" x="23.6827" y="24.5839" width="77.9872" height="70.2068" fill="black">
<rect fill="white" x="23.6827" y="24.5839" width="77.9872" height="70.2068"/>
<path fill-rule="evenodd" clip-rule="evenodd" d="M94.5088 57.7696L86.2258 37.347C82.6085 30.2369 77.2563 28.3461 72.9463 29.5009L38.3157 38.7796C33.9455 39.9505 30.0469 44.0872 30.7687 52.2058L33.7772 74.0416C35.7634 90.1335 44.7895 91.8711 55.2179 89.077L83.4889 81.5022C93.8871 78.7162 100.128 71.0261 94.5088 57.7696ZM50.4056 54.3583C48.7411 54.8043 47.0195 53.777 46.5604 52.0638C46.1013 50.3505 47.0785 48.6002 48.7431 48.1542C50.4077 47.7082 52.1292 48.7355 52.5883 50.4487C53.0474 52.1619 52.0702 53.9123 50.4056 54.3583ZM66.3019 46.7748C66.761 48.488 68.4826 49.5153 70.1472 49.0694C71.8117 48.6234 72.789 46.873 72.3299 45.1597C71.8708 43.4465 70.1492 42.4192 68.4846 42.8652C66.8201 43.3112 65.8428 45.0616 66.3019 46.7748Z"/>
</mask>
<path fill-rule="evenodd" clip-rule="evenodd" d="M94.5088 57.7696L86.2258 37.347C82.6085 30.2369 77.2563 28.3461 72.9463 29.5009L38.3157 38.7796C33.9455 39.9505 30.0469 44.0872 30.7687 52.2058L33.7772 74.0416C35.7634 90.1335 44.7895 91.8711 55.2179 89.077L83.4889 81.5022C93.8871 78.7162 100.128 71.0261 94.5088 57.7696ZM50.4056 54.3583C48.7411 54.8043 47.0195 53.777 46.5604 52.0638C46.1013 50.3505 47.0785 48.6002 48.7431 48.1542C50.4077 47.7082 52.1292 48.7355 52.5883 50.4487C53.0474 52.1619 52.0702 53.9123 50.4056 54.3583ZM66.3019 46.7748C66.761 48.488 68.4826 49.5153 70.1472 49.0694C71.8117 48.6234 72.789 46.873 72.3299 45.1597C71.8708 43.4465 70.1492 42.4192 68.4846 42.8652C66.8201 43.3112 65.8428 45.0616 66.3019 46.7748Z" fill="#3EA0FE" fill-opacity="0.35"/>
<path d="M86.2258 37.347L87.1525 36.9712C87.1418 36.9448 87.13 36.9189 87.1171 36.8935L86.2258 37.347ZM94.5088 57.7696L93.5821 58.1454C93.5841 58.1503 93.5861 58.1551 93.5881 58.1599L94.5088 57.7696ZM30.7687 52.2058L29.7726 52.2943C29.7741 52.3103 29.7759 52.3263 29.7781 52.3422L30.7687 52.2058ZM33.7772 74.0416L34.7698 73.9191L34.7679 73.9052L33.7772 74.0416ZM55.2179 89.077L54.959 88.1111L55.2179 89.077ZM83.4889 81.5022L83.7478 82.4682L83.4889 81.5022ZM46.5604 52.0638L45.5945 52.3226L45.5945 52.3226L46.5604 52.0638ZM50.4056 54.3583L50.6645 55.3242L50.4056 54.3583ZM48.7431 48.1542L48.4843 47.1882L48.4843 47.1882L48.7431 48.1542ZM52.5883 50.4487L53.5543 50.1899L52.5883 50.4487ZM70.1472 49.0694L69.8883 48.1034L70.1472 49.0694ZM66.3019 46.7748L67.2679 46.516L66.3019 46.7748ZM72.3299 45.1597L73.2958 44.9009L72.3299 45.1597ZM68.4846 42.8652L68.2258 41.8993L68.2258 41.8993L68.4846 42.8652ZM85.2991 37.7228L93.5821 58.1454L95.4355 57.3938L87.1525 36.9712L85.2991 37.7228ZM73.2051 30.4668C76.9594 29.4609 81.881 31.0124 85.3345 37.8004L87.1171 36.8935C83.3359 29.4614 77.5531 27.2313 72.6874 28.535L73.2051 30.4668ZM38.5746 39.7455L73.2051 30.4668L72.6874 28.535L38.0569 37.8137L38.5746 39.7455ZM31.7648 52.1172C31.4194 48.2327 32.1864 45.4037 33.4705 43.4333C34.7544 41.4632 36.6051 40.2732 38.5746 39.7455L38.0569 37.8137C35.6561 38.4569 33.3724 39.9207 31.7949 42.3413C30.2176 44.7616 29.3962 48.0603 29.7726 52.2943L31.7648 52.1172ZM34.7679 73.9052L31.7594 52.0693L29.7781 52.3422L32.7866 74.1781L34.7679 73.9052ZM54.959 88.1111C49.8182 89.4885 45.2754 89.6712 41.814 87.7655C38.4043 85.8883 35.7435 81.8084 34.7697 73.9191L32.7848 74.1641C33.7972 82.3667 36.6425 87.2015 40.8495 89.5175C45.0047 91.8052 50.1892 91.4596 55.4767 90.0429L54.959 88.1111ZM83.2301 80.5363L54.959 88.1111L55.4767 90.0429L83.7478 82.4682L83.2301 80.5363ZM93.5881 58.1599C96.3197 64.6036 96.0949 69.5023 94.1291 73.0809C92.1489 76.6857 88.2757 79.1844 83.2301 80.5363L83.7478 82.4682C89.1003 81.034 93.547 78.2946 95.8821 74.0438C98.2316 69.7666 98.3176 64.1921 95.4295 57.3793L93.5881 58.1599ZM45.5945 52.3226C46.1894 54.5428 48.4404 55.9201 50.6645 55.3242L50.1468 53.3924C49.0417 53.6885 47.8495 53.0112 47.5263 51.805L45.5945 52.3226ZM48.4843 47.1882C46.2602 47.7841 44.9995 50.1023 45.5945 52.3226L47.5263 51.805C47.2031 50.5988 47.8969 49.4162 49.0019 49.1201L48.4843 47.1882ZM53.5543 50.1899C52.9593 47.9696 50.7084 46.5923 48.4843 47.1882L49.0019 49.1201C50.107 48.824 51.2992 49.5013 51.6224 50.7075L53.5543 50.1899ZM50.6645 55.3242C52.8885 54.7283 54.1492 52.4102 53.5543 50.1899L51.6224 50.7075C51.9456 51.9137 51.2518 53.0963 50.1468 53.3924L50.6645 55.3242ZM69.8883 48.1034C68.7833 48.3995 67.5911 47.7222 67.2679 46.516L65.336 47.0336C65.931 49.2539 68.1819 50.6312 70.406 50.0353L69.8883 48.1034ZM71.3639 45.4186C71.6872 46.6248 70.9934 47.8074 69.8883 48.1034L70.406 50.0353C72.6301 49.4394 73.8907 47.1212 73.2958 44.9009L71.3639 45.4186ZM68.7435 43.8311C69.8485 43.535 71.0407 44.2123 71.3639 45.4186L73.2958 44.9009C72.7008 42.6807 70.4499 41.3034 68.2258 41.8993L68.7435 43.8311ZM67.2679 46.516C66.9446 45.3098 67.6384 44.1272 68.7435 43.8311L68.2258 41.8993C66.0017 42.4952 64.741 44.8134 65.336 47.0336L67.2679 46.516Z" fill="url(#paint2_linear_1111_10927)" mask="url(#path-4-outside-1_1111_10927)"/>
</g>
<defs>
<filter id="filter0_f_1111_10927" x="2.36938" y="22.7574" width="61.1365" height="66.004" filterUnits="userSpaceOnUse" color-interpolation-filters="sRGB">
<feFlood flood-opacity="0" result="BackgroundImageFix"/>
<feBlend mode="normal" in="SourceGraphic" in2="BackgroundImageFix" result="shape"/>
<feGaussianBlur stdDeviation="10" result="effect1_foregroundBlur_1111_10927"/>
</filter>
<filter id="filter1_bd_1111_10927" x="21.4822" y="0.461929" width="66.0598" height="69.0575" filterUnits="userSpaceOnUse" color-interpolation-filters="sRGB">
<feFlood flood-opacity="0" result="BackgroundImageFix"/>
<feGaussianBlur in="BackgroundImage" stdDeviation="7.5"/>
<feComposite in2="SourceAlpha" operator="in" result="effect1_backgroundBlur_1111_10927"/>
<feColorMatrix in="SourceAlpha" type="matrix" values="0 0 0 0 0 0 0 0 0 0 0 0 0 0 0 0 0 0 127 0" result="hardAlpha"/>
<feOffset dx="5" dy="5"/>
<feGaussianBlur stdDeviation="5"/>
<feColorMatrix type="matrix" values="0 0 0 0 0.15375 0 0 0 0 0.522433 0 0 0 0 0.9 0 0 0 0.5 0"/>
<feBlend mode="normal" in2="effect1_backgroundBlur_1111_10927" result="effect2_dropShadow_1111_10927"/>
<feBlend mode="normal" in="SourceGraphic" in2="effect2_dropShadow_1111_10927" result="shape"/>
</filter>
<filter id="filter2_b_1111_10927" x="5.68213" y="4.18413" width="115.94" height="110.986" filterUnits="userSpaceOnUse" color-interpolation-filters="sRGB">
<feFlood flood-opacity="0" result="BackgroundImageFix"/>
<feGaussianBlur in="BackgroundImage" stdDeviation="12"/>
<feComposite in2="SourceAlpha" operator="in" result="effect1_backgroundBlur_1111_10927"/>
<feBlend mode="normal" in="SourceGraphic" in2="effect1_backgroundBlur_1111_10927" result="shape"/>
</filter>
<linearGradient id="paint0_linear_1111_10927" x1="66.3763" y1="27.0188" x2="-6.02244" y2="55.0511" gradientUnits="userSpaceOnUse">
<stop stop-color="#39AFFD"/>
<stop offset="1" stop-color="#477FFF"/>
</linearGradient>
<linearGradient id="paint1_linear_1111_10927" x1="77.467" y1="17.8568" x2="29.3717" y2="31.5506" gradientUnits="userSpaceOnUse">
<stop stop-color="white"/>
<stop offset="1" stop-color="white" stop-opacity="0.2"/>
</linearGradient>
<linearGradient id="paint2_linear_1111_10927" x1="36.2759" y1="45.7134" x2="79.5106" y2="83.3845" gradientUnits="userSpaceOnUse">
<stop stop-color="white" stop-opacity="0.25"/>
<stop offset="1" stop-color="white" stop-opacity="0"/>
</linearGradient>
</defs>
</svg>
