<svg width="101" height="101" viewBox="0 0 101 101" fill="none" xmlns="http://www.w3.org/2000/svg">
<path d="M47.9937 59.9884C47.5359 60.9324 47.5723 62.043 48.0881 62.9572L55.4185 75.5178C56.0388 76.5827 55.9782 77.9113 55.2645 78.9176C54.5788 79.9415 53.3653 80.4768 52.1467 80.3017L37.7417 78.4004C37.2391 78.3297 36.728 78.3798 36.2447 78.5404L35.5041 78.8104C35.2612 78.9423 35.0396 79.1159 34.8559 79.3253L25.0611 90.0813C24.5721 90.6001 23.9332 90.9537 23.2303 91.0892C21.5009 91.3728 19.8596 90.2249 19.532 88.5021L17.0634 74.1694C16.8671 73.1295 16.1783 72.2505 15.2165 71.8116L1.86163 65.8433C0.744437 65.3433 0.0191998 64.2454 0.000888852 63.023C-0.0273575 61.8072 0.619422 60.6768 1.68336 60.0877L14.5477 53.1665C15.5419 52.6834 16.2201 51.7241 16.346 50.6256L17.8586 36.1731C17.9011 35.848 17.9925 35.5298 18.1362 35.236L18.3124 34.955C18.3891 34.7661 18.4938 34.5948 18.623 34.4394L18.881 34.2215L19.2759 33.8608L20.4264 33.4414C21.4928 33.1735 22.6215 33.4587 23.429 34.2046L33.9459 44.2106C34.7089 44.9449 35.7849 45.2555 36.8208 45.0482L51.1215 42.0679C52.3291 41.8135 53.5772 42.2564 54.3555 43.2112C55.113 44.1766 55.2424 45.4916 54.6886 46.5883L47.9937 59.9884Z" fill="url(#paint0_linear_1111_10947)"/>
<g opacity="0.5" filter="url(#filter0_f_1111_10947)">
<path d="M35.3981 52.72C29.1435 52.72 24.0674 57.7974 24.0674 64.051C24.0674 70.3068 29.1435 75.3819 35.3981 75.3819C41.6639 75.3819 46.7287 70.3068 46.7287 64.051C46.7287 57.7974 41.6639 52.72 35.3981 52.72V52.72Z" fill="#FF3D22"/>
</g>
<g filter="url(#filter1_b_1111_10947)">
<path d="M81.347 57.8772C80.1931 58.5434 79.4399 59.7368 79.3308 61.0655L78.0865 79.4939C77.9798 81.0555 76.9693 82.4091 75.5019 82.9583C74.0515 83.5462 72.3943 83.244 71.2379 82.1916L57.4491 69.9275C56.9712 69.4951 56.3981 69.1835 55.7756 69.008L54.8047 68.764C54.4553 68.7296 54.0986 68.7542 53.7563 68.8434L35.7946 73.171C34.9109 73.368 33.9873 73.2844 33.1517 72.9259C31.1315 71.9917 30.224 69.6153 31.1073 67.5707L38.7254 50.744C39.26 49.5108 39.1623 48.0959 38.4639 46.9491L28.6772 31.1578C27.859 29.8361 27.8789 28.165 28.7307 26.8669C29.5674 25.5687 31.0529 24.8411 32.5911 24.98L51.0471 26.8713C52.4365 27.0719 53.8331 26.5467 54.7483 25.4815L66.637 11.3658C66.9134 11.0544 67.2363 10.7851 67.5967 10.5785L67.9822 10.4087C68.1974 10.2647 68.4296 10.1593 68.6761 10.0879L69.1026 10.0427L69.7747 9.94496L71.2831 10.324C72.5951 10.8022 73.5785 11.9064 73.8958 13.266L77.8219 31.2796C78.1008 32.5952 79.0107 33.6886 80.2474 34.2088L97.4051 41.2667C98.8559 41.8598 99.8524 43.2148 99.9903 44.7732C100.099 46.3279 99.2976 47.8026 97.9339 48.5608L81.347 57.8772Z" fill="#FFAC95" fill-opacity="0.4"/>
<path d="M78.5854 79.5276L78.5853 79.528C78.4654 81.2836 77.3306 82.805 75.6833 83.4243C74.0557 84.0811 72.1992 83.7411 70.9035 82.5633C70.9028 82.5627 70.9021 82.562 70.9014 82.5614L57.1168 70.3012L57.1136 70.2983C56.6965 69.9209 56.1948 69.6467 55.6466 69.4912L54.7203 69.2584C54.4382 69.2344 54.1535 69.2566 53.8823 69.3273L53.8734 69.3296L53.8734 69.3295L35.9117 73.6571L35.9034 73.6591L35.9034 73.6591C34.918 73.8787 33.8873 73.7856 32.9546 73.3854L32.9418 73.3799L32.9419 73.3798C30.6753 72.3316 29.6576 69.6658 30.6483 67.3725L30.6517 67.3645L30.6518 67.3645L38.2683 50.5415C38.7363 49.4587 38.6501 48.2173 38.0378 47.2107C38.0375 47.2102 38.0372 47.2097 38.0369 47.2091L28.2522 31.4212L28.2521 31.4209C27.3322 29.9351 27.3538 28.0553 28.3116 26.5942C29.2489 25.1412 30.9128 24.3264 32.6361 24.4821L32.6421 24.4826L32.6421 24.4826L51.098 26.3739C51.1049 26.3746 51.1117 26.3754 51.1185 26.3764C52.3375 26.5524 53.5634 26.092 54.3675 25.1575C54.368 25.1569 54.3685 25.1563 54.369 25.1557L66.2546 11.0437L66.2629 11.0339L66.263 11.034C66.5724 10.6853 66.9369 10.3803 67.3481 10.1447C67.3634 10.1359 67.3791 10.128 67.3952 10.1209L67.7424 9.96797C67.9918 9.8067 68.2583 9.68833 68.537 9.60763C68.5652 9.59945 68.5941 9.59378 68.6234 9.59068L69.0403 9.54652L69.7027 9.45017C69.7674 9.44077 69.8332 9.44412 69.8966 9.46004L71.4049 9.83907C71.4217 9.84327 71.4381 9.84833 71.4543 9.85423C72.924 10.39 74.0268 11.6274 74.3828 13.1524L74.3844 13.1595L74.3844 13.1596L78.3104 31.1731L78.311 31.1759C78.5555 32.3295 79.3535 33.2896 80.4394 33.7472C80.44 33.7474 80.4407 33.7477 80.4413 33.7479L97.5943 40.8039C97.5946 40.804 97.595 40.8041 97.5953 40.8042L97.5953 40.8043L78.5854 79.5276ZM78.5854 79.5276L79.8291 61.1064L78.5854 79.5276Z" stroke="url(#paint1_linear_1111_10947)" stroke-linecap="round" stroke-linejoin="round"/>
</g>
<defs>
<filter id="filter0_f_1111_10947" x="4.06738" y="32.72" width="62.6614" height="62.6618" filterUnits="userSpaceOnUse" color-interpolation-filters="sRGB">
<feFlood flood-opacity="0" result="BackgroundImageFix"/>
<feBlend mode="normal" in="SourceGraphic" in2="BackgroundImageFix" result="shape"/>
<feGaussianBlur stdDeviation="10" result="effect1_foregroundBlur_1111_10947"/>
</filter>
<filter id="filter1_b_1111_10947" x="3.07739" y="-15.055" width="121.923" height="123.31" filterUnits="userSpaceOnUse" color-interpolation-filters="sRGB">
<feFlood flood-opacity="0" result="BackgroundImageFix"/>
<feGaussianBlur in="BackgroundImage" stdDeviation="12"/>
<feComposite in2="SourceAlpha" operator="in" result="effect1_backgroundBlur_1111_10947"/>
<feBlend mode="normal" in="SourceGraphic" in2="effect1_backgroundBlur_1111_10947" result="shape"/>
</filter>
<linearGradient id="paint0_linear_1111_10947" x1="3.76413" y1="55.5887" x2="63.7876" y2="111.826" gradientUnits="userSpaceOnUse">
<stop stop-color="#FFA78F"/>
<stop offset="1" stop-color="#F23E2C"/>
</linearGradient>
<linearGradient id="paint1_linear_1111_10947" x1="39.5263" y1="18.4856" x2="86.4706" y2="75.5271" gradientUnits="userSpaceOnUse">
<stop stop-color="white" stop-opacity="0.25"/>
<stop offset="1" stop-color="white" stop-opacity="0"/>
</linearGradient>
</defs>
</svg>
